<?xml version="1.0" standalone="no"?>
<!DOCTYPE svg PUBLIC "-//W3C//DTD SVG 1.1//EN" "http://www.w3.org/Graphics/SVG/1.1/DTD/svg11.dtd" >
<svg xmlns="http://www.w3.org/2000/svg" xmlns:xlink="http://www.w3.org/1999/xlink" version="1.1">
<metadata></metadata>
<defs>
<font id="pieces_of_eightregular" horiz-adv-x="80" >
<font-face units-per-em="2048" ascent="1638" descent="-410" />
<missing-glyph horiz-adv-x="800" />
<glyph horiz-adv-x="0" />
<glyph unicode="&#xd;" />
<glyph unicode=" "  horiz-adv-x="800" />
<glyph unicode="&#x09;" horiz-adv-x="800" />
<glyph unicode="&#xa0;" horiz-adv-x="800" />
<glyph unicode="!" horiz-adv-x="654" d="M134 333l1 2q8 21 57 29q45 -12 134 55h10l26 -18q71 -18 76 -4q16 -4 33 28v40l3 8q10 9 47 0q13 -19 -9 -79l-6 -15q-37 -43 -61 -37q-42 -10 -76 -178l-92 21l-3 146q-22 -10 -93 -27q-15 -29 -24 -26l-4 1q-23 30 -19 54zM138 1660l80 -23q268 -159 279 -415 t-33 -584q-45 -12 -60 -177l-6 -42l-4 -9l-10 4q-43 10 -30 44q8 152 14 253q13 600 -175 848l84 -535q85 -367 47 -579l-2 -3q-7 -20 -43 -36l-1 1q-5 1 4 51q22 260 -43 480l-76 539q-15 81 -25 183zM235 6l29 52l48 43l74 -43v-52h-8l-21 -53l-37 -10l-52 10z" />
<glyph unicode="&#x22;" horiz-adv-x="698" d="M112 1363l52 140l25 45l43 37l64 -37v-45h-8l-17 -47l-125 -131zM372 1363l52 140l25 45l43 37l64 -37v-45h-8l-17 -47l-125 -131z" />
<glyph unicode="#" horiz-adv-x="2049" d="M23 -172l844 1636l-8 8v4q16 0 16 28q20 57 40 84l96 128v-4l-56 -160l-56 -92q0 -8 -16 -8l-16 -40q239 -63 372 -136q100 -60 216 -168q138 -140 188 -140q65 -32 180 -32h12q85 0 172 12q0 -9 -56 -24v-4l64 -8v-8h-32q-38 0 -68 -32h4q20 12 60 16v-8q-17 0 -80 -60 q52 33 96 36l28 -8v-4q-71 0 -156 -84q78 32 116 32l40 -12v-4q-59 0 -184 -108l-32 -24h-4v-4h4q128 84 184 84l20 -4v-4q-44 0 -120 -76h-4v-4h4l72 12l36 -8v-4q-75 0 -164 -56v-4l32 -8l52 8v-4q-51 -40 -132 -40v-4l40 -4h4q62 0 120 36h8q-26 -38 -104 -76 q-66 -20 -152 -28v-4q56 -28 92 -28l108 20q-41 -44 -108 -64v-4h4q53 5 136 68v-4q-48 -63 -132 -100q-144 -60 -196 -60v-4l80 -12q0 -21 -168 -28q-237 0 -356 204q-110 151 -188 192q-132 80 -328 80h-100q-56 0 -56 -24l-448 -868q-20 0 -20 8zM571 848h4 q209 277 236 404q16 36 32 116v4h-4zM1003 668q9 -36 20 -36l32 4q99 -12 160 -28q44 -111 44 -160l-8 -52q59 0 104 56h-28v8q15 0 20 32q0 24 -28 24l-24 -8l-48 96h4l112 -24v-16q0 -24 24 -24h12q18 0 36 24l8 -20h4q32 22 32 64q-5 16 -20 24q-32 -12 -60 -12h-24 q-146 7 -148 20q-78 130 -104 196l-12 4q-29 0 -56 -40v-12l4 4h20l-8 -28q13 -32 36 -32l24 4l60 -88v-4h-4q-92 18 -92 32q0 15 -24 32h-24q-10 0 -12 -16h-4q-9 0 -12 20q-12 0 -16 -44zM1203 764q16 -104 100 -104q73 0 100 64h-8v4l-36 -24v4l16 28h44q39 0 44 60 q40 51 40 100q-25 176 -120 176q-87 0 -132 -160q-24 -8 -24 -32v-24q24 -33 24 -44q-9 -28 -16 -28h-4l8 36l-12 8q-24 -40 -24 -64zM1243 756v16l8 8h12v-8l-8 -16h-12zM1259 736v4l4 20h16q0 -21 -12 -24h-8zM1267 876q6 36 36 36q40 -3 40 -16q0 -40 -40 -40 q-36 0 -36 20zM1279 720v4l4 20h16q0 -21 -12 -24h-8zM1303 708v16l8 8h4l8 -8l-8 -16h-12zM1307 800l28 20l4 -4v-12q0 -21 -16 -28q-16 4 -16 24zM1327 712l8 16h12v-4l-4 -20h-8zM1379 824v12q3 24 12 24h16q23 -18 28 -44v-4q0 -21 -16 -28h-12q-28 17 -28 40z" />
<glyph unicode="$" horiz-adv-x="2413" d="M23 -287q311 97 793 498v11l6 75q-4 30 -81 107l-10 38l10 48l-27 139v140q-21 0 -16 134l-150 225q-30 -12 -53 -70q7 -42 64 -91q27 -37 27 -70q-7 -48 -48 -48q-38 0 -102 91q-173 91 -236 150q-97 86 -97 247q0 232 183 300l21 5q42 0 86 -53v-22l-5 -5v-5l123 -156 q48 33 48 102v5l-5 -5h-11q-58 0 -75 107q7 22 27 32h5q99 0 166 -273v-38q0 -64 -27 -112l151 -182q107 203 375 203q281 0 423 -193l182 225q-17 41 -33 60.5t-62 74.5q10 46 94 25l102 -21l17 22l16 22q79 117 118 155l-5 6v26q35 49 80 49h17q106 -15 113 -120 q-56 -62 -101 -33q-42 -43 -138 -203l67 -144q51 -137 -43 -101q-76 73 -106.5 81.5t-43.5 9.5q-144 -201 -193 -300v-5q16 -70 -16 -145l5 -5v-6l-32 -214l10 -75q-49 -36 -80 -113q-39 0 -48 -91q380 -326 627 -450q207 -118 252 -118v-5q-31 -32 -102 -32 q-202 0 -616 171q0 11 -49 27q-12 26 -166 134q-116 -134 -236 -182h-5q-130 0 -198 54l-129 134q-115 -110 -359 -199q-281 -85 -413 -85q-68 0 -91 37zM82 -287v-5h27q121 0 209 27l-11 10l-48 -16q0 21 145 54h5l5 -6q51 27 113 33q49 25 75 53l27 -5h10q34 43 86 43 l6 -6q0 13 26 16v-5l-5 -5v-6h21q0 26 33 49l-6 5v5l48 64q-16 28 -16 54h6l-11 69q-198 -176 -289 -224v-6h5l21 6l11 -16q0 -15 -150 -54l5 -5v-6q-35 -32 -101 -32h-17v11q90 49 92 59q-129 -82 -322 -161zM125 1331q0 -69 21 -69l11 10l-11 27l6 6h5v-11h5v5l-5 22h11 l-6 26v27h11l-11 91h11q0 -26 11 -26q0 42 16 42l5 -5l-10 -96v-6q0 -59 85 -193v-32q-5 -16 -32 -16l-5 5h-6v-5l6 -27l-6 -5l-26 11q33 -49 230 -150q55 -86 97 -86q32 0 32 27q0 46 -75 107l-11 32h-5v-5l5 -16l-5 -6l-38 27q0 -9 81 -70q26 -30 26 -64l-21 -16 q-31 0 -59 53l11 11q-11 0 -11 27q-25 11 -48 48l-16 -5l-92 107v16l27 -27h6q-9 25 -33 38v-11q-10 0 -16 43q-80 99 -80 241v38q12 139 91 139l54 -11q0 13 -54 17q-141 0 -182 -252v-33zM136 1246l10 -11v5l-10 11v-5zM200 1176l5 -5v-6l16 6v10h-21v-5zM232 1417 q35 -187 118 -273q11 0 11 -16l27 -16l-6 26v11q0 71 27 166l-134 172q-43 -38 -43 -70zM253 1557l6 -38h5q0 54 16 54v5h-10zM329 -260v-5q103 0 369 117v22l-75 -38h-5l-11 11q-94 -80 -182 -80l-11 -11l-21 5zM334 1573l16 -16l11 10zM350 1540l5 -32l6 6h5l27 -16h21v5 l-32 37h-32zM355 1112l54 -65l16 6l-64 59h-6zM398 1465q19 0 48 -37h22l-48 53q-22 -8 -22 -16zM404 1144h10l-5 27v5q21 19 21 80v11h11v-43h5q0 50 27 97v5h-5l-16 -37h-11v16h-5q-32 -62 -32 -161zM425 -110v-5h16q20 0 75 42q32 0 91 59q56 23 220 177v16h-5 q-252 -209 -397 -289zM446 1412l17 -22l-6 -16l16 -10l22 26q-29 22 -49 22zM463 1208l16 -107h5q14 6 43 54q-48 69 -48 85l16 22l-16 21v6h5l32 -17v6q0 11 -16 11l-5 5v5l5 6l22 -11v5l-17 6l6 5v5l5 -5h6l5 5h5q39 -11 97 -75q16 38 16 86q0 167 -107 284l-22 6 q-27 -4 -27 -17v-16q0 -32 38 -59h11l16 16v6l-16 -11h-22l-16 32v11l5 5v6l-5 5l11 11h21q26 0 54 -102v-38q0 -38 -81 -128q-42 -54 -42 -113v-16zM468 1063l5 -16h6v6l-6 16h-5v-6zM495 -99v-6h5l16 6v5h-16zM495 1230q64 -75 214 -301q39 29 48 65l-80 85v-10h-11 l-21 32q-24 0 -86 91v5l16 -10v5l-21 16l-27 -5l-5 5v11l21 21h21q32 0 124 -134q75 -89 75 -102h5l11 22l-209 246q-45 0 -75 -42zM747 436q0 -10 101 -96q0 -13 22 -27l48 11q75 -21 75 -70l-5 -32q41 -38 150 -38l32 -21l113 37l5 6v5h16v-16h11q0 21 11 21l5 -16 q18 16 32 16l-11 70q14 42 33 48l107 -21q0 23 48 32l80 113v10h-5l-43 -21q-15 8 -27 123l6 6h5l11 -22h11q53 91 53 129v48h-43q-24 -145 -32 -145q-54 90 -54 129l6 27l-424 37q-74 -27 -166 -27h-64l5 -5l-5 -27v-16h-11q-9 54 -21 54h-22q32 -56 32 -86v-11l-32 -96 h-10l-6 5h-5l11 38q0 63 -33 91v16q49 -7 49 -48h5v16l-27 75h-37v-140l43 -107h5q0 32 11 32l10 -64l6 5h16q30 -58 96 -58l27 5v-5l-11 -11h-21q-102 0 -102 59h-5q0 -48 -38 -48q-21 8 -21 16l16 26l-6 16q-8 0 -26 -48zM779 972l150 65q162 32 241 32h16q88 0 386 -59 q0 -11 22 -11q-44 88 -140 145q-123 75 -246 75h-86q-222 0 -343 -241v-6zM795 -78v-5h5l81 53l-11 16q-33 -10 -75 -64zM822 585q69 41 107 38t96 -20l64 -6q12 -76 -11.5 -105t-64 -43.5t-72.5 -8.5t-61 20.5t-43.5 40.5t-14.5 84zM843 238l16 -204h11l11 38l-6 5v5l6 17 l-27 171h-6zM859 291l6 -16h5v16h-11zM875 13l16 5v38h-5zM875 249q32 -137 32 -226h-5l5 -5v-5l-5 -6q0 -35 113 -128q0 -45 102 -69l42 10l16 -16h33q190 87 209 172l-11 37l43 203v6h-5q0 -48 -81 -156q-96 -85 -107 -85l-27 5l-59 -10l-21 10l-32 -10q-110 38 -151 106 q0 22 -16 22l-16 -16q-20 2 -53 166h-6v-5zM886 769h59q0 21 27 21v5h-11q-48 -21 -75 -21v-5zM977 795h22v6h-22v-6zM993 72l6 -6h5v16zM1009 72l6 -22h10l6 22l-22 5v-5zM1015 190l5 -22h5v22h-10zM1031 50l5 -16h11v27zM1047 147l11 -11v38l-11 -11v-16zM1047 811h5h-5z M1058 29l10 -11v22h-10v-11zM1068 136q8 -21 16 -21l6 5l-6 37v22h-10zM1079 34l5 -37h11l5 5h6l-11 43h-5zM1079 318q0 66 54 129l53 16q81 -19 81 -150q-3 -17 -49 -38l-37 -53h-6v27q14 26 38 26v6q-35 0 -38 43h-10q0 -29 -22 -38h-5q-42 0 -59 32zM1117 29l5 -37h11v42 h-16v-5zM1117 270v5h21q21 -8 21 -37v-5h-5zM1133 104l32 5l-6 54l-16 5l-10 -48v-16zM1133 602l32 27h27l32 -32v-5h-6l-43 26l-32 -26zM1138 522q9 64 21 64l6 -5v-16q0 -40 -16 -43h-11zM1143 29l6 -27h5v38h-11v-11zM1165 23l10 -26h6l11 10v27h-22v-11h-5zM1181 109 l21 -5l11 43v5q0 11 -16 11l-16 -6v-48zM1208 -3h10l6 26v11h-16v-37zM1208 543v33l10 10l6 -5l-6 -5l6 -38v-21h-11zM1224 115h10q17 3 17 42l-17 11zM1256 115h21l11 42l-5 27h-16l-6 -21l6 -6v-5zM1260 588q26 22 38.5 30t37 9.5t33.5 -3t23 -4.5t25.5 1t27.5 -2.5 t28.5 -9.5t54.5 -16q-14 -69 -24.5 -90.5t-34.5 -36t-55 -19t-52 5t-42.5 17.5t-29 21.5t-11.5 31t-19 65.5zM1299 136l10 11v10l-10 11v-32zM1320 82l6 -26h10l6 26v6h-6zM1336 163h11v21l-11 -10v-11zM1358 174l10 10v11l-10 -11v-10zM1379 431v5l54 -10q46 0 86 42h5v-16 q-34 -48 -75 -48q-70 12 -70 27zM1438 7l6 -21h10l-10 27h-6v-6zM1449 77q4 -70 21 -70q16 6 16 33l-16 101l11 54h-11q-21 -70 -21 -102v-16zM1465 -30v-5l145 -102l16 6l10 -11l11 11q2 -9 102 -38q0 -16 21 -27h11l27 6q62 -65 145 -65q0 -10 27 -10l10 -11l6 5h10 q70 -12 70 -27l5 6h6q64 -16 64 -32h-11l-43 16l-5 -6v-5q84 -27 220 -27h16v5q-51 9 -322 161v-5l91 -54v-10h-16q-66 0 -101 32l5 5v5q-150 39 -150 54q0 13 21 16l6 -5h10v5q-121 68 -353 284h10q257 -214 274 -214q64 -64 107 -64q23 -38 70 -38h5v5q-136 74 -477 354 l-6 -108q0 -56 54 -106q54 -65 54 -86v-11q-49 49 -140 97zM1486 -14v-5l70 -37q-34 59 -54 69zM1519 699q6 -27 16 -27l21 64h-27zM1594 1031q8 -21 16 -21q202 284 230 284h27l21 -22v-5l-10 -11l-27 6l-16 -22h5l11 11v-5q-39 -68 -91 -97l-16 -27h-11v11 q-78 -80 -118 -145q2 -14 27 -21q0 8 37 27v-6q0 -12 -37 -26q21 -25 21 -38q156 242 252 359q-32 43 -64 43q-27 0 -241 -279zM1599 479h11v43h-6zM1626 -153l16 -16l16 16l-16 5zM1658 -174v-6l27 -16h5q-2 11 -27 22h-5zM1706 -180q0 -34 64 -48q125 -59 306 -91h5v5 l-69 22l-22 -6q0 11 -91 27l-96 64l-22 -10q-49 37 -75 37zM1708.5 1404.5q10.5 -11.5 24 -27t31.5 -35.5t23 -48q44 62 74 65q27 -1 45 -18.5t25 -46.5q0 -16 -48 -86q69 -33 128.5 -84t-2.5 44l-62 94v16q0 79 -138 114q-75 32 -93 28t-7.5 -15.5zM1899 -148l11 -10h5 l-11 10h-5zM1915 1439l27 -22q0 16 11 16l-6 6v5l16 21h-10q-35 -14 -38 -26zM1942 1364q21 -40 21 -86h6v43h11v-11q0 -61 21 -80v-6l42 -72q-37 131 -74 190h-11q-4 27 -16 27v-5zM1942 1481h21q30 38 49 38l-11 11h-16zM1996 1551h21l32 16l6 -5l5 32h-32l-32 -37v-6z M2049 1621l11 -11l16 16h-11zM2130 1626q16 0 16 -59h5l5 49l-21 16h-5v-6z" />
<glyph unicode="%" horiz-adv-x="1549" d="M23 -391v1814h48v-1814h-48zM78 143v1162q81 42 169.5 63.5t179 22.5t180 -18t171.5 -58q91 -48 188 -75t194 -30t189.5 20t173.5 75v-1162q-77 -53 -166 -76.5t-181 -23.5t-182.5 23.5t-170.5 64.5q-91 53 -188 80.5t-193.5 28.5t-189 -23t-174.5 -74zM230 881 q24 -45 59 -81.5t71 -72.5q118 -93 231 -189t224 -198q37 -34 77 -64.5t85 -53.5v6q-34 25 -68.5 48.5t-66.5 50.5q-49 47 -97.5 93.5t-92.5 96.5q1 2 2.5 2.5t2.5 2.5q6 -10 15 -16l18 -12q41 -39 82.5 -76.5t83.5 -74.5q29 -25 59.5 -49t67.5 -37h3l7 3l2 3 q-79 47 -148.5 106.5t-136.5 122.5t-134 125.5t-142 116.5q-48 42 -98.5 79.5t-105.5 70.5v-3zM385 1136q-2 -25 6.5 -47t24 -39.5t36.5 -31t43 -20.5q7 -2 14 -3.5t15 -3.5q11 -1 22 -0.5t22 -2.5q-13 -27 -18 -55.5t-5 -58.5q-1 -42 10.5 -81.5t31.5 -75.5t46.5 -68.5 t56.5 -60.5q24 -21 50 -40.5t55 -34.5q8 -4 15.5 -8.5t15.5 -8.5q29 -16 60 -18t61 7t56 27.5t45 43.5q18 32 29 67t11 72v9q-1 11 -1 23t-1.5 23.5t-6.5 21.5t-16 16q-18 7 -36 16q-10 -14 -15 -30l-10 -32q-9 -11 -22.5 -14t-26.5 2q-24 8 -43 24.5t-36 35.5q-8 12 -14 25 t-7 28l9 73v3q-25 33 -51.5 64.5t-54.5 61.5q-9 13 -18.5 25t-18.5 25q1 12 2.5 24.5t3.5 25.5q1 52 -24.5 97.5t-69.5 73.5q-12 5 -24.5 9.5t-24.5 9.5q-27 5 -51.5 -1t-46.5 -19.5t-40.5 -33t-32.5 -39.5q-12 -25 -19.5 -52t-6.5 -54zM402 411q2 -15 11.5 -29.5 t26.5 -13.5q7 1 14.5 5t8.5 12q-11 17 -12 34l3 7v2q-3 1 -7 1.5t-7 1.5h-9q-10 0 -19.5 -4.5t-9.5 -15.5zM457 351q3 0 6 -0.5t6 -0.5q10 6 8 17q-5 -3 -10 -6.5t-10 -7.5v-2zM475 411q1 -15 10 -23.5t21.5 -12.5t25.5 -6.5t24 -5.5q7 -2 13.5 -3.5t12.5 -4.5v17 q-1 2 -1.5 2t-1.5 2v3q1 0 1.5 0.5l1.5 1.5l-26 28q-4 1 -8.5 1.5t-8.5 1.5q-15 4 -30.5 6.5t-31.5 5.5l-2 -3v-10zM530 473q11 -4 18 -11.5t12.5 -17.5t10 -20t8.5 -19q6 -5 11.5 -10t9.5 -12v-11q1 -14 4 -27.5t9 -26t15 -22.5t24 -14q7 -3 14 -8q10 1 21.5 0.5t19.5 7.5 v6q-1 3 -1.5 7.5t-1.5 8.5h-1t-2 1q-10 1 -21.5 2.5t-22.5 1.5q-15 5 -22 19t-9 28l2 2v29q-18 18 -29.5 41.5t-24.5 46.5q-5 3 -10 7t-11 5q-6 2 -13 -1t-10 -10v-3zM626 411q6 -4 12.5 -8.5t13.5 -8.5q23 -6 47.5 -5t48.5 6q-6 5 -12 10.5t-11 10.5q-26 -1 -50 -2t-49 -1 v-2zM652 351q36 0 71.5 -1.5t71.5 -1.5v3q-5 5 -10.5 10t-10.5 10q-30 3 -59.5 2t-60.5 -3q-1 -6 -2 -10v-8v-1zM733 1092q28 -36 57 -72.5t60.5 -70.5t67.5 -63.5t77 -51.5l38 -22t40 -16v2q-4 6 -5.5 12.5t-4.5 12.5l3 -1q12 -3 23.5 -5.5t23.5 -4.5q21 -4 41.5 2t37 18.5 t30 29.5t21.5 36q11 25 11 51v23q1 30 -9.5 56t-28 48t-40 40t-45.5 34q-21 10 -42.5 16.5t-43.5 10.5q-21 5 -43 4t-41.5 -9.5t-34.5 -23.5t-22 -37q-3 -10 -3.5 -22t-2.5 -22q2 -13 4.5 -26t4.5 -26q0 -1 -1 -1.5t-2 -1.5l-3 2q-22 16 -45 30.5t-47 27.5q-19 8 -38 12.5 t-38 10.5v-3zM803 416q5 -10 14 -16t19 -12q37 -3 73.5 -1t73.5 7q1 -2 1.5 -2.5l1.5 -1.5v-3q-32 -8 -64.5 -15.5t-65.5 -2.5v-5q6 -5 12 -9t12 -7q71 0 140 21t129 60q89 54 156.5 135t101.5 180l-3 -2q-52 -76 -116.5 -141t-144.5 -110q-77 -43 -164.5 -63t-175.5 -12z M910 182q1 -8 6 -13.5t11.5 -9.5t14 -7t14.5 -5q13 -5 27.5 -4.5t24.5 11.5q12 17 15.5 32t3.5 29q15 11 27 23.5t22 26.5q6 2 12 4.5t12 3.5q-5 10 -12 18t-19 10q-8 -3 -14.5 -9t-12 -14t-9 -17t-6.5 -17q-8 -4 -16 -7t-16 -3q0 -6 1.5 -10.5t1.5 -10.5v-6q2 -13 -5.5 -24 t-21.5 -9l-3 1q-11 4 -21.5 8t-21.5 8q-4 0 -9.5 -1.5t-5.5 -7.5zM1051 182h15q12 -1 23.5 -2.5t23.5 -2.5q18 -2 34 9t15 32q-24 -2 -48.5 0.5t-47.5 1.5q-3 -5 -7 -9t-8 -9v-20zM1155 150q2 -5 7 -9t11 -3q-5 4 -8.5 8t-9.5 7v-3zM1167 174q4 -8 11.5 -13.5t16.5 -4.5 q17 4 28.5 18.5t10.5 32.5q-7 8 -14.5 15t-18.5 7q-2 0 -5 -0.5t-5 -0.5q-8 -5 -9 -15.5t-2 -18.5q-3 -6 -6.5 -10.5t-6.5 -9.5z" />
<glyph unicode="&#x26;" horiz-adv-x="1249" d="M23 341l15 93l30 108l50 62l75 56q48 34 83 72l47 46l-76 25l-34 15l-56 52q-44 71 -61 103t-22.5 78.5t4 87.5t68.5 119l75 67l74 37l131 27l63 14l127 -14l56 -12l30 -11l37 -15l7 -18l15 -23l53 -30l11 -29l33 -34l19 -101l-19 -89q-22 -63 -59 -86q-44 -19 -62 -73 l-18 -30l-67 -61l69 -47l134 -222l41 -54l154 -184l39 -60l60 -84l35 -15l20 -41q19 -42 -38 -53l-57 -11h-95l-19 38l-204 270l-204 270l-61 58l-38 37l-31 18l-64 -34l-75 -82l-30 -69l-6 -51l1 -76q8 -72 21.5 -103t25 -47t42.5 -42l43 -31l41 4q156 -14 171.5 -9.5 t31 9.5t58.5 37t42 111l6 54l33 47l216 175l25 -25q26 -112 8 -165.5t-48 -146.5l-89 -130l-101 -49l-116 -22l-85 -19q-238 29 -299.5 29t-143.5 59l-75 52l14 40l7 37l-7 8l-42 20l5 23l-6 25zM320 1004l20 -17l23 -25l23 -23l3 -30l46 -32l55 -37l85 69l32 78l16 40 l-2 41l-5 23l-8 58l-4 22l-11 39v30l-41 35q-71 25 -106 25q-43 -17 -55 -27q-34 -30 -39.5 -45.5t-20.5 -40.5l-8 -33l2 -42l-4 -33l12 -28l5 -19z" />
<glyph unicode="'" horiz-adv-x="390" d="M95 1363l52 140l25 45l43 37l64 -37v-45h-8l-17 -47l-125 -131z" />
<glyph unicode="(" horiz-adv-x="767" d="M137 70q53 23 73 13l10 -11l17 -54q39 -40 64 -30q13 -18 117 25l33 33l17 2q166 -68 234 -40q81 2 103 -25l1 -2q18 -32 -7 -79l-6 -3q-11 -6 -49 29q-119 5 -197 21q-164 -42 -234 -39q-35 -15 -112 35l-15 19q-61 77 -49 106zM180 575q-14 257 68 581q70 208 134 309 q151 197 231 231l38 13q-8 -26 -50 -80q-84 -164 -167 -461q-47 -236 -52 -382q-7 -320 138 -672q35 -67 29 -70l-4 -1q-62 12 -82 37l-4 5q-149 281 -143 774l-3 2q-37 -232 -23 -301q38 -259 116 -465q34 -44 -27 -70l-16 -7l-8 11l-29 56q-93 223 -146 490zM470 -117 q-7 9 28 34q20 9 92 -4l88 -104q16 -25 2 -31l-31 -10q-133 -1 -117 36zM515.5 -278q-26.5 47 102.5 18l8 3l73 6l7 3q-19 24 -4 31q15 6 42 -15q20 -29 23 -66q0 -26 -43 -44l-23 -10q-102 10 -113 18q-46 9 -72.5 56z" />
<glyph unicode=")" horiz-adv-x="912" d="M143 -19l1 2q22 27 103 25q67 -28 233 40l18 -2l32 -33q104 -43 118 -25q24 -10 63 30l18 54l9 11q21 10 73 -13q13 -29 -48 -106l-15 -19q-77 -50 -112 -35q-70 -3 -234 39q-78 -16 -197 -21q-38 -35 -49 -29l-7 3q-24 47 -6 79zM182 -298q2 37 23 66q27 21 42 15 q14 -7 -4 -31l6 -3l73 -6l8 -3q130 29 103.5 -18t-73.5 -56q-11 -8 -112 -18l-23 10q-43 18 -43 44zM268 -222q-13 6 3 31l88 104q71 13 92 4q35 -25 28 -34l-62 -79q16 -37 -118 -36zM298 1709l38 -13q80 -34 231 -231q63 -101 134 -309q82 -324 67 -581 q-52 -267 -146 -490l-28 -56l-8 -11l-16 7q-61 26 -27 70q78 206 116 465q13 69 -23 301l-3 -2q5 -493 -143 -774l-4 -5q-20 -25 -83 -37l-4 1q-5 3 30 70q145 352 138 672q-6 146 -53 382q-82 297 -166 461q-42 54 -50 80z" />
<glyph unicode="*" horiz-adv-x="2051" d="M125 1121l533 439q-50 -309 118 -498t248 -287q90 87 224 253.5t122 476.5l476 -498q-346 26 -489.5 -110t-243.5 -230q88 -91 294.5 -266.5t518.5 -162.5l-498 -476q26 346 -150 530t-272 286q-108 -90 -248 -253t-155 -511l-439 532q311 -49 482.5 104.5t271.5 234.5 q-89 106 -267.5 263.5t-525.5 172.5z" />
<glyph unicode="+" horiz-adv-x="3430" />
<glyph unicode="," horiz-adv-x="434" d="M125 -99l59 159l29 51l49 42l72 -42v-51h-9l-19 -54l-142 -148z" />
<glyph unicode="-" horiz-adv-x="526" d="M23 664l464 80l13 -69l-172 -36l-212 -80l-88 36z" />
<glyph unicode="." horiz-adv-x="419" d="M125 6l29 52l48 43l74 -43v-52h-8l-21 -53l-37 -10l-52 10z" />
<glyph unicode="/" horiz-adv-x="880" d="M120 -147l524 1621h116l-526 -1621h-114z" />
<glyph unicode="0" horiz-adv-x="959" d="M28 843.5q9 113.5 35 180.5t78 155l82 87q58 47 192 93q64 24 116.5 12t157.5 -58q93 -64 136.5 -131t78.5 -166l24 -134l-18 -82v-81l18 -59v-157l-24 -116l-64 -146q-40 -76 -63.5 -110.5t-79 -55t-171.5 -55.5q-82 6 -154.5 26t-119.5 58t-87 114l-6 35l-6 29l-58 52 l-35 53l-23 209q-18 134 -9 247.5zM291 677q7 -168 19 -312l44 -108q43 -77 62 -104.5t69 -39.5q56 12 72 21.5t31.5 39t33.5 89.5l25 96l7 60l19 108l-7 157l-12 168l-12 174l-26 138l-25 66q-75 47 -130 47l-69 -24l-38 -72l-50 -119q-13 -97 -6.5 -163t-6.5 -222z" />
<glyph unicode="1" horiz-adv-x="647" d="M25 1105l12 87l222 212l62 -42l37 29l132 6l-13 -56q1 -16 7 -52t-6 -167v-197l-18 -42h-26l-50 -66l26 -37v-34l42 -22h21v-45l17 -427q8 -94 63 -130l69 -13v-59q-249 14 -500 0l-6 72q62 8 81.5 33.5t25.5 112.5l-6 738q3 149 -30 144t-162 -45z" />
<glyph unicode="2" horiz-adv-x="1010" d="M35 268l31 26l5 44h-4q-15 5 -23 19q-5 89 133 300q82 104 194 169q104 62 166 122l15 1q20 -7 39 -30h4l18 5v-4q16 1 23 54l7 8l-9 28l30 110l2 36q-5 37 -57 85q-55 37 -132 32l-11 -1l-14 -5l-5 4q-82 -14 -215 -117q-90 -84 -101 -159l-25 -13l-15 3l-4 -4 q-37 1 -37 9q-31 225 200 361l187 36l4 -4h4l14 5l4 -4l3 4l37 3l33 -2l4 4h4q98 -1 225 -110q67 -77 113 -162q15 -198 -73 -309q-99 -102 -216 -173q-82 -46 -159 -114q-149 -107 -144 -181q-21 -47 -25 -94q14 -31 76 -27l193 -21l84 -14l39 14l45 3q99 -13 134 49 q40 55 76 81l3 78q58 -5 64 -12q-42 -328 -52 -345l-17 -5l-19 -1q-22 16 -166 13q-1 17 -138 15q-159 7 -299 -18h-70l-144 -9q-9 -1 -12 15q-4 68 -27 202z" />
<glyph unicode="3" horiz-adv-x="922" d="M25 172l50 50l56 2l34 -24l52 -19l61 -6l61 -7l131 50l114 103l34 78l-17 32q-31 246 -120 246q-31 0 -95 -31h-24q-25 0 -65 27l8 85v11h10q66 0 196 76q135 117 135 191l23 30q-23 50 -14 95q-87 112 -156 118q-76 0 -251 -74l-53 -12l-40 -19l-44 81l24 50l39 31 l39 30l88 39l173 27q102 -6 201 -27q20 0 20 -30h30q0 -16 10 -16l5 -5q39 0 98 -122l24 -58l16 -66l-16 -123q-53 -73 -91.5 -124.5t-124.5 -107.5v-20q24 0 97 -28.5t119 -157.5l18 -62l17 -50l-13 -50l-15 -68l-59 -131q-112 -126 -418 -155h-113l-50 19l-67 7l-100 37z " />
<glyph unicode="4" horiz-adv-x="1130" d="M25 417v30q0 24 244 366q155 235 255 463q111 111 164 142h7v-4l4 -15l54 -15l87 4h11l26 4l4 -4l-11 -60l7 -78l-7 -187v-138q-8 -48 -33 -48q-18 0 -55 -68q22 -32 22 -44v-27l62 -22v-127q0 -7 11 -7q99 0 167 11l4 -4v-60q0 -39 -69 -119h-106l4 -34q0 -233 55 -250 q0 -9 69 -22l3 -4v-49l-3 -3v-4l-233 7l-233 -7q-8 7 -11 71q67 15 80 37q22 42 22 138v127q-122 0 -252 12q-57 -12 -345 -15zM294 600q47 -18 295 -18h26v261q0 209 -22 209l-11 37l-70 -138q-91 -162 -218 -351z" />
<glyph unicode="5" horiz-adv-x="960" d="M8 341q59 71 119 58l1 -34l26 -17l13 -35q13 -35 54 -71l41 -36q81 -72 100 -73l19 -1h22h21q155 0 221 137l5 18q4 17 21 32l17 15q0 35 -24 88v55q0 54 -93 114l-93 59l-120 58q-121 57 -188 69q-68 12 -68 31q110 561 120 561l27 7l53 -15h32q54 0 160 -22h24 q174 22 229 22t117 44q9 0 15 -194l23 -182v-3l-46 -41h-7q-5 0 -53 113q-75 120 -153 90l-7 8h-13l-63 18l-16 -14l-17 4h-6l-11 -8h-40q-99 0 -130 -55l14 -18v-4q-21 -16 -21 -52l-6 -11v-14q12 -22 73 -70q13 -2 13 -11l-2 -3v-4q6 0 9 -25h7v-4l3 4h4l20 -4q0 17 40 29 q49 -61 180 -128q92 -73 143 -162q68 -123 84.5 -188.5t-25.5 -150t-105 -144.5q-164 -151 -363 -151q-215 0 -330 151q-70 68 -70 160z" />
<glyph unicode="6" horiz-adv-x="976" d="M25 630q5 59 8 96.5t38 95.5l18 35l5 18v23v12l6 17l35 35l6 6v41l18 23l46 64l6 18l29 29q64 52 81.5 69.5t52.5 46.5l64 29l88 64l104 41q122 33 251 12l35 -21l-6 -37l12 -41l-35 -13l-35 12q-70 15 -134 3q-64 -23 -94 -35q-81 -64 -104 -87l-29 -29q-12 -17 -47 -90 q-18 -41 -35 -81l-47 -70l-17 -53l-18 -58v-87l-17 -53l-6 -99l-11 -64q23 -58 17 -111l6 -69l35 -30l29 -64q29 -35 40.5 -46.5t64.5 -22.5l40 -6l53 23q29 19 52.5 65t34.5 86v35l12 47v17l12 34v23l-6 58q-12 18 -29 59l-12 46l-41 35l-41 29l-5 18q-41 5 -59 5l-40 -17 q-35 -12 -59 -17l-35 -28v29l6 23l6 30l12 23l40 41l41 29l58 29q74 16 152 -6l12 -6h17q60 -3 134 -46q35 -64 64 -94l29 -69l12 -82q6 -58 6 -90t-3 -44t-9 -64l-41 -82q-125 -198 -225 -215l-25 -12l-18 -11l-70 -18l-87 -6l-58 -5l-128 40l-117 70l-46 53l-35 52 l-47 157l10 17l7 9l18 -2l-12 41q-5 11 -38 72z" />
<glyph unicode="7" horiz-adv-x="1177" d="M150 1075q41 168 47 262l-12 70l6 35q93 -47 166 -44t178 9l93 -24l23 -6l70 -5h6l23 5l64 18q12 6 93 0l41 -6l29 12l47 6h35q-6 -59 -6 -129l-6 -69l-23 -59v-29q-12 -93 -53 -134q-145 -209 -215 -268v-40l-17 -59l-24 -35l-17 -11l-58 -111l-70 -76l-30 -87 q-34 -70 -81 -111l-35 -81l-47 -58v-52l-104 -6h-18h-41l-46 6q17 110 134 290q46 70 70 105l-6 47q81 99 151 239l53 99q35 58 186 263l105 152q11 29 -76 52l-70 -29l-35 12l-17 11h-23l-30 12l-64 6l-11 -29h-47h-17q-70 23 -169 -111l-53 -83l-35 -6z" />
<glyph unicode="8" horiz-adv-x="952" d="M25 341l15 93l30 108l50 62l75 56q48 34 83 72l47 46l-76 25l-34 15l-56 52q-44 71 -61 103t-22.5 78.5t4 87.5t68.5 119l75 67l74 37l131 27l63 14l127 -14l56 -12l30 -11l37 -15l7 -18l15 -23l53 -30l11 -29l33 -34l19 -101l-19 -89q-22 -63 -59 -86q-44 -19 -62 -73 l-18 -30l-67 -61l69 -47l68 -45l110 -109q26 -112 22.5 -162.5t-33.5 -143.5l-89 -130l-101 -49l-116 -22l-85 -19q-127 12 -188.5 12t-143.5 59l-75 52l14 40l7 37l-7 8l-42 20l5 23l-6 25zM284 461l1 -76q8 -72 21.5 -103t25 -47t42.5 -42l43 -31l41 4q45 3 60.5 7.5 t31 9.5t58.5 37t42 111l6 54l5 53l-24 59l-4 33l-44 54l-61 58l-38 37l-31 18l-64 -34l-75 -82l-30 -69zM322 1004l20 -17l23 -25l23 -23l3 -30l46 -32l55 -37l85 69l32 78l16 40l-2 41l-5 23l-8 58l-4 22l-11 39v30l-41 35q-71 25 -106 25q-43 -17 -55 -27 q-34 -30 -39.5 -45.5t-20.5 -40.5l-8 -33l2 -42l-4 -33l12 -28l5 -19z" />
<glyph unicode="9" horiz-adv-x="937" d="M25 946q0 32 3 44t8 64l40 82q6 34 39 72t123 126l77 29l17 11l68 18l83 6l55 5l123 -40l112 -70l44 -53l34 -52q45 -157 59 -294l2 -96q-5 -59 -8 -96.5t-36 -95.5l-17 -35l-5 -18v-23v-12l-6 -17l-33 -35l-6 -6l-28 -12l-29 -34l-44 -64l-5 -18l11 -47 q-61 -52 -78 -69.5t-50 -46.5l-62 -29l-84 -64l-100 -41q-116 -33 -240 -12l-33 21l5 37l-11 21l33 53l34 -12l11 -6l56 -29h28l33 12l23 5q38 18 67 30l56 46q22 18 44 41l28 29q11 17 45 70q17 41 33 101l45 70l16 53l18 58v87l16 53l6 99l10 64l-22 58l6 53l-6 69l-33 30 l-28 64q-28 35 -39 46.5t-62 22.5l-38 6l-51 -23l-11 -23l-33 -29l-29 -59l-10 -40v-35l-12 -47v-17l-11 -24v-23l6 -78q11 -18 27 -59l12 -46l39 -35l40 -29l4 -18q40 -5 57 -22l38 17q34 12 57 17l27 3l-5 -47l-12 -23l-38 -41l-39 -29l-56 -12q-71 -16 -146 6l-11 6h-16 q-58 3 -129 46l-33 64l-28 30l-28 69l-11 82q-6 58 -6 90z" />
<glyph unicode=":" horiz-adv-x="434" d="M125 6l29 52l48 43l74 -43v-52h-8l-21 -53l-37 -10l-52 10zM185 754l29 51l49 43l74 -43v-51h-10l-19 -54l-37 -11l-53 11z" />
<glyph unicode=";" horiz-adv-x="434" d="M125 -99l59 159l29 51l49 42l72 -42v-51h-9l-19 -54l-142 -148zM185 754l28 51l50 43l73 -43v-51h-9l-19 -54l-37 -11l-53 11z" />
<glyph unicode="&#x3c;" horiz-adv-x="1160" d="M75 667l95 69l12 19q3 -4 61.5 42t244.5 163q233 114 300 77l4 7q-32 63 -68 83l3 6l32 2l5 -3l1 -9l4 -2l9 3l64 -43l26 -15l43 -42l30 -17q116 -66 134 -100q-6 -13 -97 13l-10 5l-14 4q-56 16 -213 -73l4 8q39 72 10 76q-256 -76 -442 -256q-9 -7 -19 -17q-1 -4 -1 -9 l-2 -40q18 -18 36 -35q184 -127 455 -179q9 5 -37 84l9 6l4 -7q154 -88 208 -67l5 3q50 14 87 36l19 11l8 -14q-19 -11 -51 -45t-41 -46l-21 -15l-16 -5l-29 -27q-132 -75 -205 -111l-4 6q59 34 84 94l-4 7l-6 -3q-142 5 -176 21q-184 62 -389 211l-151 101z" />
<glyph unicode="=" />
<glyph unicode="&#x3e;" horiz-adv-x="1160" d="M75 456l8 14l19 -11q37 -22 87 -36l5 -3q54 -21 208 67l4 7l9 -6q-46 -79 -37 -84q271 52 455 179q18 17 36 35l-2 40q0 5 -1 9q-10 10 -19 17q-186 180 -442 256q-29 -4 10 -76l4 -8q-157 89 -213 73l-14 -4l-10 -5q-91 -26 -97 -13q18 34 134 100l30 17l43 42l26 15 l64 43l9 -3l4 2l1 9l5 3l32 -2l3 -6q-36 -20 -68 -83l4 -7q67 37 300 -77q186 -117 244.5 -163t61.5 -42l12 -19l95 -69l-1 -23l-151 -101q-205 -149 -389 -211q-34 -16 -176 -21l-6 3l-4 -7q25 -60 84 -94l-4 -6q-73 36 -205 111l-29 27l-16 5l-21 15q-9 12 -41 46t-51 45z " />
<glyph unicode="?" horiz-adv-x="981" d="M161 1105q28 196 104 292.5t229 96.5t236.5 -104.5t113.5 -263.5t-40.5 -232t-159.5 -96t-120.5 -106.5t-26.5 -129.5t37 -46q103 0 145.5 -46t43.5 -301l-422 -38l-118 29q12 330 139 356h28q39 0 24 158q8 155 102 222t147 84t60 124.5t-62 186t-160.5 80.5t-146 -65.5 t-153.5 -200.5zM288 476q53 -9 122 -6.5t109 0t80.5 -9.5t57 -38t42.5 -61q-3 69 -37.5 96t-98.5 33l-174 5q-58 -5 -101 -19zM363 6l29 52l48 43l74 -43v-52h-8l-21 -53l-37 -10l-52 10zM538 778q59 45 116 58.5t103 56t59 94t7 110.5t-35.5 134.5t-68.5 133t-111 80.5 q36 -42 63.5 -71.5t51 -75t51.5 -121.5t21.5 -131t-36.5 -99t-73.5 -60t-85.5 -37.5t-62 -71.5z" />
<glyph unicode="@" horiz-adv-x="1733" d="M125 567q29 162 77 300.5t173 229.5t263 157.5t316 66.5q144 0 263.5 -39t163.5 -73v-21l29 -2l10 -19l15 -10l-5 -25l18 -25l31 4q32 -5 80.5 -100.5t48.5 -207.5q0 -111 -42 -203t-116 -158.5t-176 -104.5t-223 -38q-68 0 -97.5 24.5t-29.5 82.5q0 22 3 45.5t13 58.5 q-67 -115 -118.5 -148t-117.5 -33q-69 0 -114 54.5t-45 140.5q28 83 52 149t95.5 138t164.5 125t139.5 64.5t81.5 11.5q43 0 78.5 -15t35.5 -42v-12t-3 -21.5t-28 -106.5q-10 -47 -20 -109.5t-20.5 -121t-16.5 -102.5t-6 -56q0 -41 43 -41q49 0 93 33t78 87t53.5 125.5 t19.5 151.5q0 99 -31 178.5t-88.5 136t-138 87t-179.5 30.5q-127 0 -234.5 -48t-185 -134t-100.5 -144l-74 -18l-4 -54l33 -45q-22 -58 -22 -196q0 -243 170 -387q71 -59 158 -87.5t204 -28.5q43 0 79 -3t69.5 8t68.5 21.5t78 26.5q12 4 18 4q13 0 24 -17.5t11 -35.5 q0 -8 -8 -14.5t-35 -16.5q-82 -35 -165 -46t-183 -11q-175 8 -311 70t-223 110.5t-139 157t-52 241.5zM741 589q0 -86 49 -86q27 0 58 22t62.5 75t53 112.5t21.5 104.5q0 23 -24 23q-41 0 -82 -24.5t-74 -64.5t-48.5 -75.5t-15.5 -86.5z" />
<glyph unicode="A" horiz-adv-x="1428" d="M32 16q-8 16 7 22l6 23q-11 8 -9.5 17.5t15.5 13.5q160 45 178 59.5t41 77t54 111t83 171.5q44 154 99 284t83 222.5t62 144.5q10 16 10 35q0 43 -54 102l61 98q124 6 151 12q8 3 20 3q11 0 13.5 -6.5t12.5 -33.5q92 -157 122 -229t46 -119l14 -56l-35 10l-14 -28l24 -46 l59 -18l31 -92l31 -92l103 -22l-40 -149l-37 -3q34 -110 55 -164q11 -29 11 -60q0 -26 -8 -51l86.5 -86.5t54.5 -30.5t33 -12.5t2 -32.5t-19 -39q-241 1 -332 1h-54q-24 -1 -30 -1q-66 0 -70.5 6t-4.5 32t3 31.5t20 7.5q56 6 76.5 20.5t20.5 44.5q0 10 -3 26t-12 47 t-25.5 83t-50.5 160q-29 -2 -316 -23l-9 30q-29 -22 -67 -34q-26 -83 -42 -134t-25 -81t-11.5 -45t-2.5 -25q0 -67 104 -69l40 -26v-17q0 -26 -2.5 -32t-17.5 -6h-20q-10 0 -24 2l-180 2q-24 -8 -48 -8l-70 1l-18 11l-28 -14l-22 -10l-4 8l-25 -4l-31 -16q-35 -11 -52 -11 q-16 0 -19 7zM597 633l262 26q-35 101 -48 141q3 21 3 37q0 33 -13 47q-19 20 -32.5 56t-19.5 53.5t-11 33.5q-67 -193 -141 -394z" />
<glyph unicode="B" horiz-adv-x="1172" d="M-327 1435h10q114 -61 301 -61q95 0 318 40q207 37 288 36h11q366 0 491 -310l9 -21q8 -21 31 -30q0 -27 -49.5 -115t-111 -116.5t-85.5 -28.5v-20q86 -56 124.5 -107.5t91.5 -182.5l45 -82q-69 -130 -69 -165q-88 -145 -127 -145l-5 -5q-10 0 -10 -16h-30q0 -30 -20 -30 q-99 -21 -265 -21l-301 36q-88 0 -236 -51q0 -10 -30 -10v5l-10 31q0 62 110 86q96 61 96 112v468h20v5l-5 6v5q22 10 25 20v15q-15 0 -15 10q11 0 15 26h-5l-35 -5v173q0 158 -56 158l-20 10q8 51 15 51q111 -36 181 -36l210 15l-10 -61h-10q-95 0 -95 -102v-575 q0 -208 55 -208q50 -31 126 -31q133 0 220 112q20 68 43 118l-23 30q0 132 -135 249q-130 76 -196 76h-10v11q32 112 81 112q64 -31 95 -31q89 0 120 188l17 32q-17 131 -197 208q-102 25 -244 25q-20 0 -41 -1q-169 -4 -437 -91q-43 -15 -61.5 -15t-76.5 9.5t-58 31.5z" />
<glyph unicode="C" horiz-adv-x="1264" d="M25 811l67 89q15 71 62 162.5t129.5 187t178.5 142.5t172 58q52 8 122 8q32 0 69 -2q16 -1 32 -1q105 0 237 28q-4 -65 -4 -115q0 -46 4 -79q8 -68 17 -115t28 -73l-92 -46q-4 65 -28 124.5t-64.5 98.5t-89.5 59q-33 14 -72 14q-19 1 -39 -3q-62 -10 -146 -39.5 t-90.5 -52t-53.5 -22.5l4 -62q-52 -71 -76.5 -134t-32 -128.5t-7.5 -168t17 -188t69 -153t102 -124.5t126 -92q74 -35 170 -46q48 -6 90 -6q44 1 80 6q74 11 117.5 35t115.5 104q0 -89 -32 -125t-115 -62q-84 -26 -176 -36q-65 -7 -126 -7q-26 0 -52 1q-86 4 -169 30.5 t-142 64.5q-40 25 -40 46q0 10 10 20l-91 23q-120 139 -150 208t-43 141.5t-13 158.5z" />
<glyph unicode="D" horiz-adv-x="1285" d="M-339 1412h11q120 -61 317 -61q99 0 287 40t355 51q417 -7 523 -247q30 -65 99 -283q31 -69 69 -116v-5q-37 -56 -127 -343q-146 -303 -353 -378q-112 -30 -237 -30q-37 0 -159 30h-89l-253 -20l-16 5v56q7 11 106 45q68 36 68 121l6 735q0 142 -53 142q0 8 -43 25l5 46 q109 -24 205 -24q45 -1 87 5q61 8 97 8q42 0 50 -10q0 -60 -11 -60q-74 -5 -74 -66l-6 -5q0 -851 32 -851q79 -41 138 -41h26q284 0 294 543q-12 295 -120 451q-118 131 -449 131q-220 0 -373 -53q-129 -45 -194 -45q-12 0 -22 2q-122 19 -122 40z" />
<glyph unicode="E" horiz-adv-x="1226" d="M25 1326l35 81l645 -6h24l41 -25l29 6h12q105 19 282 25q-5 -67 -5 -117q0 -59 8 -92q14 -60 38 -160l-65 -61q-82 142 -138 192.5t-111 94.5t-198 61l-78 -17h-31l-31 -31v-31l-24 -61l24 -124v-247l258 -5h77q41 31 55.5 55.5t32.5 67.5h76l6 -417l-82 7q-6 72 -43 129 t-133 57l-138 -2l-109 -3v-388q17 -106 40.5 -115.5t76 -9.5t166.5 14v-26l-19 -19l48 -13l11 38q135 0 278 -19t187 -21h7q43 0 106 26q20 8 33 8q31 0 32 -42v-6q-4 -68 -33 -68t-129 -12q-50 -6 -90 -6t-71 6q-61 12 -184.5 11.5t-344.5 6.5q-141 4 -217 4q-43 0 -67 -1 q-64 -4 -122.5 -7t-147.5 -3l6 61q83 13 109 34.5t44 62t23 190.5l-5 424l23 13v19l17 12l18 5l12 -5h12h17l6 12v26h-23q-24 -7 -71 -7l-11 155q-13 126 -27.5 166.5t-50 65t-116.5 31.5z" />
<glyph unicode="F" horiz-adv-x="1294" d="M25 13q0 22 3.5 28.5t17.5 10.5q52 37 76 47t62 64t47 151l2 83l13 30l-11 134l10 426l8 32l18 3l-12 37l-22 19q-6 141 -16.5 176.5t-32.5 45.5t-59 12q-33 2 -38.5 5t-0.5 25t8 28.5t14 27.5h15q27 0 97 -2q70 -1 140 -17q32 -7 99 -8q81 0 209 11q238 19 333 19l37 -6 l40 -18l19 24l127 -1q-13 -107 -13 -160q0 -28 3 -40q10 -40 51 -203l-92 -45q-48 79 -93.5 139t-84.5 111.5t-107 77.5h-247.5h-98.5q-24 -1 -35.5 -4t-16 -10.5t-6.5 -20.5q-3 -11 -4 -85v-66q0 -82 1 -231v-100v-27h31q26 0 37 1t42 4t57 6t42 8q50 12 65 55q4 14 5 23.5 t5 54.5q3 16 8.5 23t23.5 7q25 0 32.5 -3t7.5 -21q0 -6 -1 -47l-2 -145l-17 -17l4 -22l4 -15l11 -14l-8 -72l11 -49v-39q0 -18 -5 -22t-28 -4q-31 0 -36 4t-7 28q-4 53 -11.5 83.5t-38.5 44.5t-96 18t-138 4v-111l2 -74l-10 -43l-1 -28l-8 -17l9 -22v-26l15 -26 q3 -49 9 -78.5t21 -44t43.5 -19t74.5 -4.5q23 0 27.5 -5t4.5 -31q0 -34 -3 -41.5t-13 -7.5h-22l-62 2q-121 7 -200 7q-110 1 -140 -13q-50 -22 -95.5 -38t-75.5 -42h-11q-16 0 -19.5 6t-3.5 39z" />
<glyph unicode="G" horiz-adv-x="1252" d="M25 704l66 120q8 103 50 192q-1 19 13 46q47 92 129.5 187.5t178.5 142.5t192 58q65 8 141 8q34 0 70 -2q16 -1 32 -1q105 0 237 28q-4 -65 -4 -115q0 -46 4 -79q7 -68 16.5 -115t28.5 -73l-92 -46q-4 65 -28 124.5t-64.5 98.5t-89.5 59q-33 14 -72 14q-19 0 -39 -3 q-62 -10 -151 -29.5t-110.5 -52t-68.5 -32.5l4 -62q-52 -71 -77 -134q-5 -14 -15 -25q-5 -52 -13 -96q-12 -67 -12 -132q0 -35 3 -69q10 -99 26.5 -183t64 -162t133.5 -140t178 -79q59 -11 96 -11q20 0 34 3q37 10 44 51q4 7 7 18.5t8 139.5l40 64l-11 68l12 24l-34 16 l-6 16q-11 85 -23 101q-4 6 -20 13q-136 27 -136 39v43q8 19 30 19l150 -9q51 -9 107 -9q75 0 158 16l15 -117l-34 -47q-4 -96 -4 -182q0 -80 -17.5 -183.5t-136 -144.5t-267.5 -41q-133 0 -200.5 26.5t-156.5 78.5l-51 57q-51 12 -111 83t-94 138.5t-46.5 138t-83.5 143.5z " />
<glyph unicode="H" horiz-adv-x="1566" d="M25 66q0 13 32 32.5t46 24t31 7.5q52 20 77 51t34 92q4 42 7.5 219t3.5 463q0 121 -3.5 189.5t-13.5 102.5t-32.5 44t-63.5 30q-35 3 -40 6t-5 19v19q0 28 4.5 35t29.5 7l267 -23q58 0 109 1t115 3h22q21 0 21 -26v-11v-19q0 -19 -7 -23.5t-35 -7.5q-86 -7 -104 -101 q-49 -39 -50 -58q0 -4 3 -7q13 -17 17.5 -63t18.5 -86v-210l554 41q0 234 -1.5 315t-13 117.5t-34.5 44t-63 7.5q-31 0 -36.5 3.5t-7.5 12.5v32q0 20 2 24q3 11 7 13.5t25 1.5l244 -4q68 0 133 1t121 3h19q24 0 24 -26v-11v-19q0 -17 -6 -22.5t-30 -8.5q-60 -9 -84.5 -29.5 t-32.5 -71.5q-26 -49 -26 -66q-1 -6 3 -7q12 -6 10 -54.5t-27 -122.5q5 -11 5 -22q0 -21 -17 -44q32 -47 43 -108q-5 -207 -5 -279v-21q1 -58 2.5 -103.5t3.5 -86.5q1 -44 7.5 -72t20 -44t37 -22t60.5 -6q34 0 39.5 -4t5.5 -32q0 -33 -2.5 -39t-14.5 -6h-22q-18 -1 -106 9 q-32 3 -88 4q-101 0 -280 -11l-56 -2h-10q-18 0 -21 6t-3 42q0 23 6.5 28t46.5 10q32 5 54 16t34 31.5t19.5 55t23.5 35.5q-8 43 -8 71q0 20 4.5 31t4.5 26q0 19 -8 44q40 15 33.5 34.5t-37.5 42.5v146l-552 -42q4 -309 7.5 -366t16.5 -85.5t37 -35.5t68 -9q33 0 39.5 -4 t6.5 -32q0 -31 -3 -38t-17 -7l-197 5l-10 9l-43 6l-23 -2l-11 8l-18 -12l-4 -11h-33l-61 6q-88 -7 -204 -49h-11q-17 0 -20.5 6.5t-3.5 38.5z" />
<glyph unicode="I" horiz-adv-x="587" d="M25 1320l12 87l282 -8l62 -42l37 29l132 6l-13 -56q-69 -16 -88 -52t-31 -167v-197l-18 -42h-26l-50 -66l26 -37v-34l42 -22h21v-45l17 -427q8 -94 63 -130l69 -13v-59q-124 7 -249 7t-251 -7l-6 72q62 8 81.5 33.5t25.5 112.5l-6 918q-26 79 -44.5 109t-87.5 30z" />
<glyph unicode="J" horiz-adv-x="869" d="M37 48q13 38 47 31q34 -8 92 -22q57 -14 108 -14l34 43l42 21q42 21 66 175q19 123 19 202q0 20 -1 37l16 145l-8 190l18 167l-18 28l-2 111q-1 72 -3.5 92.5t-6.5 29.5q-8 26 -33 34t-86 12q-23 0 -30 0.5t-11 3.5q-3 2 -3 9v28q0 21 4.5 25.5t28.5 4.5l65 -1l18 -31 l32 27l146 1q54 -15 102 -15q15 0 29 1q61 6 93 8h30q19 0 19 -24v-32q0 -15 -6 -19.5t-31 -7.5q-49 -5 -72.5 -25.5t-31.5 -65.5q-4 -40 -5.5 -111t-1.5 -216v-72l-19 4l2 -29l-12 -13l-14 -26l-4 -50l14 17l19 4l16 -16l-4 -141l-2 -45q-1 -43 -11 -67l-19 -23l19 -39 q-4 -29 -13 -68.5t-29 -76.5q-31 -56 -68.5 -110t-86 -99t-105 -67t-96.5 -27l-41 -6l-42 3q-42 2 -88 28q-18 -7 -32 -7q-22 0 -35 18t-13 39q0 13 5 27z" />
<glyph unicode="K" horiz-adv-x="1389" d="M25 39q0 22 4 27t18 9q36 4 59.5 14.5t46.5 71t28 94t5 86.5v46v26l7 139l12 29l-19 33l2 290l15 19l14 23l14 4l-3 35l-20 19l-18 4v100q-5 116 -16 146t-31.5 40.5t-56.5 14.5q-31 7 -32 9q-4 4 -4 39q0 25 5.5 31.5t28.5 6.5h26q16 -3 73 -3t158 -17q36 -15 68 -30 q27 4 15 33q11 -1 22 -1q29 1 46 7q24 8 55 11h22q22 0 22 -28q0 -41 -5.5 -49.5t-36.5 -12.5q-52 -4 -72.5 -25t-25.5 -73q-6 -37 -8.5 -139.5t-2.5 -234.5q17 -39 46 -39q14 0 32 10q52 30 77 57q34 35 71.5 75.5t108.5 107.5l53 21l-14 37q47 56 63 81t16 46q0 37 -29 35 q-26 0 -32 7.5t-6 31.5q0 32 4.5 40.5t18.5 8.5h9q50 -5 71.5 -6t62.5 -23q188 11 234 29h19q15 0 19.5 -8.5t4.5 -33.5q0 -30 -5.5 -34.5t-39.5 -15.5q-26 -8 -44 -15t-40 -22t-52 -40t-77.5 -68.5t-97 -87.5t-130.5 -169q122 -224 236 -430l57 -103l29 -51l-12 -37l25 -37 l17 -35l68 -19l70 -75q139 -151 226 -173q53 -14 103 -14q32 0 64 6q80 14 191 64q28 -7 28 -47q0 -31 -18 -83q-82 -23 -123.5 -34.5t-172.5 -13.5h-16q-119 0 -179 28q-64 30 -155.5 94.5t-215 205.5t-169.5 210t-89 135t-71 107.5t-45 96.5q-49 51 -54 60l-135 -69 q0 -72 -3 -183v-8q0 -50 -36 -129q41 -56 45 -88.5t14.5 -50t32 -24.5t54.5 -9q34 -2 40 -7t6 -31q0 -29 -3 -36t-16 -7h-28q-196 0 -488 -77h-11q-16 0 -20 5.5t-4 39.5z" />
<glyph unicode="L" horiz-adv-x="1156" d="M25 67q0 20 10.5 30t43.5 12.5t56 11.5t44 33t27 66v82q0 88 1 201l9 213l11 79l26 14l-12 28l2 24l-22 24l-10 149q-4 176 -12.5 217.5t-27.5 48.5t-55 12q-31 2 -38 5t-7 17v23q0 29 5 36t29 7h19h16l19 -3l40 -2h45h45l53 -9l81 -2l13 -9l19 -2l29 3l10 -3l8 12l69 15 h21q21 0 21 -27q0 -43 -6.5 -51t-34.5 -10q-51 -7 -76 -25t-34 -68q-4 -25 -9 -219v-184q0 -218 1 -346.5t3 -175.5q1 -42 4.5 -65.5t15.5 -37t34 -16.5t58 -3q95 0 227 9.5t160 27.5q30 17 55.5 163.5t40.5 230.5q8 37 23 37q56 -31 56 -70q0 -17 -4 -54t-9.5 -156 t-13.5 -164t-15 -84q-5 -25 -8.5 -40t-7 -21.5t-9.5 -7.5t-17 -1h-10t-21 26l-37 -11l-38 17l-16 -28l-330 2h-152q-37 4 -72 4q-46 0 -87 -7q-72 -12 -114 -31.5t-101 -33.5l-21 -2q-16 0 -19.5 7t-3.5 82z" />
<glyph unicode="M" horiz-adv-x="1836" d="M25 1455q65 131 131 150q21 6 47 6q53 0 125 -26q107 -40 210 -172t189 -342l21 -76l-48 -41l56 -57l57 -35l-2 -53l44 -52l-1 -53l44 -52q86 -210 102 -247q69 153 202 453l68 151q54 122 84 203q30 80 48 153q5 16 8.5 21t15.5 5h12l83 -1l3 -15l-10 -5l25 -5l20 5 l3 13l29 6h47q95 2 123 5h21q12 0 15.5 -6.5t3.5 -26.5q0 -25 -1 -35.5t-3 -13.5q-3 -4 -13 -7t-40 -7q-37 -6 -57 -14.5t-29.5 -34t-12.5 -73t-26 -96.5q12 -28 11.5 -55t-11.5 -54l23 -63l2 -154l-7 -275l-7 -63l8 -39l-21 -72q33 -57 38 -92.5t19 -54.5t37.5 -26.5 t62.5 -9.5q28 0 32.5 -3.5t4.5 -34.5q0 -30 -3 -37t-13 -7h-34q-21 0 -50.5 1t-68.5 11t-76 10q-14 -8 -28 -8q-18 0 -36 13q-18 -23 -51 0q-18 2 -32 2q-37 1 -53 -11q-22 -16 -57.5 -17t-55.5 -1h-13q-16 0 -19 5t-3 41q0 24 4.5 30t17.5 8q57 4 89 12.5t46 39t22 150.5 v107v74v205l8 34l24 17l-15 41l-18 18v39l3 163l3 53l-15 -49l-24 -81l-50 -119l-84 -189l-74 -159q-59 -128 -100 -226t-54 -118q-8 -12 -37 -12q-18 0 -48 6q-72 14 -84.5 38t-44.5 105t-83 208.5t-134 327.5l-22 103l-32 33l-6 71l-25 48l-16 45l3 -47l-9 -32l9 -27 l-9 -50l-1 -21l1 -18l9 -12l-18 -36l16 -26l1 -78l-7 -89l-13 -125q18 -150 21 -234t20 -125.5t50 -52t90 -10.5q31 -2 31 -29q0 -38 -4 -47.5t-18 -9.5h-23q-19 0 -45.5 1t-55 2t-36.5 42q-75 -11 -76 -24q-10 -17 -45 25q-35 -42 -69 -43t-63.5 -2t-44.5 -1q-8 -3 -17 -3 h-12q-11 0 -13.5 7.5t-2.5 41.5q0 24 4 29t19 7q72 9 100.5 27.5t41.5 62.5q9 24 15.5 57.5t33.5 163.5l-8 222l5 184l5 168l2 38q2 68 2 92l2 88q0 33 -24 87q-24 58 -122 118q-63 38 -122 37q-34 0 -67 -12z" />
<glyph unicode="N" horiz-adv-x="1429" d="M-179 1481q69 87 143 109q26 8 59 7q58 0 136 -25q121 -39 249 -163t249.5 -322t343.5 -615l14 649q-14 127 -41 149t-115 50v71l72 -10l92 -16q86 26 335 26l-8 -50q-73 -14 -106.5 -39t-60.5 -144l-6 -1052q68 -161 118 -228.5t97 -73.5l16 -2q36 0 64 26q25 23 45 24 q7 0 13 -3q24 -11 14 -49q-11 -40 -48 -68q-29 -22 -91 -22q-17 0 -37 2q-91 8 -168 53t-198 175q-105 112 -105 175q0 10 3 18l40 36l-12 50l-42 -8l-12 -21l-15 -14h-33v21q-196 360 -471 854l18 -776q14 -119 31 -133.5t111 -21.5l-5 -70h-446l6 49q62 28 85.5 42.5 t36.5 141.5l15 482l-19 259l-1 247q-42 98 -103 133q-62 35 -112 60q-38 19 -105 19q-22 0 -46 -2z" />
<glyph unicode="O" horiz-adv-x="1344" d="M25 812q61 113 92 219q73 170 172 276q129 144 329 144q107 0 310 -21v-9q-130 -82 -274 -82q-164 -28 -164 -47q-56 -23 -102 -124q-89 -149 -89 -404v-18q0 -264 98 -387q102 -168 207 -195q34 -15 68 -21q8 -1 17 -1q29 0 71 14q54 19 139 76q13 36 50 36h1v36l-3 15 q95 133 95 338l3 52q0 230 -92 356q-97 149 -216 170l-170 38q-46 -7 -46 20t170 27q194 0 323 -96l3 -17v-6l-6 -10q92 -18 92 -45q94 -116 118 -191q22 -77 44 -197l54 -110q-64 -81 -70 -129q-32 -122 -155 -280q-144 -175 -390 -193q-116 0 -267 56q-110 60 -110 95v3 l6 20q-88 16 -88 43q-133 175 -144 310l-19 142z" />
<glyph unicode="P" horiz-adv-x="1270" d="M-298 1437h6q50 -44 331 -68l473 53h164q245 0 418 -167q73 -91 103 -162q55 -25 55 -36l-55 -94q0 -179 -190 -322q-184 -89 -299 -89h-39l-174 11l-5 -167v-6l-16 -20l11 -37q-33 -6 -33 -16l6 -25h5l22 15h10q17 -198 104 -198l27 5h33l10 -56l-53 -5h-196 q-100 0 -300 -53q-32 44 -32 58h6q157 54 157 130l5 68v801q-69 65 -119 78v26q11 21 33 21l136 -11h32l293 11l7 -36q-92 0 -136 -125q-17 -34 -17 -73v-125q-16 -19 -16 -37q21 -7 21 -36v-5q-21 -23 -21 -42q21 0 21 -47l5 -5h7l167 -5q152 0 246 172q21 105 21 171 q-26 156 -76 179l-6 10l39 2l24 19l-6 -4l-14 34l-31 14l-10 -23l-28 2l-6 -13h-5q-115 109 -267 109q0 7 -81 10q-175 0 -533 -99h-33q-129 15 -129 47z" />
<glyph unicode="Q" horiz-adv-x="1344" d="M39 812q54 101 105 251q177 378 490 378q35 3 83 3q92 0 233 -12v-6q-20 -30 -143 -75q-284 -31 -284 -61q-41 -13 -146 -192q-54 -145 -54 -351q0 -270 105 -410q81 -149 230 -198l51 -12q73 0 211 83q16 33 44 33h7v56q97 137 97 440q0 208 -125 367q-57 94 -198 133 q-185 34 -185 44v12q0 25 132 25h12q217 0 335 -102v-12l-4 -14q93 -22 93 -52q113 -134 128 -223q32 -185 66 -224l23 -50q-59 -59 -85 -170q-46 -126 -182 -282l-16 -15v-2q6 0 58 -83q112 -151 184 -179l60 -18l194 39q32 -7 32 -15v-14q-80 -112 -253 -112 q-230 0 -432 249l-33 33h1q-61 -31 -150 -31h-15q-130 0 -279 66q-87 53 -87 82l7 25q-77 0 -104 64q-132 175 -132 313q-20 144 -34 144z" />
<glyph unicode="R" horiz-adv-x="1610" d="M25 1425h9q108 -62 284 -62q90 -1 276 39q158 34 261 34q18 0 35 -1q171 -25 270 -98q42 -40 42 -68l34 5l222 -266v-5q-23 -40 -38 -183q-40 -132 -166 -224l-14 -20q16 0 71 -80v-10l-5 -36l57 -42l14 21h5q123 -119 189 -250q58 -146 218 -321q91 -57 127 -57l185 35 h9l24 -5v-20q-82 -110 -232 -110h-18q-181 0 -327 152q-202 209 -265 326l-212 317l-105 -5h-118l-28 5l-14 -5v-192q0 -10 -33 -16v-21q0 -15 28 -15q0 -111 71 -151l61 -5v-52l-194 15q-81 0 -288 -77v6l-9 61q106 0 127 161v511l5 229q0 94 -90 94h-9q-12 16 -6 47t20 31 q173 -12 288 -12q81 0 133 6v-67h-48q-66 -53 -66 -192v-63l-4 -183l14 -5q272 0 299 81q79 51 79 216q0 235 -128 320q-106 73 -271 79q-239 -6 -556 -75l-38 -5q-109 19 -109 40z" />
<glyph unicode="S" horiz-adv-x="1114" d="M51 363q26 72 87 125q62 52 120 68q41 11 73 11q14 0 27 -2q11 -86 31 -160q-53 10 -92 10q-28 0 -49 -5q-49 -13 -67 -75q-5 -18 -5 -36q0 -44 32 -89q45 -63 97 -90t131 -37q27 -3 54 -3q51 0 101 12q76 19 140 78.5t82 127.5l33 35l-12 50q-15 6 -30 61 q-27 78 -255 202q-239 100 -317.5 165t-110.5 133.5t-57 121.5l46 57q20 52 62 117.5t105 109.5t118.5 56t145.5 12t154 -6q15 -1 31 -2q49 0 101 15l67 18q17 -167 94 -368l-88 -5q-30 80 -114.5 136t-165.5 81q-50 15 -98 15q-30 0 -59 -6q-77 -16 -115 -74 q-20 -31 -20 -60q0 -27 17 -54q31 -49 31 -73q0 -3 -1 -6l-5 -24l14 -8l-1 -12l9 -8l-2 -10l15 -14l-1 6l5 1l8 3l5 -10l4 6l9 -3l-3 6l6 9h5l6 7l4 2l6 4l18 9l48 -30q48 -30 179.5 -86t213 -153t171.5 -273l-46 -93q-46 -112 -118 -186t-183 -123t-213 -56q-32 -2 -61 -2 q-65 1 -120 11q-79 16 -172 84t-122 136q-15 36 -15 74q0 33 12 67z" />
<glyph unicode="T" horiz-adv-x="1107" d="M25 972l61 417q19 12 38 12q20 0 40 -13l37 -1l117 -2q18 -18 111 -18q117 0 351 28l114 2l58 1l58 1q11 -197 72 -406l-68 -51q-44 116 -105 188t-108 94q-35 16 -83 16q-15 0 -32 -2l-1 -443l-1 -134l-14 -101l-37 -43l10 -89l40 -76q15 -151 87 -215l68 -23v-72h-35 q-124 0 -221 12q-52 7 -88 7q-38 0 -58 -8q-36 -16 -182 -18l9 65q68 37 146 101l-5 901l22 49l-17 94q-20 1 -38 1q-119 0 -155 -40q-42 -46 -80 -94l-37 -22q-2 -61 -2 -126z" />
<glyph unicode="U" horiz-adv-x="1305" d="M25 1365q0 24 4 33t17 9q121 -7 157 -19q24 -8 87 -8q33 0 77 2q128 6 205 22q36 2 36 -32q0 -40 -7 -46t-45 -9q-84 -28 -107 -59t-24 -120l-4 -116l-2 -238l-17 -88l17 -74q-13 -105 -15 -151v-6q0 -42 21 -68q22 -28 35 -54q28 -88 92.5 -109t154.5 -21 q97 0 171.5 41.5t103.5 114.5q21 47 28.5 106t7.5 171l-5 505q-8 64 -31 88t-95 72q-29 3 -56 11q-1 1 -1 2q0 12 21 72h13q13 -2 128 -33l76 3q63 -10 123 -21q48 24 75 27q14 0 12 -42t-32 -47q-91 -14 -95 -348l-53 -96l39 -67l8 -136q-7 -113 -10.5 -150.5t-11.5 -74.5 q-34 -181 -158 -276t-323 -95q-165 0 -266 85q-125 50 -162 173q-8 23 -12.5 43t-8 45.5t-5.5 64t-3 164.5l-2 187l6 188l47 24l11 78l-65 77q-3 46 -7 59t-10 26q-9 22 -39.5 42.5t-81.5 25.5q-13 2 -19 43z" />
<glyph unicode="V" horiz-adv-x="1607" d="M25 1507q72 97 140 110q13 3 28 3q59 0 143 -44q104 -54 204 -194.5t343 -833.5l59 -181q9 3 193 476l53 83l41 95l13 89q35 89 35 104v16v15v15q0 63 -142 63h-18q-11 4 -11 24v46q0 23 22 23q107 -12 204 -12q30 0 60 1l4 -4l-3 -13l60 -26l16 22l31 21h70 q12 -4 12 -23v-24q0 -39 -38 -39q-46 -14 -96 -95l-158 -333q-158 -334 -228 -500q-54 -130 -54 -187q0 -16 4 -27q20 -48 97 -50q26 0 26 -35q0 -51 -18 -51l-149 7l-112 18l-24 -6h-27l-12 -15l-42 41q-22 -8 -19 -35l-69 -6l-4 -4h-4v4l-4 -4h-48q-26 0 -26 47v12 q0 27 44 27q85 0 102 60q0 49 -128 392l20 68l-31 33l-6 57l-38 -6q-131 348 -197 493q-42 128 -95 171t-93 73t-130 39z" />
<glyph unicode="W" horiz-adv-x="2239" d="M25 1552q78 92 147 104q11 2 23 1q63 1 150 -49q104 -60 200.5 -204t161.5 -344l65 -200l-25 -108l21 -58l42 22l91 -257h8q184 427 217 536l33 108v2v1l-30 102q-30 102 -109 102q-16 4 -16 24v20q0 41 16 41l369 -10l42 -15l16 -10l17 13l15 22h16q26 0 26 -23v-38 q0 -24 -36 -24q-87 -7 -87 -53v-12v-25q0 -24 67 -237l55 -156l11 -82l111 -282l9 -4l144 356q143 355 143 397v42q-7 36 -36 42.5t-45 13.5q-9 0 -13 44l4 34l22 4h42l42 -7l32 -5l23 10l73 -4q40 6 82 6h42l8 -8v-62q0 -8 -33 -14q-63 -36 -75 -128l-92 -209l-92 -208 l-59 -126l-60 -125l-73 -250l3 -4q58 -132 109 -132q10 -3 10 -23v-24q0 -28 -14 -34l-291 14l-72 15l-73 -29v4l-4 -4h-38q-28 0 -28 39l5 4l-5 4l5 4h-5q0 33 36 33q91 8 91 55v12q0 57 -211 638v6q0 5 -4 5h-5l-119 -255q-118 -254 -140 -324q47 -124 115 -124 q13 -15 13 -27v-23q0 -29 -17 -35l-150 12l-139 -19l-90 10l-56 2l-3 -5h-37q-30 0 -30 39l5 3l-5 4l5 4h-5q0 35 38 35q89 7 89 54v12q0 58 -172 562l-85 377q-53 68 -81 155q-72 86 -123.5 129t-92 78t-134.5 43z" />
<glyph unicode="X" horiz-adv-x="1639" d="M25 1413q68 129 130 149q27 9 64 8q47 0 111 -14q114 -25 241 -134t240 -255t166 -274q11 15 20 26t24.5 31.5t43.5 57.5t79 104q53 69 73.5 102.5t20.5 51.5q0 20 -21.5 27.5t-78.5 9.5q-17 0 -21.5 11t-4.5 41q0 22 4.5 28.5t21.5 6.5h22h62l10 -34l27 6l34 -20l17 46 q32 -6 64 -6q19 0 39 2q52 6 97 10h18q18 0 21 -7.5t3 -43.5q0 -20 -6 -26.5t-36 -20.5q-17 -2 -49.5 -28.5t-88 -84.5t-136 -152.5l-195.5 -229.5q152 -267 276 -524l95 -111q73 -122 124 -182.5t52 -61.5q0 -1 40 -2h3q37 0 65 33q28 34 49 24.5t17 -47.5t-32 -72 q-28 -33 -110 -37h-17q-73 0 -138 32q-73 36 -152 106.5t-225 298.5l-89 188q-57 40 -122 166q-127 -151 -185 -229t-84 -117.5t-31.5 -54.5t-5.5 -31q0 -31 23.5 -39t99.5 -12q16 0 19 -5.5t3 -26.5q0 -36 -3 -44.5t-19 -8.5h-35q-9 0 -37.5 1t-43 5t-82.5 24 q-29 -29 -49 -26q-8 19 -16 6q-6 -6 -19 -6q-14 19 -35 18t-58 -20h-30q-47 0 -49 4q-5 2 -5 38q0 30 5.5 36.5t39.5 16.5q12 5 28 12t38.5 27t56.5 57.5t87 99t126.5 150.5t210.5 239q-102 214 -291 414l3 69v44l-25 17l-26 27l-19 -2q-49 6 -123 66t-124 64q-10 1 -24 1 q-55 0 -173 -13z" />
<glyph unicode="Y" horiz-adv-x="1669" d="M25 1460q9 86 121 134l47 8q254 0 477 -234q52 -47 180.5 -290.5t179.5 -310.5q299 451 299 504q0 36 -127 46l-5 5v61q0 8 21 15l162 -5l254 -5l10 -15v-51q-2 -10 -96 -46q-169 -188 -447 -610l-10 -41v-71q0 -397 45 -397q0 -22 143 -31l5 -5v-15q0 -56 -16 -56 q-316 0 -446 -51l-178 -56q-30 6 -30 16v50q0 17 81 31q91 50 91 132q21 0 26 387v25q0 46 -108 223l1 152l-72 30l-15 59l-94 60q-118 227 -235 285q-106 73 -197 73q-8 0 -16 -1h-15z" />
<glyph unicode="Z" horiz-adv-x="1142" d="M25 70q0 32 2 39.5t11 16.5q54 109 127 220.5t245 374.5l206 291q130 250 139 265q-129 -3 -176.5 -3t-89 -2t-96.5 -20t-137 -74t-109 -133l1 -1l-83 6q60 131 72 199t23 187q133 -34 192 -38.5t121 -43.5q153 37 225 37q98 -17 168 -28q14 -2 32 -2q65 0 167 34 q25 0 31 -6t6 -30v-20q0 -12 -5.5 -20.5t-27.5 -41.5l-51 -72l-300 -455l-89 -45l-58 -69l11 -97q-167 -287 -205 -354q143 2 241.5 5t165.5 11.5t107 24t64 44.5t39 71t31 104q5 25 12.5 31t25.5 6q32 0 43 -4t11 -20q0 -15 -4.5 -45.5t-11 -71t-13.5 -83t-14 -73.5 q-5 -41 -5 -72q0 -27 4 -47q8 -42 3 -53.5t-11.5 -13.5t-17.5 -2l-68 41l-269 31l-99 22l-65 -54q-159 10 -282 10q-116 0 -199 -9h-11q-22 0 -25.5 4t-3.5 28z" />
<glyph unicode="[" horiz-adv-x="1064" d="M40 -297v2085l98 2q44 -71 102 -117q58 -47 122.5 -61t116.5 10q51 24 90 62h1v-7q18 15 40 27q60 31 126 31q67 0 128 -33t99.5 -90t60.5 -119q-22 -61 -60.5 -118.5t-99.5 -89.5t-128 -32q-66 0 -126 31q-26 14 -46 31h-1q-22 9 -44 14q-63 14 -111 -13t-68 -82 t-8 -129q8 -57 35 -111v-498q-27 -54 -35 -111q-12 -74 8 -129t68 -82t111 -13q22 5 44 14h1q20 17 46 31q60 31 126 31q67 0 128 -32t99.5 -89.5t60.5 -118.5q-22 -61 -60.5 -118.5t-99.5 -90.5t-128 -33q-66 0 -126 32q-22 12 -40 27v-7h-1q-39 37 -90 61 q-52 25 -116.5 10.5t-122.5 -60.5q-58 -47 -102 -118z" />
<glyph unicode="\" horiz-adv-x="880" d="M120 1474h116l524 -1621h-114z" />
<glyph unicode="]" horiz-adv-x="1064" d="M40 -3q22 61 60.5 118.5t99.5 89.5t128 32q66 0 126 -31q26 -14 46 -31h1q22 -9 44 -14q63 -14 111 13t68 82t8 129q-8 57 -35 111v498q27 54 35 111q12 74 -8 129t-68 82t-111 13q-22 -5 -44 -14h-1q-20 -17 -46 -31q-60 -31 -126 -31q-67 0 -128 32t-99.5 89.5 t-60.5 118.5q22 62 60.5 119t99.5 90t128 33q66 0 126 -31q22 -12 40 -27v7h1q39 -38 90 -62q52 -24 116.5 -10t122.5 61q58 46 102 117l98 -2v-2085l-98 -3q-44 71 -102 118q-58 46 -122.5 60.5t-116.5 -10.5q-51 -24 -90 -61h-1v7q-18 -15 -40 -27q-60 -32 -126 -32 q-67 0 -128 33t-99.5 90.5t-60.5 118.5z" />
<glyph unicode="^" horiz-adv-x="682" d="M0 1144l262 241h19l259 -241l-45 -6l-219 136l-208 -136z" />
<glyph unicode="_" horiz-adv-x="2166" d="M40 -2v86h2086v-86h-2086z" />
<glyph unicode="`" horiz-adv-x="390" d="M95 1503v45l64 37l43 -37l25 -45l52 -140l-34 -38l-125 131l-17 47h-8z" />
<glyph unicode="a" horiz-adv-x="793" d="M-155 102l24 28l22 2l21 2l22 2q21 2 41 23l20 21l20 20q20 21 37 62l16 41l17 40q16 41 20 96l5 55l13 48l-5 61l-1 9l-20 14l-10 12q-11 11 -9 23l2 11l2 12q2 11 17 10l15 -1l15 -1l15 -1l10 17l10 12l9 23q22 14 32 42l21 25l22 24q21 25 43 29l23 28l22 16 q22 16 43 16h20h21l29 -9l70 9l71 -9l88 9h79v-19v-20h-27h-28l-16 -13q-16 -14 -20 -47l-4 -34l-9 -4l-12 13l-6 -22l-9 -5l6 -18l4 -29l9 -6q6 -18 0 -25l-6 -6l-7 -7l-6 -7l9 -8l6 -18l12 1l9 -9v-45v-45l-6 -48l6 -42l-6 -58l6 -52l13 -30q12 -30 39 -50l26 -21h14h14 l-5 -18l-5 -18l-162 -2l-82 -1l-81 -1l12 9l-12 10v9v9l10 1l9 1l10 1q12 -8 27 -5v18l9 6q9 6 11 16l2 11l2 10l2 10l-1 50l-1 51l-1 50l-1 50l-61 15l-62 15l-61 15l-62 15l-2 -21l-14 -16l-5 -30l2 -22l1 -29l-13 -33l-2 -32l-8 -33l-24 -30l-20 -27l-27 -34 q-24 -30 -48 -53l-23 -22l-24 -23q-24 -23 -48 -34l-23 -12l-24 -11q-24 -12 -71 -12h-47zM294 699l6 -9l6 -10l6 -10l21 -5l12 -20l21 -2q30 7 56 -1l26 -8l25 -9l26 -8v58l9 58l-9 57v58l-22 2l-21 3l-22 2q-22 2 -42 -15l-29 -9l-11 -25q-20 -17 -31 -37l-11 -20l-11 -20 q-11 -20 -5 -30z" />
<glyph unicode="b" horiz-adv-x="663" d="M25 876l15 21l14 20l93 -1l44 -9l50 8l93 -1h46l44 -16l23 15h10h11q40 0 75 -43q34 -43 50 -84q14 -37 14 -68v-7q-2 -34 -21 -56t-42 -29l-23 -8l-1 -12l-2 -12l26 -16q26 -16 53 -57q27 -42 34 -96q1 -11 1 -22q0 -39 -20 -62q-9 -53 -34 -77q-26 -25 -65 -43 q-35 -17 -89 -17h-11l-62 2l-65 7q-46 5 -100 5q-23 0 -47 -1l-82 -4l-7 13l-7 13l20 8q19 7 26 17q7 9 11 90l3 80l-2 49l-2 48l11 4l11 3l4 18l3 17l-7 2l-8 2l-10 6l-11 5l6 13l5 13l-2 103l-2 103l-7 19q-7 18 -17 26l-11 7l-19 2zM236 547l7 -109l-2 -121l13 -10 l13 -10l13 -11q13 -10 46 -16l33 6l30 -1q30 -2 56 22t38 49q11 25 25 50l2 30l-16 30q-4 30 -35 58q-32 28 -55 55q-48 15 -71 17l-24 2l2 19q2 18 16 31l13 13l28 -7q28 -8 48 -2q19 5 41 32q21 26 19 47l-2 20l9 32q-16 20 -49 41q-34 21 -61 31q-21 -3 -47 1t-51 -20 l-26 -25l-2 -121z" />
<glyph unicode="c" horiz-adv-x="720" d="M25 535l18 36q0 36 20 105q19 69 69 125t117 90q62 31 91 31h5l51 -6l21 -8q21 7 39 10q21 3 27 -13q18 -3 29 8q13 -3 17 -3h4h4q2 0 12 2t21 5q9 3 17 6q9 2 11 2h1h3q4 0 10 -4q5 -5 5 -11v-6v-2q0 -3 -1 -8q-2 -6 -16 -27q15 -15 9 -29l-7 -14l5 -10l4 -11l6 -34 q5 -34 7 -41q1 -8 1 -13v-5l-7 -9q-6 -8 -22 -13l-16 -5h-5q-8 0 -12 11q-3 8 -9 27q-6 18 -14 39q-8 20 -26 36q-20 17 -52 29t-61 21l-52 3l-32 -12q-42 0 -88 -57q-48 -60 -48 -128v-69l-9 -48q9 -43 26 -99q17 -58 46 -98q30 -41 69 -58q22 -10 43 -10q13 0 25 4l33 10 h26q22 0 60 17q36 16 64 37q27 20 73 52l58 39l-23 -48q-19 -38 -62 -77q-43 -41 -83 -66q-42 -27 -75 -31q-30 -4 -55 -19q-29 -18 -47 -18h-16h-31q-34 0 -90 26q-57 24 -78 49l-21 23l4 22l4 21l-7 22l-7 19l-21 -2l-31 -4l-16 52q-9 32 -9 61q0 17 3 33z" />
<glyph unicode="d" horiz-adv-x="704" d="M25 886q0 3 4.5 8.5t9.5 11t11 9.5t10 4q3 0 7.5 -1t15.5 -1.5t30.5 -2t54.5 -1.5q29 0 49 1t35.5 1.5t26 1.5t20.5 2q20 3 43.5 4.5t60.5 -7.5l25 9h17q17 0 72 -19l25 -10q28 -11 54 -57l29 -15q19 -21 40 -81l10 -31q10 -30 10 -70v-21v-20v-46l-9 -20q2 -6 2 -16 q0 -28 -20 -84l-14 -38q-14 -37 -62 -90l-25 -28q-24 -27 -90 -56l-33 -14q-34 -16 -73 -16h-18h-19q-22 0 -41.5 2.5t-40 4.5t-42 4t-47.5 2q-24 0 -38.5 -1.5t-24.5 -2t-17 -1.5t-15 -1q-19 0 -19 12q0 8 8 20t17 15q11 2 19 8.5t14 21.5q6 13 9 37l11 24l-9 19l6 34l1 61 l6 77l20 7l15 7l3 28l7 28l-16 21l-22 20l-10 67l-10 67v26q0 26 -15 48t-34 24q-13 2 -23.5 2t-10.5 12zM272 378l7 -35q0 -36 16 -44q21 -10 40.5 -14t42.5 -4q78 0 116 73l19 38q20 37 20 113l11 34l-11 41v35v18q0 17 -9 69l-9 22q-6 24 -29 56l-11 15q-12 15 -43 30 l-16 7q-16 6 -34 6h-10h-10q-24 0 -44.5 -3t-30.5 -5l-8 -1v-112l-2 -42l2 -71v-56l-7 -66l7 -47z" />
<glyph unicode="e" horiz-adv-x="626" d="M25 867l8 13l9 12l8 13l8 12l50 -1l47 -12l52 11l50 -1l77 1l76 1l153 1l-7 -54l11 -54l11 -57l10 -57l-10 -3l-11 -3l-14 21l-15 21l-17 34l-18 34l-28 28l-28 28l-20 8l-39 1l-37 2l-38 1l-15 -5l-16 -6l-5 -12l-6 -12v-118v-119l50 2l50 1l27 3q26 3 40 11t18 28l4 19 l4 12l3 11l18 -9l17 -10v-111v-111l-19 -1l-20 -2l-5 31q-6 30 -43 45q-38 15 -67 20l-30 5h-23h-24v-128v-129l59 1l58 -8l42 5l41 -5l52 -11l51 -12l41 -15l58 3l27 -9l51 -4l43 2q43 1 60 9l16 8l12 -18l11 -1l17 -13l16 -14l-28 -3q-28 -4 -69 -7l-42 -3l-64 5l-64 5 l-116 5l-116 5l-99 -3q-100 -4 -196 -10l-96 -7l2 25l2 24l9 2l9 2l22 13q21 12 24 19l3 6l13 7l-6 6v117l-3 108l13 6l16 26l-5 19l-5 18l12 18l11 18l-18 6l-18 6l-1 22l-2 22v65q0 64 -5 90q-6 26 -25 29l-20 3l-19 2z" />
<glyph unicode="f" horiz-adv-x="575" d="M25 917l93 -1l87 -1l76 -4l99 2l70 2l70 2l70 2l70 2l63 4q14 1 26 1q43 0 57 -9q19 -12 32 -31t6 -36q-10 -21 -32 -10q-18 7 -24 18q-6 10 -37 10q-35 0 -82 -3q-49 -4 -115 -19q-68 -15 -132 -26q-63 -11 -105 -11h-36l-2 -104l-2 -105l37 -3l40 -4q43 4 62 16t22 55 h37v-235l-51 3q-8 51 -20.5 59.5t-32.5 19.5l-101 -8v-56l-23 -18l7 -48l-5 -44l21 -63l20 -11q19 -13 62 -25q18 -20 -2 -40l-313 -1l-9 49q32 0 48 14t27 51l4 459l-2 24q-2 24 -11 36q-9 10 -34 18l-32 10l-1 29l-1 14z" />
<glyph unicode="g" horiz-adv-x="682" d="M25 497v19v18v38v19q0 19 27 91l14 36q13 36 62 93l25 29q24 28 81 63l29 18q29 17 72 17l19 -7l19 7h16h7q9 0 30 -10l5 6q14 -1 29 -4l9 -1q7 -2 19 -4l6 -2q5 -1 10 -1h3h3h6h3q2 0 14 3l7 1q5 1 14 4l5 2q5 1 11 4l4 1q4 1 6 1h1h6h2q8 0 8 -8v-3v-3v-4v-2 q0 -2 -7 -32l-4 -16q-1 -3 -1 -8q0 -18 11 -59l6 -27q7 -27 7 -31v-2v-2v-3v-2q0 -3 -9 -6l-3 -1l-1 -2v-2l-2 -3v-1v-2q-1 -1 -4 -5l-2 -3q-4 -4 -9 -4h-2h-1h-3h-1q-6 0 -11 12l-3 4q-2 5 -11 22l-5 9l-5 8l-1 8l-1 4q-1 4 -14 21l-6 8q-6 7 -28 20l-11 5q-13 6 -46 14 l-18 4q-17 4 -39 10h-11l-9 -6h-22h-10q-8 0 -31 -14l-12 -7q-13 -8 -42 -43l-16 -19q-15 -18 -30 -67l-7 -24q-8 -25 -8 -58v-17v-17v-37v-18q0 -19 8 -41l4 -12l4 -12l-11 -3l-5 -2h-1l-5 -21l-3 -12l-3 -10l6 -1l5 -2l6 -2l8 -11l2 -4l-1 2l1 2l3 4l8 13l28 -44l12 -19 l10 -17l39 -18l19 -9l19 -8h32h17h17h9h5h3l16 4l15 3l2 -7l10 15l11 8l6 -2l4 18l4 8q4 7 4 18v6v5v33v16v16v17v9q0 8 -17 24l-10 8q-8 7 -25 10l-9 2l-10 1l-7 1l-2 1h-6h-3h-2h-4h-2q-7 0 -7 6v2v2v2q0 1 5 8l2 3q1 2 8 9l2 2q3 3 10 8l3 2q4 2 8 2h1h1h4h2q2 0 27 -3 l12 -1q11 -2 44 5l18 4q18 3 41 7l11 2q11 2 24 3l7 1q7 0 15 1l4 1h8h1h1h7h4q8 0 8 -7v-3v-3v-3v-1q0 -2 -8 -8l-4 -5q-3 -2 -7 -10l-2 -5l-2 -4v-3h-1q0 1 -11 -20l-5 -10q-4 -9 -4 -20v-5v-6l-6 -42l6 -39l-7 -27l7 -11v-6q0 -6 -40 -45l-21 -21q-20 -20 -51 -39l-15 -9 q-15 -8 -52 -23l-18 -8q-20 -9 -47 -9h-13h-13h-35h-18q-20 0 -78 27l-29 12q-30 13 -72 60l-20 22q-21 23 -43 86l-12 32q-11 31 -11 68z" />
<glyph unicode="h" horiz-adv-x="800" d="M25 877v6l4 42l187 -4l27 -19q35 15 112 15v-6q0 -30 -32 -30q-44 -17 -44 -94l-4 -36v-80q0 -30 -26 -30l-25 -28l293 -12v178q-13 86 -74 86l-6 6q2 42 13 42q168 0 236 -12l68 4h13q0 -36 -28 -36q-44 -13 -44 -72q-5 0 -8 -34l8 -484q6 -36 38 -58l42 -4v-36l-93 4 h-120l-105 -4v10l-4 30q68 0 68 98v8l-4 186l-246 12q11 -272 26 -272q19 -24 66 -24v-36l-133 4h-52l-133 -4v10l-4 30q68 0 68 74l-4 300v188q-15 82 -80 82z" />
<glyph unicode="i" horiz-adv-x="390" d="M35 877l7 46l168 -4l37 -22l22 15l79 3l-8 -29q-41 -9 -52 -27.5t-19 -86.5v-102l-11 -22h-15l-30 -35l15 -19v-18l26 -12h12v-23l11 -223q4 -48 37 -68l41 -7v-30q-74 3 -149 3l-149 -3l-4 37q37 5 48.5 18t15.5 58l-4 480q-15 41 -26 56t-52 15z" />
<glyph unicode="j" horiz-adv-x="483" d="M25 73q0 8 6.5 19.5t16.5 22t23 17t27 6.5q9 0 28 -12.5t44 -8t38 18.5t19 42q2 17 4 38.5t4 104.5l7 143l-6 119v74v48l2 63l-4 51q-2 25 -5 31q-4 15 -16 20t-43 7q-14 0 -18 0.5t-8 2.5q-3 3 -3 7v17t3.5 17t19.5 4l141 -2q38 0 71 0.5t51 1.5h16q15 0 15 -17v-4v-10 q0 -9 -4.5 -12.5t-19.5 -5.5q-25 -4 -36.5 -15.5t-15.5 -39.5l-2 -148l-15 -13l-14 -11l6 -24l-12 -24l17 -29l16 -30l-3 -41l-3 -41q1 -51 1 -86q0 -42 -1 -61q-4 -36 -11.5 -60.5t-18.5 -47.5q-17 -35 -43.5 -65.5t-57.5 -54t-64.5 -37.5t-66.5 -14q-39 0 -62 15.5 t-23 23.5z" />
<glyph unicode="k" horiz-adv-x="758" d="M25 233q0 12 2.5 15t12.5 7q19 2 30.5 7t23 15.5t14.5 28.5t3 46v27h2q18 0 18 42q0 9 -1 20l-7 21l19 30l-9 18l-20 26v234l-3 62l-11 31l-19 10l-19 2l-18 4l-3 2l-2 3v18v14l8 8h15h14l9 -1h30h31l54 -1h19h13h13h12h11l25 1l17 1h12h17v-16v-22l-7 -11l-20 -2l-25 -3 l-21 -20l-2 -27l-3 -20l-3 -110v-69q5 -13 20 -13t41 15l12 12l18 19l40 43l38 42l10 13l11 12l25 30l17 26v11v18l-43 -1h-16l-9 10v13v17l6 10h11h5l27 -2l55 -1h46h17h12h11q21 1 32 1.5t29 1.5h11q11 0 14 -5t3 -19q0 -15 -3.5 -18.5t-23.5 -9.5q-12 -5 -22 -8t-33 -19 l-31 -26l-51 -46l-52 -47l-43 -66l39 -58l38 -58q25 -49 52 -80q25 -41 51 -71q31 -37 81 -94l41 -58q39 -46 60 -56l22 -11l21 -10q21 -10 41 -10h21h22q20 0 28 3l9 4l11 3l12 4l12 -7l13 -7l10 -6q12 -7 1 -16l-9 -8l-11 -10l-9 -9l-18 -6l-17 -5l-16 -6q-18 -5 -54 -6 h-35l-36 -1q-37 -1 -55 8l-17 9l-16 17q-19 -1 -43 16l-25 17l-24 27q-25 7 -58 45l-34 39l-33 37l-33 38l-12 28l-12 9l-13 28l-12 8l-11 18l-12 18l-11 17q-12 18 -27 40t-24 51l-4 19l-8 -1q-14 9 -14 10l-65 -33v-82v-26q0 -27 1 -50q0 -24 -10 -28q10 -24 12 -41 t7.5 -26t15.5 -12.5t26 -4.5q22 -1 25.5 -4t12.5 -18q-9 -15 -10.5 -20t-12.5 -5q-54 2 -123.5 2t-153.5 -2h-6q-12 0 -14.5 4.5t-2.5 22.5z" />
<glyph unicode="l" horiz-adv-x="700" d="M25 232q0 13 4 17t25 6t32.5 8t19 20t13.5 64l1 220l3 34l33 -3l4 33l-25 19l12 31l-24 57q-3 91 -8 112t-15 24t-32 5q-20 1 -25.5 3t-5.5 11v12q0 15 4 19.5t22 4.5h13q61 -14 119 -14q25 0 51 3q82 9 103 11h13q18 0 18 -17q0 -22 -5 -27t-24 -6q-31 -3 -45 -11.5 t-19 -34.5q-2 -13 -4 -62.5t-2 -144.5q0 -113 1 -188.5t2 -100.5q1 -22 3 -34t8.5 -17.5t18 -7t34.5 -1.5q58 0 101.5 4.5t61.5 13.5q16 8 106 107q4 21 19 21q39 0 39 -22q0 -9 -31 -50t-35.5 -64t-9.5 -43q-3 -13 -5 -21t-4.5 -12t-8.5 -4.5t-12 -0.5h-7h-10t-116 6.5 t-196 6.5q-44 0 -70.5 -5.5t-61 -6t-58.5 -1.5h-6q-14 0 -16.5 4t-2.5 22z" />
<glyph unicode="m" horiz-adv-x="970" d="M25 221q0 1 2.5 6.5t6 11.5t7.5 12t8 8q13 5 23 15t17.5 32.5t12.5 59t11 91.5q1 179 11 274t10 120q0 30 -13.5 41t-16 37.5t27 23t66.5 -3.5q28 0 59.5 3t45.5 3q10 0 15 -4.5t7.5 -13t5.5 -23t10 -37.5l15 -48l4 -39l22 -46l15 -49l15 -61l20 -49l20 -61l14 -42 l13 -41h-3h-3l22 68l32 64l26 110l35 104l10 34l9 34q7 23 10 41.5t15 29.5t19 18.5t22 7.5q10 0 29.5 -3t63.5 -3q49 0 62.5 -24.5t6 -30.5t-13 -17.5t-5.5 -33.5q0 -13 3 -45.5t7 -74.5q3 -25 3 -52q0 -18 -1 -36q-1 -16 -1 -33q-1 -29 3 -59q6 -46 10.5 -85.5t6.5 -63.5 q3 -44 11 -70t18.5 -39t21.5 -17.5t22 -5.5q25 -5 25 -15q0 -5 -6.5 -8.5t-9.5 -13.5q-2 -7 -11.5 -10t-16.5 -3q-25 0 -54 3.5t-67 3.5q-16 0 -36.5 -1l-41 -2t-39 -2.5t-30.5 -1.5h-4q-7 0 -11 4q-5 3 -5 7v4v3q0 3 7 10q5 5 9 11l2 4l1 1q0 2 12 6q8 2 18 9.5t19 23 t9 41.5q0 42 1 144l27 33l21 32l-28 6l-16 22l-18 19q-1 117 -5 177h7l-189 -530h-15h-11l-32 -2l-36 -2l-19 49l-18 49l-10 61l-29 66l-30 93l-30 92l-31 65l-30 62h7q-3 -27 -7 -65q-3 -38 -7 -80l-2 -36q0 -25 3 -50q3 -27 3 -52q0 -15 -1 -30q-3 -39 -5 -70.5t-2 -49.5 q0 -42 41 -77h10h13h10h12l8 -4l8 -4v-3v-4v-1v-2l-3 -5l-4 -5l-5 -5l-5 -6l-6 -5l-6 -6h-4h-2l-37 4l-35 3q-54 0 -81 -3.5t-59 -3.5q-18 0 -18 12z" />
<glyph unicode="n" horiz-adv-x="745" d="M-141 1017l31 18q30 17 71 23q13 2 28 2q30 0 67 -7q54 -10 105 -42t60 -57l26 -20v-23l-1 -23l36 -23l36 -23l18 -23q17 -23 51 -97l51 -80l57 -106l56 -106l5 3l5 2l-2 175l-2 174l-6 30q-7 29 -19 52q-13 23 -31 34t-30 13l-13 2v17v16l6 5l6 5l48 -2q47 -2 118 -2h70 l13 -15l12 -15l-7 -11l-8 -12l-21 7q-21 7 -36 -22q-16 -29 -16 -58v-30l-6 -261l-6 -262l6 -29q6 -30 38 -78q31 -48 58 -70q26 -23 71 -23q44 0 68 21l24 21l-7 -35q-7 -36 -24 -60q-17 -25 -58 -26h-17q-34 0 -70 6q-46 7 -93 40q-48 33 -85 77t-48 66l-11 21l4 17l10 8 l7 17l-6 7l2 7l1 7l2 5l2 4v9v8l-11 7l-11 6h-5h-5h-5h-5l2 -6l1 -7v-4v-4l-1 -6l-2 -6l-4 -3l-4 -3l-6 -5l-7 -6l-46 96q-46 95 -85 163l-39 67l-25 42l-24 41l-25 42l-25 41l6 -210l2 -106l3 -105l4 -13l3 -13q7 -27 27 -38q19 -12 35 -13l16 -2l-3 -19l-4 -19l-53 2 q-18 1 -37 1q-38 0 -83 -3l-68 -4v12v12l14 7q14 7 25 19q10 11 20 17q9 6 6 28l-4 21l1 140l1 141v140l1 140l-9 12q-9 11 -30 36t-38 43q-18 17 -37 27q-20 10 -37 9q-18 -2 -30 -12t-13 -13l-2 -3l-15 17z" />
<glyph unicode="o" horiz-adv-x="763" d="M25 490l24 12l15 36l11 25l-12 31l-38 -13q0 240 255 332q56 16 120 16h4q218 0 271 -159l37 -53q26 -82 26 -144v-58q-24 -149 -91 -223l-91 -58q-83 -40 -163 -40q-233 0 -331 177q-37 82 -37 119zM183 577q0 -238 160 -309l51 -8q124 0 171 154l15 116q0 183 -103 287 q-53 42 -84 42h-9q-57 -33 -57 -80v-39l11 -15q0 -10 -17 -10q-67 21 -67 68v8q0 21 11 41h5q-87 -75 -87 -232v-23z" />
<glyph unicode="p" horiz-adv-x="656" d="M25 893v4v2q0 2 5 8q4 5 11 10q5 6 10 10q7 4 10 4h1h2q2 0 8 -1q3 -1 15 -2t23 -8q28 5 48 5h18h18h17l31 2l30 2l30 2q30 2 59 4t45 2h16h51q53 0 66 -13l15 -13l7 -11l6 -12l-5 -11l-6 -12l11 -6l9 -6l9 4l16 9l17 -16q13 -13 13 -55v-42v-22q0 -22 -24 -64 q-22 -40 -59 -72t-83 -51q-47 -21 -71 -21h-23h-17q-20 0 -46 18q-24 16 -34 24l-1 1v-96v-103v-33q0 -33 20 -58t38 -25h20h8q10 0 16 -5q5 -5 5 -8v-3v-3q0 -3 -5 -7q-3 -3 -6 -7l-1 -2l-2 -2q-2 -3 -7 -7q-7 -4 -17 -4h-9h-13q-13 0 -45 3t-53 3h-22h-17q-17 0 -40 -1 q-24 -1 -40 -2q-15 -1 -24 -2q-10 -1 -12 -1h-2h-5q-8 0 -12 2q-7 4 -7 7v2v4q0 3 8 17q7 13 16 15l4 1l10 2q6 1 20 21q14 21 14 39v19l26 9l10 3l-4 17l-14 14v14l-1 14l-8 13l-9 12v178v178v27q0 26 -16 48q-17 22 -24 23l-12 1l-7 1q-7 1 -15 2q-14 0 -14 7zM273 638 q0 -6 7 -14q6 -8 15 -13q12 -6 25 -9q12 -3 18 -3h7h34q31 0 61 36q31 37 31 69v31v14q0 13 -9 35q-10 21 -16 41q-23 8 -43 16q-23 9 -27 15l-14 -7h-15q-14 0 -35 -1q-22 -2 -31 -4l-8 -2v-99v-100v-5z" />
<glyph unicode="q" horiz-adv-x="772" d="M25 576q0 249 250 342q60 19 126 19q242 0 329 -254l12 -100v-15q0 -166 -121 -289l-22 -3q-24 -38 -63 -53v-3q107 -166 201 -166h3l79 11q23 -19 23 -36q0 -15 -18 -28q-57 -20 -99 -20h-26q-142 0 -236 107q-10 0 -73 98l-36 5q-220 0 -310 224q-8 33 -8 63 q0 39 13 72zM184 637l11 -69q0 -212 162 -292l56 -8q125 0 174 139q19 61 19 127q0 245 -169 319l-34 7q-43 -32 -60 -59l17 -50l11 -15q0 -9 -17 -9q-69 22 -69 67l6 38q-96 -59 -107 -195z" />
<glyph unicode="r" horiz-adv-x="734" d="M25 256q40 0 51.5 19t17.5 40t6 292l30 12l-33 30l-4 68l-5 69q-3 61 -60 80l9 57q109 -10 200 -10q49 0 92 3q127 -4 177 -17.5t73 -32.5l23 -19l23 -20q23 -19 31 -39l8 -19l8 -20q8 -20 2 -42l-5 -22l-6 -22q-6 -22 -20 -43l-14 -21l-15 -21q-14 -21 -29 -29l-15 -7 l-15 -8l-15 -8v-4v-3v-8l18 -11q18 -12 74 -56t93 -93q36 -50 92 -111q55 -61 105 -84t88 -23t63 7l24 6l37 12q37 12 40 -3l2 -16l1 -15q1 -16 -20 -19l-22 -3l-9 -4q-9 -5 -57 -15q-35 -7 -80 -7q-18 0 -37 1q-68 3 -112 17q-44 13 -148 89t-162 141t-112 123 q-54 57 -83 82l-30 24v39l103 -9q44 4 60 19.5t24 59.5q4 20 4 43q0 27 -6 57q-10 56 -44 78t-94 26q-79 -7 -95 -62l4 -475q15 -50 37 -61.5t58 -26.5v-31l-328 -7z" />
<glyph unicode="s" horiz-adv-x="706" d="M42 325q16 43 55 75q39 30 77 40q26 7 53 7q11 0 22 -1q-4 -52 -6 -96q-25 6 -47 6q-14 0 -28 -3q-32 -8 -44 -45q-4 -12 -3 -25q0 -25 15 -51q23 -40 62 -54q40 -15 90 -21q17 -2 34 -2q32 -1 64 7q48 12 90 48q41 36 52 76q4 16 4 32q0 26 -10 55q-17 47 -53 66l-17 28 l-1 27l-18 29q-32 -19 -22 -44l-51 15q-153 60 -203 99q-51 39 -71 80q-13 25 -12 53q0 18 5 36q13 48 40 87.5t67 66t75.5 33.5t93 7t98.5 -4h12q41 0 115 19q11 -100 60 -220l-56 -3q-19 48 -73 81.5t-106 48.5q-32 9 -62 9q-19 1 -39 -3q-48 -10 -72 -45q-13 -18 -13 -36 q1 -17 11 -33q22 -34 83.5 -69t145.5 -68.5t136 -91.5t69 -123q8 -32 8 -60q0 -29 -8 -54q-18 -49 -64 -93.5t-117 -74t-136 -33.5q-19 -1 -37 -1q-42 0 -78 6q-50 10 -110 51t-78 82q-10 22 -10 44q0 20 8 40z" />
<glyph unicode="t" horiz-adv-x="719" d="M8 710q29 104 39 218l131 -13l165 6l160 4l73 -16l86 19q-5 -41 -5 -70q-1 -14 1 -26q4 -34 12 -62.5t24 -51.5l-45 -34q-30 47 -51.5 81.5t-49 49.5t-57.5 32t-36 27l-24 6h-3l-3 -3v-3l3 -127v-13l-3 -7l3 -23h-3v-11l6 -9v-94l-12 -59l-4 -10l-13 -8v-13l7 -6l10 -7h3 l3 -10l3 -19l-19 -18l3 -7v-3q-6 -20 -6 -21.5t6 -17.5l3 -4l23 -27l-13 -17q6 -59 24.5 -74.5t28 -17.5t59.5 -8v-36h-206h-37.5h-118.5v36q33 0 53 7t28 23.5t5 56.5l6 130v74l4 70l-4 10v10l7 9l-20 34l10 37l-6 46l3 111h-43q-39 0 -62 -9t-43 -33.5t-38 -54.5t-38 -77z " />
<glyph unicode="u" horiz-adv-x="781" d="M25 892q0 2 3.5 7.5t8.5 11.5t11.5 10t13.5 4q8 0 28.5 -3t70.5 -3l68 -9q24 11 43 12t30.5 2t19.5 1q14 0 20 -4t6 -9q0 -2 -2.5 -6.5t-6.5 -10t-8.5 -10.5t-7.5 -6q-19 -7 -29.5 -14.5t-16.5 -19t-8 -30t-2 -47.5v-76l-38 7l15 -20l-20 -37l14 -25l29 10v-150 q0 -79 40.5 -126.5t114.5 -47.5q66 0 113 48t47 154v232q0 41 -4.5 67.5t-14 41.5t-25 22t-39.5 10q-11 2 -17 3t-6 7q0 7 3.5 11t9.5 9q6 7 10.5 12t16.5 5q26 -12 68 -12q29 0 65 6q23 0 37 1t23.5 2t14.5 2t9 1q8 0 15.5 -3t7.5 -11q0 -2 -3 -6.5t-6.5 -9.5t-8.5 -10 t-10 -7q-12 -3 -21.5 -10.5t-16.5 -23t-10.5 -40t-3.5 -62.5l-12 -250q5 -25 5 -49q1 -33 -9 -63q-16 -52 -52.5 -91t-95 -61.5t-140.5 -22.5q-52 0 -94.5 27t-81.5 43t-60 56t-21 89l10 51l-10 290q0 58 -13 85.5t-47 31.5q-15 2 -22.5 3.5t-7.5 10.5z" />
<glyph unicode="v" horiz-adv-x="818" d="M25 902q4 23 16 23l144 -13l14 -9l15 6l22 -9l66 23l17 3v5l-6 -6h28q19 0 19 -27v-2q0 -20 -23 -20q-57 -4 -57 -29q0 -27 129 -375l32 -81q-4 -1 87 236q77 186 77 218q0 31 -72 31h-11q-11 3 -11 14v19q0 14 19 14q48 -4 111 -4.5t142 4.5q10 -3 10 -14v-13 q0 -22 -24 -22q-23 -6 -50 -48q-173 -349 -211 -436q-30 -68 -30 -97q0 -8 2 -14q10 -24 49 -25q19 0 19 -20q0 -29 -15 -29l-87 2l1 -1l-2 -2l-2 2l-2 -2l-2 2l-2 -2l-3 3v-1l-45 12l-12 -3q-12 0 -15 -4l-6 -7l-26 24q-4 -1 3 -8q-1 -19 -8.5 -14.5t-10.5 6.5l-27 -5 l-3 -2h-10v-6l6 6h-29q-20 0 -20 27v6q0 16 30 16q42 0 50 29q0 26 -78 218l21 62l-68 63q-47 124 -83 200q-24 50 -67 50q-11 6 -11 26z" />
<glyph unicode="w" horiz-adv-x="1172" d="M25 893v6q0 26 14 26l117 -9l159 9q14 0 17 -24q0 -24 -22 -24q-48 -4 -48 -20l-3 -7v-6q0 -24 98 -312l36 -142h-3q104 266 141 379v2q-24 106 -70 106q-13 3 -13 14v10q0 24 14 24l156 -19l27 17h57l2 2h11v6l-6 -6h24q19 0 19 -14v-20q0 -14 -26 -14q-44 -5 -44 -27 v-6q0 -26 29 -110l-19 -51l53 -65l52 -135l29 -93h-3q162 415 162 458q0 29 -70 29h-4q-10 0 -12 24l2 19l16 3q32 4 87.5 4.5t135.5 -4.5l7 -6v-32q0 -5 -20 -9q-25 -27 -42 -76q-106 -219 -215 -483l2 -2q21 -57 58 -57q11 -3 11 -14v-12q0 -17 -13 -21l-109 5l-38 16 l-62 -18l-42 -3h-21q-21 0 -21 23l2 2l-2 2q0 22 26 22q46 4 46 26v7q0 30 -116 373q0 4 4 4q-134 -304 -146 -341q15 -63 58 -63q9 -9 9 -16v-12q0 -20 -9 -17l-1 -3q-90 4 -159 4t-116 -4q-21 0 -21 22l2 2l-2 2q0 22 26 22q46 4 46 27v6v97l-20 36l-24 17 q-100 355 -168 418q-8 7 -39 13z" />
<glyph unicode="x" horiz-adv-x="841" d="M25 238q0 16 4 20t24 10q7 2 15.5 6t21 13.5t32 29t49.5 52t72.5 79.5t101.5 114q-43 56 -100 175l-4 54l-27 8l-32 13q-49 40 -52.5 44t-4.5 5q-11 11 -36 15q-21 3 -24 7t-3 24q0 14 2.5 17.5t16.5 3.5l204 -13q62 11 79.5 11.5t22.5 0.5h11q12 0 15 -5t3 -19 q0 -17 -5 -21t-29 -6q-40 -1 -40 -23q0 -8 1.5 -16t25.5 -44l30 -64l55 -60q2 2 12 13l19 22l49 33l17 23q25 54 36.5 71.5t11.5 27.5t-10 13.5t-43 3.5q-13 0 -16 7t-3 23q0 12 3.5 16t16.5 4l46 -10q80 9 110.5 9.5t55.5 2.5h11q14 0 16 -4.5t2 -23.5q0 -12 -3.5 -15.5 t-23.5 -10.5q-9 -2 -26.5 -15.5t-80.5 -74.5l-92 -99l-66 -71q5 -8 83 -157l61 -68q31 -43 47.5 -56.5t36.5 -38.5q12 -14 24 -21.5t33 -9.5q12 -1 15.5 -6.5t3.5 -18.5q0 -15 -2.5 -20.5t-15.5 -5.5l-113 1q-57 0 -105.5 -0.5t-78.5 -1.5h-27q-14 0 -16 5t-2 21 q0 8 0.5 12.5t4.5 8t12.5 4t20.5 0.5q45 1 45 24q0 4 -1.5 9.5t-9.5 18t-54.5 82.5t-63.5 92q-1 5 -2.5 7t-6.5 9q-56 -70 -89 -111t-47.5 -61.5t-18 -28.5t-3.5 -17q0 -14 11.5 -18t54.5 -6q13 0 15 -4t2 -16q0 -18 -2 -23.5t-15 -5.5h-20q-7 0 -29 3.5t-41 4t-38 0.5 l-104 -7q-31 0 -33 4q-3 2 -3 20z" />
<glyph unicode="y" horiz-adv-x="720" d="M25 890q0 3 3 9t9 12t13.5 10.5t15.5 4.5q14 0 34 -16l35 7q26 3 57 3q46 0 84 3t51 3q14 0 18 -4.5t4 -12.5q0 -5 -7.5 -12.5t-10.5 -15.5q-3 -4 -12 -6t-16.5 -5.5t-14.5 -11.5t-7 -24q0 -10 4.5 -24.5t17 -43t35.5 -75t56 -111.5l31 63l47 88q28 53 33 68.5t5 32.5 q0 25 -12 36t-43 11q-7 0 -14.5 1.5t-7.5 7.5q0 2 4 8t9.5 12.5t12 12t13.5 5.5q5 0 10.5 -1t30 -3t49.5 -2q74 2 88.5 4t21.5 2q9 0 16 -5t7 -9q0 -5 -8 -16t-19 -16q-16 -8 -27 -16t-23.5 -25t-46.5 -79l-52 -59l-10 -58q-41 -76 -51.5 -99t-13.5 -36t-3 -28v-145 q0 -44 15 -59.5t39 -17.5q18 -2 26 -4.5t8 -10.5q0 -2 -3 -7t-7 -10t-10 -10t-15 -5q-12 0 -24.5 1t-40 3t-47.5 2q-96 -4 -113.5 -5t-29.5 -1q-18 0 -18 13q0 5 6.5 16.5t18.5 16.5q14 7 23 14t14.5 24.5t9.5 143.5q0 14 -2.5 26.5t-8 27.5t-84.5 173l19 14l13 4l4 4l-12 4 l-7 6l5 4l3 9l-4 11l-5 -3l-18 -5l-26 4l-18 33l-19 33q-19 32 -31.5 51t-21.5 28.5t-16.5 12t-17.5 3.5q-12 1 -16.5 5t-4.5 6z" />
<glyph unicode="z" horiz-adv-x="632" d="M25 236q0 16 1 20t5 9l28 56l77 117l34 4l25 21l7 27l-26 8q220 354 224 360q-61 -2 -85.5 -2t-45 -1t-48 -9.5t-68.5 -37t-55 -68.5v-3l-53 3q23 73 31 101.5t14 94.5q75 -20 146 -32q102 17 140 17l56 -6l48 7q56 1 75 1h10q16 0 20 -4t4 -17v-10q0 -6 -2.5 -10.5 t-14.5 -21.5q-26 -38 -78 -97l-61 -81l-15 -61l-58 -82l-70 -119q-54 -90 -73 -123h9q66 0 164 -13q62 25 82 33t32 22.5t46 90.5q2 12 7 16.5t17 4.5q19 0 26 -3.5t7 -11.5q0 -7 -10.5 -44t-14 -59t-7.5 -38q-5 -40 -0.5 -62t1 -28t-8 -7.5t-13.5 -1.5l-35 21l-283 2 l-91 16l-47 -17l-48 -1h-5q-15 0 -17.5 3t-2.5 16z" />
<glyph unicode="{" horiz-adv-x="1146" d="M40 620l7 25q77 85 140 183q63 173 242 442q188 225 281 225v8q-70 42 -120 42v8l33 17h7l7 -8h6l7 8l94 -8h37l72 -17h42q164 -2 204 -25q0 -15 -114 -37h-13l-19 -3q-70 -14 -189 -177v9q0 87 -33 75q-235 -200 -334 -463q-43 -84 -60 -288.5t43 -365.5 q116 -219 371 -416q13 0 13 100h13v-9q109 -166 180 -177h7q62 -14 115 -14h27v-17q-27 0 -82 -14.5t-72 -20.5l-32 -2l-20 4l-49 -9q-187 3 -288 9v8q84 0 147 42v8h-6q-149 83 -175 117q-157 158 -281 408q-45 150 -208 333z" />
<glyph unicode="|" />
<glyph unicode="}" horiz-adv-x="1146" d="M40 -246h27q53 0 115 14h7q71 11 180 177v9h13q0 -100 13 -100q255 197 371 416q60 161 43 365.5t-60 288.5q-99 263 -334 463q-33 12 -33 -75v-9q-119 163 -189 177l-19 3h-13q-114 22 -114 37q40 23 204 25h42l72 17h37l94 8l7 -8h6l7 8h7l33 -17v-8q-50 0 -120 -42v-8 q93 0 281 -225q179 -269 242 -442q63 -98 140 -183l7 -25q-163 -183 -208 -333q-124 -250 -281 -408q-26 -34 -175 -117h-6v-8q63 -42 147 -42v-8q-101 -6 -288 -9l-49 9l-20 -4l-32 2q-17 6 -72 20.5t-82 14.5v17z" />
<glyph unicode="~" horiz-adv-x="1129" d="M25 735l51 40q194 -91 300.5 -108.5t196.5 59.5t255 44.5t288 -229.5l-72 25q-150 50 -248.5 64t-204.5 -60.5t-222.5 -48t-343.5 213.5z" />
<glyph unicode="&#xa1;" horiz-adv-x="654" d="M143 1130q37 -9 47 0l3 8v40q17 32 33 28q5 14 76 -4l26 -18h10q89 67 134 55q49 8 57 29l1 2q4 24 -19 54l-4 1q-9 3 -24 -26q-71 -17 -93 -27l-3 146l-92 21q-34 -168 -76 -178q-24 6 -61 -37l-6 -15q-22 -60 -9 -79zM167 381q11 -256 279 -415l80 -23q-10 102 -25 183 l-76 539q-65 220 -43 480q9 50 4 51l-1 1q-36 -16 -43 -36l-2 -3q-38 -212 47 -579l84 -535q-188 248 -175 848q6 101 14 253q13 34 -30 44l-10 4l-4 -9l-6 -42q-15 -165 -60 -177q-44 -328 -33 -584zM278 1545v52h8l21 53l37 10l52 -10l33 -53l-29 -52l-48 -43z" />
<glyph unicode="&#xa2;" horiz-adv-x="720" d="M25 535l18 36q0 36 20 105q19 69 69 125t117 90q52 26 76 30l30 299l98 66l-38 -377l2 -1q21 7 39 10q21 3 27 -13q18 -3 29 8q13 -3 17 -3h8q2 0 12 2t21 5q9 3 17 6q9 2 11 2h4q4 0 10 -4q5 -5 5 -11v-8q0 -3 -1 -8q-2 -6 -16 -27q15 -15 9 -29l-7 -14l5 -10l4 -11 l6 -34q5 -34 7 -41q1 -8 1 -13v-5l-7 -9q-6 -8 -22 -13l-16 -5h-5q-8 0 -12 11q-3 8 -9 27q-6 18 -14 39q-8 20 -26 36q-20 17 -52 29q-30 11 -52 18l-46 -573q6 0 16 4l34 10h26q22 0 60 17q36 16 64 37q27 20 73 52l58 39l-23 -48q-19 -38 -62 -77q-43 -41 -83 -66 q-42 -27 -75 -31q-30 -4 -55 -19q-28 -18 -41 -18l-23 -312l-84 65l18 252q-22 5 -54 21q-57 24 -78 49l-21 23l4 22l4 21l-7 22l-7 19l-52 -6l-16 52q-15 51 -6 94zM172 535q9 -43 26 -99q17 -58 47 -99q19 -26 32 -36l42 536h-2q-42 0 -88 -57q-48 -60 -48 -128v-69z" />
<glyph unicode="&#xa3;" />
<glyph unicode="&#xa4;" />
<glyph unicode="&#xa5;" />
<glyph unicode="&#xa6;" />
<glyph unicode="&#xa7;" horiz-adv-x="821" d="M41.5 325q16.5 43 55.5 74.5t76.5 41t75.5 5.5q-4 -52 -6 -96q-44 11 -75.5 3t-43 -45t11.5 -76.5t62 -54t89.5 -20.5t99 5.5t89.5 47t52 76t-6 87.5t-53 66l-17 28l-1 27l-18 29q-32 -19 -22 -44l-51 15q-153 60 -203 99t-70.5 80t-7.5 89.5t40 87.5t67 65.5t75.5 33.5 t92.5 7q48 0 85 -3q1 9 4 18q13 49 40 88t67 65.5t75.5 33.5t93 7t98.5 -3.5t127 18.5q11 -100 60 -220l-56 -3q-19 48 -73 81.5t-106 48.5t-100.5 5.5t-73 -44.5t-2 -68.5t84 -69t145.5 -69t136 -91.5t69 -123t-0.5 -114t-63.5 -93.5t-117 -74t-136 -33.5q-21 -2 -45 -1 q-1 -4 -3 -7q-17 -49 -63 -93.5t-117 -74t-136 -33.5t-115.5 5.5t-110 50.5t-78 82t-2 84zM229.5 770.5q22.5 -33.5 84 -69t145.5 -69t136 -91.5t69 -123q7 -28 8 -52q49 -2 78 5q49 12 90 47.5t52 76t-6 87.5t-53 66l-17 28q-51 37 -41 12l-51 15l-64 55q-89 5 -114 25 l-25 19q-32 25 -52 50q-32 17 -64 26q-52 15 -100.5 5.5t-73 -44.5t-2 -68.5z" />
<glyph unicode="&#xa8;" horiz-adv-x="547" d="M13 1575q26 49 64 64q43 -4 74 -43q0 -52 -11 -58l-18 -47q-28 -10 -48.5 -10.5t-40.5 10.5q-33 53 -20 84zM368 1574q26 49 64 64q43 -4 74 -43q0 -52 -11 -58l-18 -47q-28 -10 -48.5 -10.5t-40.5 10.5q-33 53 -20 84z" />
<glyph unicode="&#xa9;" horiz-adv-x="1779" d="M40 850q0 222 114 426t317 313.5t418 109.5q214 0 417 -109.5t318 -313.5t115 -426q0 -221 -112 -422.5t-314.5 -313.5t-423.5 -112q-220 0 -422.5 112t-314.5 313.5t-112 422.5zM125 850q0 -199 101 -380.5t283 -282t380 -100.5q199 0 381 100.5t283 282t101 380.5 q0 200 -103.5 383.5t-286 282t-375.5 98.5t-376 -98.5t-285.5 -282t-102.5 -383.5zM275 880l59 78q13 63 54.5 143t114 164t156.5 125t150.5 51t168 5.5t235.5 23.5q-7 -111 0 -170.5t15 -100.5t25 -64l-81 -41q-3 58 -24 110t-57 86t-79 51.5t-97 9.5t-128 -34t-79.5 -45.5 t-46.5 -19.5l3 -55q-46 -62 -67.5 -117.5t-28 -113t-6.5 -147.5t15 -165t60.5 -134t89.5 -109t110.5 -81t150 -40.5t148 0t103 31t102.5 91.5q0 -78 -28.5 -110t-101 -55t-154 -31.5t-156.5 -5t-148 27t-125 57t-26 57.5l-80 20q-105 122 -131.5 182.5t-38 124.5t-11.5 139z " />
<glyph unicode="&#xaa;" />
<glyph unicode="&#xab;" />
<glyph unicode="&#xac;" />
<glyph unicode="&#xad;" horiz-adv-x="526" d="M23 664l464 80l13 -69l-172 -36l-212 -80l-88 36z" />
<glyph unicode="&#xae;" horiz-adv-x="1779" d="M40 850q0 222 114 426t317 313.5t418 109.5q214 0 417 -109.5t318 -313.5t115 -426q0 -221 -112 -422.5t-314.5 -313.5t-423.5 -112q-220 0 -422.5 112t-314.5 313.5t-112 422.5zM125 850q0 -199 101 -380.5t283 -282t380 -100.5q199 0 381 100.5t283 282t101 380.5 q0 200 -103.5 383.5t-286 282t-375.5 98.5t-376 -98.5t-285.5 -282t-102.5 -383.5zM362 1267h5q57 -33 151 -33q48 0 146.5 21t157.5 18q91 -14 143 -52q23 -22 23 -36l18 2l118 -141v-3q-13 -21 -21 -97q-21 -70 -88 -119l-7 -11q8 0 38 -42v-6l-3 -19l30 -22l8 11h2 q66 -63 101 -133q31 -77 116 -170q48 -31 67 -31l98 19h5l13 -3v-10q-44 -59 -123 -59q-102 -4 -184 81q-107 111 -141 173l-112 169l-56 -3h-63l-15 3l-7 -3v-102q0 -5 -18 -8v-12q0 -8 15 -8q0 -59 38 -80l32 -2v-28l-103 8q-43 0 -153 -41v3l-5 33q57 0 68 85v272l3 121 q0 50 -48 50h-5q-6 9 -3 25.5t10 16.5q157 -11 224 -3v-36h-25q-35 -28 -35 -102v-34l-3 -97l8 -2q144 0 159 43q42 27 42 114q0 125 -68 170q-57 39 -144 42q-127 -3 -296 -39l-20 -3q-58 10 -58 21z" />
<glyph unicode="&#xaf;" />
<glyph unicode="&#xb0;" horiz-adv-x="440" d="M62 1472q0 45 23 86.5t64 63.5t85 22q43 0 84 -22t64.5 -63.5t23.5 -86.5q0 -44 -22.5 -85t-63.5 -63.5t-86 -22.5t-86 22.5t-63.5 63.5t-22.5 85zM105 1472q0 -33 17 -64t47.5 -48t64.5 -17t64.5 17t47.5 48t17 64q0 34 -17.5 65t-48 48t-63.5 17t-64 -17t-48 -48 t-17 -65z" />
<glyph unicode="&#xb1;" />
<glyph unicode="&#xb2;" />
<glyph unicode="&#xb3;" />
<glyph unicode="&#xb4;" horiz-adv-x="245" d="M36 1522l52 140l25 45l43 37l64 -37v-45h-8l-17 -47l-125 -131q-34 -16 -34 38z" />
<glyph unicode="&#xb5;" />
<glyph unicode="&#xb6;" />
<glyph unicode="&#xb7;" />
<glyph unicode="&#xb8;" />
<glyph unicode="&#xb9;" />
<glyph unicode="&#xba;" />
<glyph unicode="&#xbb;" />
<glyph unicode="&#xbc;" />
<glyph unicode="&#xbd;" />
<glyph unicode="&#xbe;" />
<glyph unicode="&#xbf;" horiz-adv-x="981" d="M191 311q-30 159 40.5 232t159.5 96t120.5 106.5t26.5 129.5t-37 46q-103 0 -145.5 46t-43.5 301l422 38l118 -29q-12 -330 -139 -356h-28q-39 0 -24 -158q-8 -155 -102 -222t-147 -84t-60 -124.5t62 -186t160.5 -80.5t146 65.5t153.5 200.5q-28 -196 -104 -292.5 t-229 -96.5t-236.5 104.5t-113.5 263.5zM212 340q6 -59 35.5 -134.5t68.5 -133t111 -80.5q-36 42 -63.5 71.5t-51 75t-51.5 121.5t-21.5 131t36.5 99t73.5 60t85.5 37.5t62 71.5q-59 -45 -116 -58.5t-103 -56t-59 -94t-7 -110.5zM336 1076q3 -69 37.5 -96t98.5 -33l174 -5 q58 5 101 19q-53 9 -122 6.5t-109 0t-80.5 9.5t-57 38t-42.5 61zM521 1379v52h8l21 53l37 10l52 -10l33 -53l-29 -52l-48 -43z" />
<glyph unicode="&#xc0;" horiz-adv-x="1428" d="M32.5 16.5q-7.5 16.5 6.5 21.5l6 23q-11 8 -9.5 17.5t15.5 13.5q160 45 178 59.5t41 77t54 111t83 171.5q44 154 99 284t83 222.5t62 144.5t-44 137l61 98q124 6 151 12q8 3 20 3q11 0 13.5 -6.5t12.5 -33.5q92 -157 122 -229t46 -119l14 -56l-35 10l-14 -28l24 -46 l59 -18l31 -92l31 -92l103 -22l-40 -149l-37 -3q34 -110 55 -164.5t3 -110.5l86.5 -86.5t54.5 -30.5t33 -12.5t2 -32.5t-19 -39q-362 2 -385.5 1t-30.5 -1q-66 0 -70.5 6t-4.5 32t3 31.5t20 7.5q56 6 76.5 20.5t20.5 44.5q0 10 -3 26t-12 47t-25.5 83t-50.5 160 q-29 -2 -316 -23l-9 30q-29 -22 -67 -34q-26 -83 -42 -134t-25 -81t-11.5 -45t-2.5 -25q0 -67 104 -69l40 -26v-17q0 -26 -2.5 -32t-17.5 -6h-20q-10 0 -24 2l-180 2q-24 -8 -48 -8l-70 1l-18 11l-28 -14l-22 -10l-4 8l-25 -4l-31 -16q-63 -20 -70.5 -3.5zM597 633l262 26 q-35 101 -48 141q9 65 -10 84.5t-32.5 55.5t-19.5 53.5t-11 33.5q-67 -193 -141 -394zM642 1662v45l64 37l43 -37l25 -45l52 -140q0 -54 -34 -38l-125 131l-17 47h-8z" />
<glyph unicode="&#xc1;" horiz-adv-x="1428" d="M32.5 16.5q-7.5 16.5 6.5 21.5l6 23q-11 8 -9.5 17.5t15.5 13.5q160 45 178 59.5t41 77t54 111t83 171.5q44 154 99 284t83 222.5t62 144.5t-44 137l61 98q124 6 151 12q8 3 20 3q11 0 13.5 -6.5t12.5 -33.5q92 -157 122 -229t46 -119l14 -56l-35 10l-14 -28l24 -46 l59 -18l31 -92l31 -92l103 -22l-40 -149l-37 -3q34 -110 55 -164.5t3 -110.5l86.5 -86.5t54.5 -30.5t33 -12.5t2 -32.5t-19 -39q-362 2 -385.5 1t-30.5 -1q-66 0 -70.5 6t-4.5 32t3 31.5t20 7.5q56 6 76.5 20.5t20.5 44.5q0 10 -3 26t-12 47t-25.5 83t-50.5 160 q-29 -2 -316 -23l-9 30q-29 -22 -67 -34q-26 -83 -42 -134t-25 -81t-11.5 -45t-2.5 -25q0 -67 104 -69l40 -26v-17q0 -26 -2.5 -32t-17.5 -6h-20q-10 0 -24 2l-180 2q-24 -8 -48 -8l-70 1l-18 11l-28 -14l-22 -10l-4 8l-25 -4l-31 -16q-63 -20 -70.5 -3.5zM597 633l262 26 q-35 101 -48 141q9 65 -10 84.5t-32.5 55.5t-19.5 53.5t-11 33.5q-67 -193 -141 -394zM700 1522l52 140l25 45l43 37l64 -37v-45h-8l-17 -47l-125 -131q-34 -16 -34 38z" />
<glyph unicode="&#xc2;" horiz-adv-x="1428" d="M32.5 16.5q-7.5 16.5 6.5 21.5l6 23q-11 8 -9.5 17.5t15.5 13.5q160 45 178 59.5t41 77t54 111t83 171.5q44 154 99 284t83 222.5t62 144.5t-44 137l61 98q124 6 151 12q8 3 20 3q11 0 13.5 -6.5t12.5 -33.5q92 -157 122 -229t46 -119l14 -56l-35 10l-14 -28l24 -46 l59 -18l31 -92l31 -92l103 -22l-40 -149l-37 -3q34 -110 55 -164.5t3 -110.5l86.5 -86.5t54.5 -30.5t33 -12.5t2 -32.5t-19 -39q-362 2 -385.5 1t-30.5 -1q-66 0 -70.5 6t-4.5 32t3 31.5t20 7.5q56 6 76.5 20.5t20.5 44.5q0 10 -3 26t-12 47t-25.5 83t-50.5 160 q-29 -2 -316 -23l-9 30q-29 -22 -67 -34q-26 -83 -42 -134t-25 -81t-11.5 -45t-2.5 -25q0 -67 104 -69l40 -26v-17q0 -26 -2.5 -32t-17.5 -6h-20q-10 0 -24 2l-180 2q-24 -8 -48 -8l-70 1l-18 11l-28 -14l-22 -10l-4 8l-25 -4l-31 -16q-63 -20 -70.5 -3.5zM505 1486l262 241 h19l259 -241l-45 -6l-219 136l-208 -136zM597 633l262 26q-35 101 -48 141q9 65 -10 84.5t-32.5 55.5t-19.5 53.5t-11 33.5q-67 -193 -141 -394z" />
<glyph unicode="&#xc3;" horiz-adv-x="1428" d="M32.5 16.5q-7.5 16.5 6.5 21.5l6 23q-11 8 -9.5 17.5t15.5 13.5q160 45 178 59.5t41 77t54 111t83 171.5q44 154 99 284t83 222.5t62 144.5t-44 137l61 98q124 6 151 12q8 3 20 3q11 0 13.5 -6.5t12.5 -33.5q92 -157 122 -229t46 -119l14 -56l-35 10l-14 -28l24 -46 l59 -18l31 -92l31 -92l103 -22l-40 -149l-37 -3q34 -110 55 -164.5t3 -110.5l86.5 -86.5t54.5 -30.5t33 -12.5t2 -32.5t-19 -39q-362 2 -385.5 1t-30.5 -1q-66 0 -70.5 6t-4.5 32t3 31.5t20 7.5q56 6 76.5 20.5t20.5 44.5q0 10 -3 26t-12 47t-25.5 83t-50.5 160 q-29 -2 -316 -23l-9 30q-29 -22 -67 -34q-26 -83 -42 -134t-25 -81t-11.5 -45t-2.5 -25q0 -67 104 -69l40 -26v-17q0 -26 -2.5 -32t-17.5 -6h-20q-10 0 -24 2l-180 2q-24 -8 -48 -8l-70 1l-18 11l-28 -14l-22 -10l-4 8l-25 -4l-31 -16q-63 -20 -70.5 -3.5zM423 1581l106 56 q43 -54 112 -65t127 35.5t165 27t169 -95.5l-49 -51q-77 53 -141 61.5t-132.5 -36.5t-144 -28.5t-212.5 96.5zM597 633l262 26q-35 101 -48 141q9 65 -10 84.5t-32.5 55.5t-19.5 53.5t-11 33.5q-67 -193 -141 -394z" />
<glyph unicode="&#xc4;" horiz-adv-x="1428" d="M32.5 16.5q-7.5 16.5 6.5 21.5l6 23q-11 8 -9.5 17.5t15.5 13.5q160 45 178 59.5t41 77t54 111t83 171.5q44 154 99 284t83 222.5t62 144.5t-44 137l61 98q124 6 151 12q8 3 20 3q11 0 13.5 -6.5t12.5 -33.5q92 -157 122 -229t46 -119l14 -56l-35 10l-14 -28l24 -46 l59 -18l31 -92l31 -92l103 -22l-40 -149l-37 -3q34 -110 55 -164.5t3 -110.5l86.5 -86.5t54.5 -30.5t33 -12.5t2 -32.5t-19 -39q-362 2 -385.5 1t-30.5 -1q-66 0 -70.5 6t-4.5 32t3 31.5t20 7.5q56 6 76.5 20.5t20.5 44.5q0 10 -3 26t-12 47t-25.5 83t-50.5 160 q-29 -2 -316 -23l-9 30q-29 -22 -67 -34q-26 -83 -42 -134t-25 -81t-11.5 -45t-2.5 -25q0 -67 104 -69l40 -26v-17q0 -26 -2.5 -32t-17.5 -6h-20q-10 0 -24 2l-180 2q-24 -8 -48 -8l-70 1l-18 11l-28 -14l-22 -10l-4 8l-25 -4l-31 -16q-63 -20 -70.5 -3.5zM523 1575 q26 49 64 64q43 -4 74 -43q0 -52 -11 -58l-18 -47q-28 -10 -48.5 -10.5t-40.5 10.5q-33 53 -20 84zM597 633l262 26q-35 101 -48 141q9 65 -10 84.5t-32.5 55.5t-19.5 53.5t-11 33.5q-67 -193 -141 -394zM878 1574q26 50 64 64q43 -3 74 -43q0 -52 -11 -58l-18 -47 q-28 -10 -48.5 -10.5t-40.5 10.5q-33 53 -20 84z" />
<glyph unicode="&#xc5;" horiz-adv-x="1428" d="M32.5 16.5q-7.5 16.5 6.5 21.5l6 23q-11 8 -9.5 17.5t15.5 13.5q160 45 178 59.5t41 77t54 111t83 171.5q44 154 99 284t83 222.5t62 144.5t-44 137l61 98q124 6 151 12q8 3 20 3q11 0 13.5 -6.5t12.5 -33.5q92 -157 122 -229t46 -119l14 -56l-35 10l-14 -28l24 -46 l59 -18l31 -92l31 -92l103 -22l-40 -149l-37 -3q34 -110 55 -164.5t3 -110.5l86.5 -86.5t54.5 -30.5t33 -12.5t2 -32.5t-19 -39q-362 2 -385.5 1t-30.5 -1q-66 0 -70.5 6t-4.5 32t3 31.5t20 7.5q56 6 76.5 20.5t20.5 44.5q0 10 -3 26t-12 47t-25.5 83t-50.5 160 q-29 -2 -316 -23l-9 30q-29 -22 -67 -34q-26 -83 -42 -134t-25 -81t-11.5 -45t-2.5 -25q0 -67 104 -69l40 -26v-17q0 -26 -2.5 -32t-17.5 -6h-20q-10 0 -24 2l-180 2q-24 -8 -48 -8l-70 1l-18 11l-28 -14l-22 -10l-4 8l-25 -4l-31 -16q-63 -20 -70.5 -3.5zM590 1593 q0 45 23.5 86.5t64.5 63.5t84 22q44 0 85 -22t64 -63.5t23 -86.5t-22.5 -85.5t-63.5 -63.5t-86 -23q-44 0 -85 23t-64 63.5t-23 85.5zM597 633l262 26q-35 101 -48 141q9 65 -10 84.5t-32.5 55.5t-19.5 53.5t-11 33.5q-67 -193 -141 -394zM633 1593q0 -33 17 -64t48 -48 t64 -17q34 0 65 17t48 48t17 64q0 34 -17.5 65t-48.5 47.5t-64 16.5q-32 0 -63 -16.5t-48.5 -47.5t-17.5 -65z" />
<glyph unicode="&#xc6;" horiz-adv-x="2058" d="M32.5 16.5q-7.5 16.5 6.5 21.5l6 23q-11 8 -9.5 17.5t15.5 13.5q177 45 195 59.5t41 53.5t54 111t83 195q68 160 116.5 278.5t82.5 207.5t56.5 153t-72.5 149l61 98q124 6 151 12q8 3 20 3q11 0 13.5 -6.5t12.5 -33.5q13 -23 25 -45l29 66l645 -6h24l41 -25l29 6h12 q105 19 282 25q-12 -149 2.5 -209t38.5 -160l-65 -61q-82 142 -138 192.5t-111 94.5t-198 61l-78 -17h-31l-31 -31v-31l-24 -61l24 -124v-247l258 -5h77q41 31 55.5 55.5t32.5 67.5h76l6 -417l-82 7q-6 72 -43 129t-133 57l-138 -2l-109 -3v-388q17 -106 40.5 -115.5 t76 -9.5t166.5 14v-26l-19 -19l48 -13l11 38q135 0 278 -19t187.5 -21t112.5 26t64.5 -40.5t-32.5 -68.5t-129 -11.5t-161 0t-184.5 11.5t-344.5 7q-35 1 -66 2q-2 -2 -5 -4q-222 1 -276 1q-31 -2 -60 -3q-58 -3 -147 -3l1 8q-4 1 -5 3q-4 6 -4 32t3 31.5t20 7.5 q56 6 76.5 20.5t20.5 44.5q0 10 -3 26t-12 47t-25.5 83t-50.5 160q-29 -2 -316 -23l-9 30q-29 -22 -67 -34q-26 -83 -42 -134t-25 -81t-11.5 -45t-2.5 -25q0 -67 104 -69l40 -26v-17q0 -26 -2.5 -32t-17.5 -6h-20q-10 0 -24 2l-180 2q-24 -8 -48 -8l-70 1l-18 11l-28 -14 l-22 -10l-4 8l-25 -4l-31 -16q-63 -20 -70.5 -3.5zM597 633l262 26q-35 101 -48 141q9 65 -10 84.5t-32.5 55.5t-19.5 53.5t-11 33.5q-67 -193 -141 -394zM900 1310q63 -110 87 -167q30 -72 46 -119l14 -56l-35 10l-14 -28l24 -46l59 -18l18 -55l2 1v19l17 12l18 5l12 -5h29 l6 12v26h-23q-24 -7 -71 -7l-11 155q-13 126 -27.5 166.5t-50.5 64.5q-32 22 -100 30z" />
<glyph unicode="&#xc7;" horiz-adv-x="1254" d="M25 811l67 89q15 71 62 162.5t129 186.5t177 141.5t169.5 57.5t191 6t263.5 26q-8 -123 -0.5 -191t17 -115t28.5 -73l-82 -41q-4 60 -28 119.5t-65 99t-91.5 60t-114 11t-149 -39.5t-91.5 -52t-54 -22l4 -64q-52 -71 -76.5 -134t-32 -128.5t-7.5 -168t17 -188t69 -153 t102.5 -125t127 -93t173 -46.5t171.5 0t119.5 35.5t107.5 94.5q0 -78 -31.5 -113.5t-113.5 -61.5t-174 -36q-46 -5 -91 -6l-25 -65q95 0 130 -68.5t4 -146.5q-72 -63 -111 -66.5t-94 -7t-111 98.5q56 -8 103.5 -20t102.5 2t55 53.5t-55 74.5t-115 -1q-56 -34 3 148 q-71 7 -140 29q-82 26 -140 63.5t-28 66.5l-93 23q-119 138 -149 207t-43 141.5t-13 158.5z" />
<glyph unicode="&#xc8;" horiz-adv-x="1226" d="M25 1326q81 -7 116.5 -31.5t50 -65t27.5 -166.5l11 -155q47 0 71 7h23v-26l-6 -12h-17h-12l-12 5l-18 -5l-17 -12v-19l-23 -13l5 -424q-5 -150 -23 -190.5t-44 -62t-109 -34.5l-6 -61q89 0 147.5 3t122 7t284.5 -3t344.5 -7t184.5 -11.5t161 0t129 11.5t32.5 68.5 t-64.5 40.5t-112.5 -26t-187.5 21t-278 19l-11 -38l-48 13l19 19v26q-114 -14 -166.5 -14t-76 9.5t-40.5 115.5v388l109 3l138 2q96 0 133 -57t43 -129l82 -7l-6 417h-76q-18 -43 -32.5 -67.5t-55.5 -55.5h-77l-258 5v247l-24 124l24 61v31l31 31h31l78 17q143 -17 198 -61 t111 -94.5t138 -192.5l65 61q-24 100 -38.5 160t-2.5 209q-177 -6 -282 -25h-12l-29 -6l-41 25h-24l-645 6zM498 1662v45l64 37l43 -37l25 -45l52 -140q0 -54 -34 -38l-125 131l-17 47h-8z" />
<glyph unicode="&#xc9;" horiz-adv-x="1226" d="M25 1326q81 -7 116.5 -31.5t50 -65t27.5 -166.5l11 -155q47 0 71 7h23v-26l-6 -12h-17h-12l-12 5l-18 -5l-17 -12v-19l-23 -13l5 -424q-5 -150 -23 -190.5t-44 -62t-109 -34.5l-6 -61q89 0 147.5 3t122 7t284.5 -3t344.5 -7t184.5 -11.5t161 0t129 11.5t32.5 68.5 t-64.5 40.5t-112.5 -26t-187.5 21t-278 19l-11 -38l-48 13l19 19v26q-114 -14 -166.5 -14t-76 9.5t-40.5 115.5v388l109 3l138 2q96 0 133 -57t43 -129l82 -7l-6 417h-76q-18 -43 -32.5 -67.5t-55.5 -55.5h-77l-258 5v247l-24 124l24 61v31l31 31h31l78 17q143 -17 198 -61 t111 -94.5t138 -192.5l65 61q-24 100 -38.5 160t-2.5 209q-177 -6 -282 -25h-12l-29 -6l-41 25h-24l-645 6zM557 1522l52 140l25 45l43 37l64 -37v-45h-8l-17 -47l-125 -131q-34 -16 -34 38z" />
<glyph unicode="&#xca;" horiz-adv-x="1226" d="M25 1326q81 -7 116.5 -31.5t50 -65t27.5 -166.5l11 -155q47 0 71 7h23v-26l-6 -12h-17h-12l-12 5l-18 -5l-17 -12v-19l-23 -13l5 -424q-5 -150 -23 -190.5t-44 -62t-109 -34.5l-6 -61q89 0 147.5 3t122 7t284.5 -3t344.5 -7t184.5 -11.5t161 0t129 11.5t32.5 68.5 t-64.5 40.5t-112.5 -26t-187.5 21t-278 19l-11 -38l-48 13l19 19v26q-114 -14 -166.5 -14t-76 9.5t-40.5 115.5v388l109 3l138 2q96 0 133 -57t43 -129l82 -7l-6 417h-76q-18 -43 -32.5 -67.5t-55.5 -55.5h-77l-258 5v247l-24 124l24 61v31l31 31h31l78 17q143 -17 198 -61 t111 -94.5t138 -192.5l65 61q-24 100 -38.5 160t-2.5 209q-177 -6 -282 -25h-12l-29 -6l-41 25h-24l-645 6zM345 1486l262 241h19l259 -241l-45 -6l-219 136l-208 -136z" />
<glyph unicode="&#xcb;" horiz-adv-x="1226" d="M25 1326q81 -7 116.5 -31.5t50 -65t27.5 -166.5l11 -155q47 0 71 7h23v-26l-6 -12h-17h-12l-12 5l-18 -5l-17 -12v-19l-23 -13l5 -424q-5 -150 -23 -190.5t-44 -62t-109 -34.5l-6 -61q89 0 147.5 3t122 7t284.5 -3t344.5 -7t184.5 -11.5t161 0t129 11.5t32.5 68.5 t-64.5 40.5t-112.5 -26t-187.5 21t-278 19l-11 -38l-48 13l19 19v26q-114 -14 -166.5 -14t-76 9.5t-40.5 115.5v388l109 3l138 2q96 0 133 -57t43 -129l82 -7l-6 417h-76q-18 -43 -32.5 -67.5t-55.5 -55.5h-77l-258 5v247l-24 124l24 61v31l31 31h31l78 17q143 -17 198 -61 t111 -94.5t138 -192.5l65 61q-24 100 -38.5 160t-2.5 209q-177 -6 -282 -25h-12l-29 -6l-41 25h-24l-645 6zM362 1575q26 50 64 64q43 -3 74 -43q0 -52 -11 -58l-18 -47q-28 -10 -48.5 -10t-40.5 10q-33 53 -20 84zM717 1574q26 50 64 64q43 -3 74 -43q0 -52 -11 -58 l-18 -47q-28 -10 -48.5 -10t-40.5 10q-33 53 -20 84z" />
<glyph unicode="&#xcc;" horiz-adv-x="587" d="M25 1320l12 87l282 -8l62 -42l37 29l132 6l-13 -56q-69 -16 -88 -52t-31 -167v-197l-18 -42h-26l-50 -66l26 -37v-34l42 -22h21v-45l17 -427q8 -94 63 -130l69 -13v-59q-249 14 -500 0l-6 72q62 8 81.5 33.5t25.5 112.5l-6 918q-26 79 -44.5 109t-87.5 30zM182 1662v45 l64 37l43 -37l25 -45l52 -140q0 -54 -34 -38l-125 131l-17 47h-8z" />
<glyph unicode="&#xcd;" horiz-adv-x="587" d="M25 1320l12 87l282 -8l62 -42l37 29l132 6l-13 -56q-69 -16 -88 -52t-31 -167v-197l-18 -42h-26l-50 -66l26 -37v-34l42 -22h21v-45l17 -427q8 -94 63 -130l69 -13v-59q-249 14 -500 0l-6 72q62 8 81.5 33.5t25.5 112.5l-6 918q-26 79 -44.5 109t-87.5 30zM228 1522 l52 140l25 45l43 37l64 -37v-45h-8l-17 -47l-125 -131q-34 -16 -34 38z" />
<glyph unicode="&#xce;" horiz-adv-x="587" d="M25 1320l12 87l282 -8l62 -42l37 29l132 6l-13 -56q-69 -16 -88 -52t-31 -167v-197l-18 -42h-26l-50 -66l26 -37v-34l42 -22h21v-45l17 -427q8 -94 63 -130l69 -13v-59q-249 14 -500 0l-6 72q62 8 81.5 33.5t25.5 112.5l-6 918q-26 79 -44.5 109t-87.5 30zM30 1485 l262 241h19l259 -241l-45 -6l-219 136l-208 -136z" />
<glyph unicode="&#xcf;" horiz-adv-x="587" d="M25 1320l12 87l282 -8l62 -42l37 29l132 6l-13 -56q-69 -16 -88 -52t-31 -167v-197l-18 -42h-26l-50 -66l26 -37v-34l42 -22h21v-45l17 -427q8 -94 63 -130l69 -13v-59q-249 14 -500 0l-6 72q62 8 81.5 33.5t25.5 112.5l-6 918q-26 79 -44.5 109t-87.5 30zM47 1575 q26 50 64 64q43 -3 74 -43q0 -52 -11 -58l-18 -47q-28 -10 -48.5 -10t-40.5 10q-33 53 -20 84zM402 1574q26 50 64 64q43 -3 74 -43q0 -52 -11 -58l-18 -47q-28 -10 -48.5 -10t-40.5 10q-33 53 -20 84z" />
<glyph unicode="&#xd0;" />
<glyph unicode="&#xd1;" horiz-adv-x="1633" d="M25 1481q69 87 143 108.5t195 -17.5t249 -163t249.5 -322t343.5 -615l14 649q-14 127 -41 149t-115 50v71l72 -10l92 -16q86 26 335 26l-8 -50q-73 -14 -106.5 -39t-60.5 -144l-5 -940l-1 -112q68 -161 118 -228.5t97 -74t80.5 25t57.5 20.5t13.5 -49.5t-47.5 -67 t-128 -20.5t-168 53q-73 42 -184 160q-7 8 -14 15q-121 130 -102 193l40 36l-12 50l-42 -8l-12 -21l-15 -14h-33v21q-196 360 -471 854l18 -776q14 -119 31 -133.5t111 -21.5l-5 -70h-446l6 49q62 28 85.5 42.5t36.5 141.5l15 482l-19 259l-1 247q-42 98 -103 133t-111.5 60 t-151.5 17zM540 1581l22 16q127 -15 196 -25.5t127 36t165 27t169 -96.5q-122 12 -188 16t-134.5 -41t-144 -29t-212.5 97z" />
<glyph unicode="&#xd2;" horiz-adv-x="1334" d="M25 812q61 113 92 219q73 170 172 276q127 142 324 142q107 0 305 -21v-7q-127 -80 -270 -80q-168 -29 -168 -48q-56 -23 -102 -125q-89 -149 -89 -404v-18q0 -264 98 -387q103 -169 210 -197q33 -15 69 -21t91.5 13.5t141.5 77.5q12 34 45 34h6v38l-3 15q95 133 95 338 l3 52q0 230 -92 356q-98 150 -219 172l-172 38q-41 -6 -41 18q0 25 165 25q192 0 318 -94l3 -17v-6l-6 -11q92 -18 92 -44q94 -116 118 -191q22 -77 44 -197l54 -110q-64 -81 -70 -129q-32 -122 -155 -280q-142 -173 -385 -191q-115 0 -264 55q-108 59 -108 94v3l6 21 q-88 16 -88 42q-133 175 -144 310l-19 142zM507 1662v45l64 37l43 -37l25 -45l52 -140q0 -54 -34 -38l-125 131l-17 47h-8z" />
<glyph unicode="&#xd3;" horiz-adv-x="1334" d="M25 812q61 113 92 219q73 170 172 276q127 142 324 142q107 0 305 -21v-7q-127 -80 -270 -80q-168 -29 -168 -48q-56 -23 -102 -125q-89 -149 -89 -404v-18q0 -264 98 -387q103 -169 210 -197q33 -15 69 -21t91.5 13.5t141.5 77.5q12 34 45 34h6v38l-3 15q95 133 95 338 l3 52q0 230 -92 356q-98 150 -219 172l-172 38q-41 -6 -41 18q0 25 165 25q192 0 318 -94l3 -17v-6l-6 -11q92 -18 92 -44q94 -116 118 -191q22 -77 44 -197l54 -110q-64 -81 -70 -129q-32 -122 -155 -280q-142 -173 -385 -191q-115 0 -264 55q-108 59 -108 94v3l6 21 q-88 16 -88 42q-133 175 -144 310l-19 142zM589 1522l52 140l25 45l43 37l64 -37v-45h-8l-17 -47l-125 -131q-34 -16 -34 38z" />
<glyph unicode="&#xd4;" horiz-adv-x="1334" d="M25 812q61 113 92 219q73 170 172 276q127 142 324 142q107 0 305 -21v-7q-127 -80 -270 -80q-168 -29 -168 -48q-56 -23 -102 -125q-89 -149 -89 -404v-18q0 -264 98 -387q103 -169 210 -197q33 -15 69 -21t91.5 13.5t141.5 77.5q12 34 45 34h6v38l-3 15q95 133 95 338 l3 52q0 230 -92 356q-98 150 -219 172l-172 38q-41 -6 -41 18q0 25 165 25q192 0 318 -94l3 -17v-6l-6 -11q92 -18 92 -44q94 -116 118 -191q22 -77 44 -197l54 -110q-64 -81 -70 -129q-32 -122 -155 -280q-142 -173 -385 -191q-115 0 -264 55q-108 59 -108 94v3l6 21 q-88 16 -88 42q-133 175 -144 310l-19 142zM373 1486l262 241h19l259 -241l-45 -6l-219 136l-208 -136z" />
<glyph unicode="&#xd5;" horiz-adv-x="1334" d="M25 812q61 113 92 219q73 170 172 276q127 142 324 142q107 0 305 -21v-7q-127 -80 -270 -80q-168 -29 -168 -48q-56 -23 -102 -125q-89 -149 -89 -404v-18q0 -264 98 -387q103 -169 210 -197q33 -15 69 -21t91.5 13.5t141.5 77.5q12 34 45 34h6v38l-3 15q95 133 95 338 l3 52q0 230 -92 356q-98 150 -219 172l-172 38q-41 -6 -41 18q0 25 165 25q192 0 318 -94l3 -17v-6l-6 -11q92 -18 92 -44q94 -116 118 -191q22 -77 44 -197l54 -110q-64 -81 -70 -129q-32 -122 -155 -280q-142 -173 -385 -191q-115 0 -264 55q-108 59 -108 94v3l6 21 q-88 16 -88 42q-133 175 -144 310l-19 142zM324 1581l106 56q43 -54 112 -65t127 35.5t165 27t169 -95.5l-49 -51q-77 53 -141 61.5t-132.5 -36.5t-144 -28.5t-212.5 96.5z" />
<glyph unicode="&#xd6;" horiz-adv-x="1334" d="M25 812q61 113 92 219q73 170 172 276q127 142 324 142q107 0 305 -21v-7q-127 -80 -270 -80q-168 -29 -168 -48q-56 -23 -102 -125q-89 -149 -89 -404v-18q0 -264 98 -387q103 -169 210 -197q33 -15 69 -21t91.5 13.5t141.5 77.5q12 34 45 34h6v38l-3 15q95 133 95 338 l3 52q0 230 -92 356q-98 150 -219 172l-172 38q-41 -6 -41 18q0 25 165 25q192 0 318 -94l3 -17v-6l-6 -11q92 -18 92 -44q94 -116 118 -191q22 -77 44 -197l54 -110q-64 -81 -70 -129q-32 -122 -155 -280q-142 -173 -385 -191q-115 0 -264 55q-108 59 -108 94v3l6 21 q-88 16 -88 42q-133 175 -144 310l-19 142zM421 1575q26 49 64 64q43 -4 74 -43q0 -52 -11 -58l-18 -47q-28 -10 -48.5 -10.5t-40.5 10.5q-33 53 -20 84zM776 1574q26 49 64 64q43 -4 74 -43q0 -52 -11 -58l-18 -47q-28 -10 -48.5 -10.5t-40.5 10.5q-33 53 -20 84z" />
<glyph unicode="&#xd7;" />
<glyph unicode="&#xd8;" />
<glyph unicode="&#xd9;" horiz-adv-x="1305" d="M25 1365q0 24 4 33t17 9q121 -6 157 -18.5t164 -6t205 21.5q36 2 36 -32q0 -40 -7 -46t-45 -9q-84 -28 -107 -59t-24 -120l-4 -116l-2 -238l-17 -88l17 -74q-13 -105 -14.5 -151t20.5 -74t35 -54q28 -88 92.5 -109t154.5 -21q97 0 171.5 41.5t103.5 114.5q21 47 28.5 106 t7.5 171l-5 505q-8 64 -31 88t-95 72q-29 3 -56 11q-4 4 20 74h13q13 -2 128 -33l76 3q63 -10 123 -21q48 24 75 27q14 0 12 -42t-32 -47q-91 -14 -95 -348l-53 -96l39 -67l8 -136q-7 -113 -10.5 -150.5t-11.5 -74.5q-34 -181 -158 -276t-323 -95q-165 0 -266 85 q-125 50 -162 173q-8 23 -12.5 43t-8 45.5t-5.5 64t-3 164.5l-2 187l6 188l47 24l11 78l-65 77q-3 46 -7 59t-10 26q-9 22 -39.5 42.5t-81.5 25.5q-13 2 -19 43zM608 1662v45l64 37l43 -37l25 -45l52 -140q0 -54 -34 -38l-125 131l-17 47h-8z" />
<glyph unicode="&#xda;" horiz-adv-x="1305" d="M25 1365q0 24 4 33t17 9q121 -6 157 -18.5t164 -6t205 21.5q36 2 36 -32q0 -40 -7 -46t-45 -9q-84 -28 -107 -59t-24 -120l-4 -116l-2 -238l-17 -88l17 -74q-13 -105 -14.5 -151t20.5 -74t35 -54q28 -88 92.5 -109t154.5 -21q97 0 171.5 41.5t103.5 114.5q21 47 28.5 106 t7.5 171l-5 505q-8 64 -31 88t-95 72q-29 3 -56 11q-4 4 20 74h13q13 -2 128 -33l76 3q63 -10 123 -21q48 24 75 27q14 0 12 -42t-32 -47q-91 -14 -95 -348l-53 -96l39 -67l8 -136q-7 -113 -10.5 -150.5t-11.5 -74.5q-34 -181 -158 -276t-323 -95q-165 0 -266 85 q-125 50 -162 173q-8 23 -12.5 43t-8 45.5t-5.5 64t-3 164.5l-2 187l6 188l47 24l11 78l-65 77q-3 46 -7 59t-10 26q-9 22 -39.5 42.5t-81.5 25.5q-13 2 -19 43zM640 1522l52 140l25 45l43 37l64 -37v-45h-8l-17 -47l-125 -131q-34 -16 -34 38z" />
<glyph unicode="&#xdb;" horiz-adv-x="1305" d="M25 1365q0 24 4 33t17 9q121 -6 157 -18.5t164 -6t205 21.5q36 2 36 -32q0 -40 -7 -46t-45 -9q-84 -28 -107 -59t-24 -120l-4 -116l-2 -238l-17 -88l17 -74q-13 -105 -14.5 -151t20.5 -74t35 -54q28 -88 92.5 -109t154.5 -21q97 0 171.5 41.5t103.5 114.5q21 47 28.5 106 t7.5 171l-5 505q-8 64 -31 88t-95 72q-29 3 -56 11q-4 4 20 74h13q13 -2 128 -33l76 3q63 -10 123 -21q48 24 75 27q14 0 12 -42t-32 -47q-91 -14 -95 -348l-53 -96l39 -67l8 -136q-7 -113 -10.5 -150.5t-11.5 -74.5q-34 -181 -158 -276t-323 -95q-165 0 -266 85 q-125 50 -162 173q-8 23 -12.5 43t-8 45.5t-5.5 64t-3 164.5l-2 187l6 188l47 24l11 78l-65 77q-3 46 -7 59t-10 26q-9 22 -39.5 42.5t-81.5 25.5q-13 2 -19 43zM443 1486l262 241h19l259 -241l-45 -6l-219 136l-208 -136z" />
<glyph unicode="&#xdc;" horiz-adv-x="1305" d="M25 1365q0 24 4 33t17 9q121 -6 157 -18.5t164 -6t205 21.5q36 2 36 -32q0 -40 -7 -46t-45 -9q-84 -28 -107 -59t-24 -120l-4 -116l-2 -238l-17 -88l17 -74q-13 -105 -14.5 -151t20.5 -74t35 -54q28 -88 92.5 -109t154.5 -21q97 0 171.5 41.5t103.5 114.5q21 47 28.5 106 t7.5 171l-5 505q-8 64 -31 88t-95 72q-29 3 -56 11q-4 4 20 74h13q13 -2 128 -33l76 3q63 -10 123 -21q48 24 75 27q14 0 12 -42t-32 -47q-91 -14 -95 -348l-53 -96l39 -67l8 -136q-7 -113 -10.5 -150.5t-11.5 -74.5q-34 -181 -158 -276t-323 -95q-165 0 -266 85 q-125 50 -162 173q-8 23 -12.5 43t-8 45.5t-5.5 64t-3 164.5l-2 187l6 188l47 24l11 78l-65 77q-3 46 -7 59t-10 26q-9 22 -39.5 42.5t-81.5 25.5q-13 2 -19 43zM465 1574q26 50 64 64q43 -3 74 -43q0 -52 -11 -58l-18 -47q-28 -10 -48.5 -10t-40.5 10q-33 53 -20 84z M820 1574q26 49 64 64q43 -4 74 -43q0 -52 -11 -58l-18 -47q-28 -11 -48.5 -11t-40.5 11q-33 53 -20 84z" />
<glyph unicode="&#xdd;" />
<glyph unicode="&#xde;" />
<glyph unicode="&#xdf;" horiz-adv-x="991" d="M-249 -177.5q-9 48.5 11.5 62.5t49.5 -25.5t70 -31.5t84 93q42 84 100 283l2 22l-1 71l2 -1v436h20v5l-5 6v5q22 10 25 20v15q-15 0 -15 10q11 0 15 26h-5l-35 -5v173l15 191q59 233 336 272q366 0 491 -310l9 -21q8 -21 31 -30q0 -27 -49.5 -115t-111 -116.5 t-85.5 -28.5v-20q86 -56 124.5 -107.5t91.5 -182.5l45 -82q-69 -130 -69 -165q-88 -145 -127 -145l-5 -5q-10 0 -10 -16h-30q0 -30 -20 -30q-99 -21 -266 8l-30 21l3 60q2 43 53 43q133 0 220 112q20 68 43 118l-23 30q0 132 -135 249q-130 76 -196 76h-10v11q32 112 81 112 q64 -31 95 -31q89 0 120 188l17 32q-17 131 -197 208q-188 -35 -188 -205l-7 -162l-1 -499q0 -161 -33 -327l-45 -111q-33 -84 -64 -130.5t-94 -99.5q-67 -56 -145.5 -66.5t-110.5 25.5t-41 84.5z" />
<glyph unicode="&#xe0;" horiz-adv-x="805" d="M-155 100l28 32l24 2l21 2l22 2q19 2 39 22l19 20l19 20q20 21 37 62l16 41l17 40q16 41 20 96l5 55l13 48l-5 61l-1 9l-20 13l-10 13q-11 11 -9 23l2 11l2 12q2 13 22 12l15 -1l15 -1l11 -1l9 15l10 12l9 23q22 14 32 42l21 25l22 24q22 26 44 30l22 27l24 18 q22 16 46 16h20h22l28 -9l70 9l71 -9l87 9h85v-21v-22h-32h-26l-14 -12q-15 -13 -19 -46l-4 -35l-16 -6l-8 8l-4 -14l-8 -5l6 -18l4 -29l8 -6q7 -18 0 -25l-7 -7l-6 -6l-5 -7l9 -8l5 -16l10 1l12 -11v-45v-45l-6 -48l6 -42l-6 -58l6 -52l13 -30q11 -30 38 -49l24 -20h12h19 l-6 -21l-5 -19l-166 -2l-82 -1l-89 -1l15 11l-12 10v9v11l14 1l9 1l13 1q11 -8 20 -6v17l11 8q7 4 9 14l2 11l2 10l2 10l-1 50l-1 51l-1 50l-1 49l-58 14l-62 15l-61 15l-56 14l-1 -18l-14 -16l-5 -30l2 -22l1 -29l-13 -33l-2 -32l-8 -33l-25 -30l-20 -27l-27 -34 q-24 -30 -48 -53l-23 -22l-25 -24q-23 -23 -48 -34l-23 -12l-24 -11q-25 -13 -74 -13h-54zM306 699l6 -9l5 -9l6 -10l21 -5l12 -19l16 -2q31 7 58 -1l27 -8l25 -9l19 -6v54l9 58l-9 57v56l-18 2l-21 3l-22 2q-19 2 -38 -14l-28 -9l-11 -24q-20 -17 -31 -38l-11 -20l-11 -20 q-10 -19 -4 -29zM355 1225v47l69 41l47 -41l26 -45l52 -140q0 -59 -43 -39l-126 132l-17 45h-8z" />
<glyph unicode="&#xe1;" horiz-adv-x="805" d="M-155 100l28 32l24 2l21 2l22 2q19 2 39 22l19 20l19 20q20 21 37 62l16 41l17 40q16 41 20 96l5 55l13 48l-5 61l-1 9l-20 13l-10 13q-11 11 -9 23l2 11l2 12q2 13 22 12l15 -1l15 -1l11 -1l9 15l10 12l9 23q22 14 32 42l21 25l22 24q22 26 44 30l22 27l24 18 q22 16 46 16h20h22l28 -9l70 9l71 -9l87 9h85v-21v-22h-32h-26l-14 -12q-15 -13 -19 -46l-4 -35l-16 -6l-8 8l-4 -14l-8 -5l6 -18l4 -29l8 -6q7 -18 0 -25l-7 -7l-6 -6l-5 -7l9 -8l5 -16l10 1l12 -11v-45v-45l-6 -48l6 -42l-6 -58l6 -52l13 -30q11 -30 38 -49l24 -20h12h19 l-6 -21l-5 -19l-166 -2l-82 -1l-89 -1l15 11l-12 10v9v11l14 1l9 1l13 1q11 -8 20 -6v17l11 8q7 4 9 14l2 11l2 10l2 10l-1 50l-1 51l-1 50l-1 49l-58 14l-62 15l-61 15l-56 14l-1 -18l-14 -16l-5 -30l2 -22l1 -29l-13 -33l-2 -32l-8 -33l-25 -30l-20 -27l-27 -34 q-24 -30 -48 -53l-23 -22l-25 -24q-23 -23 -48 -34l-23 -12l-24 -11q-25 -13 -74 -13h-54zM306 699l6 -9l5 -9l6 -10l21 -5l12 -19l16 -2q31 7 58 -1l27 -8l25 -9l19 -6v54l9 58l-9 57v56l-18 2l-21 3l-22 2q-19 2 -38 -14l-28 -9l-11 -24q-20 -17 -31 -38l-11 -20l-11 -20 q-10 -19 -4 -29zM390 1086l52 140l25 45l47 41l70 -41v-47h-9l-16 -45l-126 -132q-43 -20 -43 39z" />
<glyph unicode="&#xe2;" horiz-adv-x="805" d="M-155 100l28 32l24 2l21 2l22 2q19 2 39 22l19 20l19 20q20 21 37 62l16 41l17 40q16 41 20 96l5 55l13 48l-5 61l-1 9l-20 13l-10 13q-11 11 -9 23l2 11l2 12q2 13 22 12l15 -1l15 -1l11 -1l9 15l10 12l9 23q22 14 32 42l21 25l22 24q22 26 44 30l22 27l24 18 q22 16 46 16h20h22l28 -9l70 9l71 -9l87 9h85v-21v-22h-32h-26l-14 -12q-15 -13 -19 -46l-4 -35l-16 -6l-8 8l-4 -14l-8 -5l6 -18l4 -29l8 -6q7 -18 0 -25l-7 -7l-6 -6l-5 -7l9 -8l5 -16l10 1l12 -11v-45v-45l-6 -48l6 -42l-6 -58l6 -52l13 -30q11 -30 38 -49l24 -20h12h19 l-6 -21l-5 -19l-166 -2l-82 -1l-89 -1l15 11l-12 10v9v11l14 1l9 1l13 1q11 -8 20 -6v17l11 8q7 4 9 14l2 11l2 10l2 10l-1 50l-1 51l-1 50l-1 49l-58 14l-62 15l-61 15l-56 14l-1 -18l-14 -16l-5 -30l2 -22l1 -29l-13 -33l-2 -32l-8 -33l-25 -30l-20 -27l-27 -34 q-24 -30 -48 -53l-23 -22l-25 -24q-23 -23 -48 -34l-23 -12l-24 -11q-25 -13 -74 -13h-54zM194 1058l266 244h24l263 -244l-53 -7l-217 135l-206 -135zM306 699l6 -9l5 -9l6 -10l21 -5l12 -19l16 -2q31 7 58 -1l27 -8l25 -9l19 -6v54l9 58l-9 57v56l-18 2l-21 3l-22 2 q-19 2 -38 -14l-28 -9l-11 -24q-20 -17 -31 -38l-11 -20l-11 -20q-10 -19 -4 -29z" />
<glyph unicode="&#xe3;" horiz-adv-x="805" d="M-155 100l28 32l24 2l21 2l22 2q19 2 39 22l19 20l19 20q20 21 37 62l16 41l17 40q16 41 20 96l5 55l13 48l-5 61l-1 9l-20 13l-10 13q-11 11 -9 23l2 11l2 12q2 13 22 12l15 -1l15 -1l11 -1l9 15l10 12l9 23q22 14 32 42l21 25l22 24q22 26 44 30l22 27l24 18 q22 16 46 16h20h22l28 -9l70 9l71 -9l87 9h85v-21v-22h-32h-26l-14 -12q-15 -13 -19 -46l-4 -35l-16 -6l-8 8l-4 -14l-8 -5l6 -18l4 -29l8 -6q7 -18 0 -25l-7 -7l-6 -6l-5 -7l9 -8l5 -16l10 1l12 -11v-45v-45l-6 -48l6 -42l-6 -58l6 -52l13 -30q11 -30 38 -49l24 -20h12h19 l-6 -21l-5 -19l-166 -2l-82 -1l-89 -1l15 11l-12 10v9v11l14 1l9 1l13 1q11 -8 20 -6v17l11 8q7 4 9 14l2 11l2 10l2 10l-1 50l-1 51l-1 50l-1 49l-58 14l-62 15l-61 15l-56 14l-1 -18l-14 -16l-5 -30l2 -22l1 -29l-13 -33l-2 -32l-8 -33l-25 -30l-20 -27l-27 -34 q-24 -30 -48 -53l-23 -22l-25 -24q-23 -23 -48 -34l-23 -12l-24 -11q-25 -13 -74 -13h-54zM75 1241l113 60q45 -57 111.5 -67.5t124.5 36t167.5 26.5t173.5 -98l-54 -55q-80 56 -142 64.5t-130.5 -36.5t-146 -29t-217.5 99zM306 699l6 -9l5 -9l6 -10l21 -5l12 -19l16 -2 q31 7 58 -1l27 -8l25 -9l19 -6v54l9 58l-9 57v56l-18 2l-21 3l-22 2q-19 2 -38 -14l-28 -9l-11 -24q-20 -17 -31 -38l-11 -20l-11 -20q-10 -19 -4 -29z" />
<glyph unicode="&#xe4;" horiz-adv-x="805" d="M-155 100l28 32l24 2l21 2l22 2q19 2 39 22l19 20l19 20q20 21 37 62l16 41l17 40q16 41 20 96l5 55l13 48l-5 61l-1 9l-20 13l-10 13q-11 11 -9 23l2 11l2 12q2 13 22 12l15 -1l15 -1l11 -1l9 15l10 12l9 23q22 14 32 42l21 25l22 24q22 26 44 30l22 27l24 18 q22 16 46 16h20h22l28 -9l70 9l71 -9l87 9h85v-21v-22h-32h-26l-14 -12q-15 -13 -19 -46l-4 -35l-16 -6l-8 8l-4 -14l-8 -5l6 -18l4 -29l8 -6q7 -18 0 -25l-7 -7l-6 -6l-5 -7l9 -8l5 -16l10 1l12 -11v-45v-45l-6 -48l6 -42l-6 -58l6 -52l13 -30q11 -30 38 -49l24 -20h12h19 l-6 -21l-5 -19l-166 -2l-82 -1l-89 -1l15 11l-12 10v9v11l14 1l9 1l13 1q11 -8 20 -6v17l11 8q7 4 9 14l2 11l2 10l2 10l-1 50l-1 51l-1 50l-1 49l-58 14l-62 15l-61 15l-56 14l-1 -18l-14 -16l-5 -30l2 -22l1 -29l-13 -33l-2 -32l-8 -33l-25 -30l-20 -27l-27 -34 q-24 -30 -48 -53l-23 -22l-25 -24q-23 -23 -48 -34l-23 -12l-24 -11q-25 -13 -74 -13h-54zM170 1140q26 51 67 66q48 -3 81 -45q0 -52 -12 -58l-18 -48q-31 -11 -53 -11t-45 11q-33 54 -20 85zM306 699l6 -9l5 -9l6 -10l21 -5l12 -19l16 -2q31 7 58 -1l27 -8l25 -9l19 -6v54 l9 58l-9 57v56l-18 2l-21 3l-22 2q-19 2 -38 -14l-28 -9l-11 -24q-20 -17 -31 -38l-11 -20l-11 -20q-10 -19 -4 -29zM525 1139q26 51 67 66q48 -3 81 -45q0 -52 -12 -58l-18 -48q-31 -11 -53 -11t-45 11q-33 54 -20 85z" />
<glyph unicode="&#xe5;" horiz-adv-x="805" d="M-155 100l28 32l24 2l21 2l22 2q19 2 39 22l19 20l19 20q20 21 37 62l16 41l17 40q16 41 20 96l5 55l13 48l-5 61l-1 9l-20 13l-10 13q-11 11 -9 23l2 11l2 12q2 13 22 12l15 -1l15 -1l11 -1l9 15l10 12l9 23q22 14 32 42l21 25l22 24q22 26 44 30l22 27l24 18 q22 16 46 16h20h22l28 -9l70 9l71 -9l87 9h85v-21v-22h-32h-26l-14 -12q-15 -13 -19 -46l-4 -35l-16 -6l-8 8l-4 -14l-8 -5l6 -18l4 -29l8 -6q7 -18 0 -25l-7 -7l-6 -6l-5 -7l9 -8l5 -16l10 1l12 -11v-45v-45l-6 -48l6 -42l-6 -58l6 -52l13 -30q11 -30 38 -49l24 -20h12h19 l-6 -21l-5 -19l-166 -2l-82 -1l-89 -1l15 11l-12 10v9v11l14 1l9 1l13 1q11 -8 20 -6v17l11 8q7 4 9 14l2 11l2 10l2 10l-1 50l-1 51l-1 50l-1 49l-58 14l-62 15l-61 15l-56 14l-1 -18l-14 -16l-5 -30l2 -22l1 -29l-13 -33l-2 -32l-8 -33l-25 -30l-20 -27l-27 -34 q-24 -30 -48 -53l-23 -22l-25 -24q-23 -23 -48 -34l-23 -12l-24 -11q-25 -13 -74 -13h-54zM298 1128q0 45 23.5 87t66 64.5t87.5 22.5q46 0 88 -22.5t65.5 -64.5t23.5 -87t-23 -86t-65 -64.5t-89 -23.5q-46 0 -88.5 23.5t-65.5 64.5t-23 86zM306 699l6 -9l5 -9l6 -10l21 -5 l12 -19l16 -2q31 7 58 -1l27 -8l25 -9l19 -6v54l9 58l-9 57v56l-18 2l-21 3l-22 2q-19 2 -38 -14l-28 -9l-11 -24q-20 -17 -31 -38l-11 -20l-11 -20q-10 -19 -4 -29zM351 1128q0 -34 16.5 -64t46.5 -46.5t61 -16.5q32 0 61.5 16.5t46.5 46.5t17 64t-17.5 64.5t-47 46.5 t-60.5 16q-30 0 -60 -16t-47 -46.5t-17 -64.5z" />
<glyph unicode="&#xe6;" horiz-adv-x="1095" d="M-155 102l24 28l22 2l21 2l22 2q21 2 41 23l20 21l20 20q20 21 37 62l16 41l17 40q16 41 20 96l5 55l13 48l-5 61l-1 9l-20 14l-10 12q-11 11 -9 23l2 11l2 12q2 11 17 10l15 -1l15 -1l15 -1l10 17l10 12l9 23q22 14 32 42l21 25l22 24q21 25 43 29l23 28l22 16 q22 16 43 16h41l29 -9l19 2v1h4l47 6l71 -9l88 9h79v-8l63 1l153 1l-7 -54l11 -54l11 -57l10 -57l-10 -3l-11 -3l-14 21l-15 21l-17 34l-18 34l-28 28l-28 28l-20 8l-39 1l-37 2l-38 1l-15 -5l-16 -6l-5 -12l-6 -12v-237l50 2l50 1l27 3q26 3 40 11t18 28l4 19l4 12l3 11 l18 -9l17 -10v-222l-19 -1l-20 -2l-5 31q-6 30 -43 45q-38 15 -67 20l-30 5h-47v-232q8 -13 19 -25l40 1l58 -8l42 5l41 -5l52 -11l51 -12l41 -15l58 3l27 -9l51 -4l43 2q43 1 60 9l16 8l12 -18l11 -1l17 -13l16 -14l-28 -3q-28 -4 -69 -7l-42 -3l-64 5l-64 5l-116 5l-116 5 l-99 -3q-100 -4 -196 -10l-96 -7l2 22h-15l12 9l-12 10v18l10 1l9 1l10 1q6 -4 12 -5l15 8v10l9 6q9 6 11 16l2 11l2 10l2 10l-1 50l-1 51l-1 50l-1 50l-61 15l-62 15l-61 15l-62 15l-2 -21l-14 -16l-5 -30l2 -22l1 -29l-13 -33l-2 -32l-8 -33l-24 -30l-20 -27l-27 -34 q-24 -30 -48 -53l-23 -22l-24 -23q-24 -23 -48 -34l-23 -12l-24 -11q-24 -12 -71 -12h-47zM294 699l6 -9l6 -10l6 -10l21 -5l12 -20l21 -2q30 7 56 -1l26 -8l25 -9l26 -8v58l9 58l-9 57v58l-22 2l-21 3l-22 2q-22 2 -42 -15l-29 -9l-11 -25q-20 -17 -31 -37l-11 -20l-11 -20 q-11 -20 -5 -30z" />
<glyph unicode="&#xe7;" horiz-adv-x="720" d="M25 535l18 36q0 36 20 105q19 69 69 125t117 90q68 34 96 31l51 -6l21 -8q21 7 39 10q21 3 27 -13q18 -3 29 8q13 -3 17 -3h8q2 0 12 2t21 5q9 3 17 6q9 2 11 2h4q4 0 10 -4q5 -5 5 -11v-8q0 -3 -1 -8q-2 -6 -16 -27q15 -15 9 -29l-7 -14l5 -10l4 -11l6 -34q5 -34 7 -41 q1 -8 1 -13v-5l-7 -9q-6 -8 -22 -13l-16 -5h-5q-8 0 -12 11q-3 8 -9 27q-6 18 -14 39q-8 20 -26 36q-20 17 -52 29t-61 21l-52 3l-32 -12q-42 0 -88 -57q-48 -60 -48 -128v-69l-9 -48q9 -43 26 -99q17 -58 46 -98q30 -41 69 -58q36 -16 68 -6l33 10h26q22 0 60 17 q36 16 64 37q27 20 73 52l58 39l-23 -48q-19 -38 -62 -77q-43 -41 -83 -66q-42 -27 -75 -31q-29 -4 -50 -16l-28 -73q93 0 128.5 -69t4.5 -147q-74 -64 -114 -67.5t-97.5 -7.5t-116.5 104q64 -10 111 -21.5t99.5 1.5t52.5 52t-52.5 72.5t-108.5 -1.5q-66 -39 -9 140 q-24 5 -59 22q-57 24 -78 49l-21 23l4 22l4 21l-7 22l-7 19l-52 -6l-16 52q-15 51 -6 94z" />
<glyph unicode="&#xe8;" horiz-adv-x="639" d="M25 865l9 15l9 12l8 13l9 14l55 -1l46 -12l51 11l51 -1l77 1l76 1l158 1l-7 -56l11 -54l11 -57l10 -58l-13 -4l-16 -4l-16 24l-15 21l-17 34l-18 34l-27 27l-28 28l-18 7l-37 1l-37 2l-37 1l-13 -5l-14 -5l-5 -11l-6 -12v-118v-117l45 2l49 1l27 3q25 3 38 11q12 6 16 26 l4 19l4 12l4 16l25 -13l19 -11v-111v-113l-23 -1l-26 -2l-5 33q-6 29 -41 44q-37 14 -65 19l-30 5h-22h-19v-126v-127l54 1l58 -8l42 5l42 -5l53 -11l51 -12l40 -15l58 3l28 -9l49 -4l43 2q41 1 57 8l21 11l14 -20l10 -1l18 -14l19 -16l-34 -4q-28 -4 -69 -7l-43 -3l-64 5 l-65 5l-115 5l-116 5l-99 -3q-100 -4 -196 -10l-101 -7l2 27l2 25l13 3l7 2l21 12q20 11 23 18l3 7l13 6l-6 6v117l-3 108l14 7l15 25l-5 19l-5 18l12 18l11 17l-15 5l-21 7l-1 23l-2 22v65q0 64 -5 90q-6 25 -21 27l-20 3l-19 2zM220 1216v47l70 41l47 -41l25 -45l52 -140 q0 -59 -43 -39l-126 132l-16 45h-9z" />
<glyph unicode="&#xe9;" horiz-adv-x="639" d="M25 865l9 15l9 12l8 13l9 14l55 -1l46 -12l51 11l51 -1l77 1l76 1l158 1l-7 -56l11 -54l11 -57l10 -58l-13 -4l-16 -4l-16 24l-15 21l-17 34l-18 34l-27 27l-28 28l-18 7l-37 1l-37 2l-37 1l-13 -5l-14 -5l-5 -11l-6 -12v-118v-117l45 2l49 1l27 3q25 3 38 11q12 6 16 26 l4 19l4 12l4 16l25 -13l19 -11v-111v-113l-23 -1l-26 -2l-5 33q-6 29 -41 44q-37 14 -65 19l-30 5h-22h-19v-126v-127l54 1l58 -8l42 5l42 -5l53 -11l51 -12l40 -15l58 3l28 -9l49 -4l43 2q41 1 57 8l21 11l14 -20l10 -1l18 -14l19 -16l-34 -4q-28 -4 -69 -7l-43 -3l-64 5 l-65 5l-115 5l-116 5l-99 -3q-100 -4 -196 -10l-101 -7l2 27l2 25l13 3l7 2l21 12q20 11 23 18l3 7l13 6l-6 6v117l-3 108l14 7l15 25l-5 19l-5 18l12 18l11 17l-15 5l-21 7l-1 23l-2 22v65q0 64 -5 90q-6 25 -21 27l-20 3l-19 2zM260 1078l52 140l25 45l47 41l70 -41v-47 h-9l-16 -45l-126 -132q-43 -20 -43 39z" />
<glyph unicode="&#xea;" horiz-adv-x="639" d="M25 865l9 15l9 12l8 13l9 14l55 -1l46 -12l51 11l51 -1l77 1l76 1l158 1l-7 -56l11 -54l11 -57l10 -58l-13 -4l-16 -4l-16 24l-15 21l-17 34l-18 34l-27 27l-28 28l-18 7l-37 1l-37 2l-37 1l-13 -5l-14 -5l-5 -11l-6 -12v-118v-117l45 2l49 1l27 3q25 3 38 11q12 6 16 26 l4 19l4 12l4 16l25 -13l19 -11v-111v-113l-23 -1l-26 -2l-5 33q-6 29 -41 44q-37 14 -65 19l-30 5h-22h-19v-126v-127l54 1l58 -8l42 5l42 -5l53 -11l51 -12l40 -15l58 3l28 -9l49 -4l43 2q41 1 57 8l21 11l14 -20l10 -1l18 -14l19 -16l-34 -4q-28 -4 -69 -7l-43 -3l-64 5 l-65 5l-115 5l-116 5l-99 -3q-100 -4 -196 -10l-101 -7l2 27l2 25l13 3l7 2l21 12q20 11 23 18l3 7l13 6l-6 6v117l-3 108l14 7l15 25l-5 19l-5 18l12 18l11 17l-15 5l-21 7l-1 23l-2 22v65q0 64 -5 90q-6 25 -21 27l-20 3l-19 2zM49 1058l266 244h25l262 -244l-53 -7 l-217 135l-206 -135z" />
<glyph unicode="&#xeb;" horiz-adv-x="639" d="M25 865l9 15l9 12l8 13l9 14l55 -1l46 -12l51 11l51 -1l77 1l76 1l158 1l-7 -56l11 -54l11 -57l10 -58l-13 -4l-16 -4l-16 24l-15 21l-17 34l-18 34l-27 27l-28 28l-18 7l-37 1l-37 2l-37 1l-13 -5l-14 -5l-5 -11l-6 -12v-118v-117l45 2l49 1l27 3q25 3 38 11q12 6 16 26 l4 19l4 12l4 16l25 -13l19 -11v-111v-113l-23 -1l-26 -2l-5 33q-6 29 -41 44q-37 14 -65 19l-30 5h-22h-19v-126v-127l54 1l58 -8l42 5l42 -5l53 -11l51 -12l40 -15l58 3l28 -9l49 -4l43 2q41 1 57 8l21 11l14 -20l10 -1l18 -14l19 -16l-34 -4q-28 -4 -69 -7l-43 -3l-64 5 l-65 5l-115 5l-116 5l-99 -3q-100 -4 -196 -10l-101 -7l2 27l2 25l13 3l7 2l21 12q20 11 23 18l3 7l13 6l-6 6v117l-3 108l14 7l15 25l-5 19l-5 18l12 18l11 17l-15 5l-21 7l-1 23l-2 22v65q0 64 -5 90q-6 25 -21 27l-20 3l-19 2zM79 1140q26 51 68 66q47 -3 80 -45 q0 -52 -11 -58l-18 -48q-32 -11 -54 -11t-45 11q-33 54 -20 85zM434 1139q26 51 68 66q47 -3 80 -45q0 -52 -11 -58l-18 -48q-32 -11 -54 -11t-45 11q-33 54 -20 85z" />
<glyph unicode="&#xec;" horiz-adv-x="400" d="M35 875l8 50l174 -4l35 -21l20 14l87 3l-9 -32q-42 -9 -52.5 -27t-18.5 -86v-102l-12 -24h-16l-28 -33l15 -19v-18l23 -10h15v-25l11 -223q4 -48 35 -66l43 -8v-33q-154 7 -307 0l-5 40q39 6 49.5 18t14.5 57l-4 480q-15 41 -25 55t-53 14zM73 1216v47l70 41l47 -41 l25 -45l52 -140q0 -59 -43 -39l-126 132l-16 45h-9z" />
<glyph unicode="&#xed;" horiz-adv-x="400" d="M35 875l8 50l174 -4l35 -21l20 14l87 3l-9 -32q-42 -9 -52.5 -27t-18.5 -86v-102l-12 -24h-16l-28 -33l15 -19v-18l23 -10h15v-25l11 -223q4 -48 35 -66l43 -8v-33q-154 7 -307 0l-5 40q39 6 49.5 18t14.5 57l-4 480q-15 41 -25 55t-53 14zM127 1078l52 140l25 45l47 41 l70 -41v-47h-8l-17 -45l-126 -132q-43 -20 -43 39z" />
<glyph unicode="&#xee;" horiz-adv-x="403" d="M-78 1058l266 244h24l263 -244l-53 -7l-217 135l-205 -135zM36 875l8 50l175 -4l34 -21l20 14l87 3l-9 -32q-41 -9 -51.5 -27t-18.5 -86v-102l-13 -24h-15l-29 -33l16 -19v-18l22 -10h16v-25l11 -223q4 -48 34 -66l44 -8v-33q-154 7 -308 0l-5 40q39 6 50 18t15 57 l-4 480q-15 41 -25.5 55t-53.5 14z" />
<glyph unicode="&#xef;" horiz-adv-x="400" d="M-52 1140q27 51 68 66q47 -3 80 -45q0 -52 -11 -58l-18 -48q-32 -11 -53.5 -11t-44.5 11q-34 54 -21 85zM35 875l7 50l175 -4l35 -21l19 14l88 3l-9 -32q-42 -9 -52.5 -27t-18.5 -86v-102l-12 -24h-16l-28 -33l15 -19v-18l23 -10h15v-25l11 -223q4 -48 35 -66l43 -8v-33 q-154 7 -308 0l-4 40q38 6 49 18t15 57l-4 480q-15 41 -25.5 55t-52.5 14zM303 1139q26 51 68 66q47 -3 80 -45q0 -52 -11 -58l-18 -48q-32 -11 -54 -11t-45 11q-33 54 -20 85z" />
<glyph unicode="&#xf0;" />
<glyph unicode="&#xf1;" horiz-adv-x="745" d="M-141 1027l31 18q30 17 71 23q40 5 95 -5q54 -10 105 -42t60 -57l26 -20v-23l-1 -23l36 -23l36 -23l18 -23q17 -23 51 -97l51 -80l57 -106l56 -106l5 3l5 2l-2 175l-2 174l-6 30q-7 29 -19 52q-13 23 -31 34t-30 13l-13 2v17v16l6 5l6 5l48 -2q47 -2 118 -2h70l13 -15 l12 -15l-7 -11l-8 -12l-21 7q-21 7 -36 -22q-16 -29 -16 -58v-30l-6 -261l-6 -262l6 -29q6 -30 38 -78q31 -48 58 -70q26 -23 71 -23q44 0 68 21l24 21l-7 -35q-7 -36 -24 -60q-17 -25 -58 -26q-41 -2 -87 6q-46 7 -93 40q-48 33 -85 77t-48 66l-11 21l4 17l10 8l7 17l-6 7 l2 7l1 7l2 5l2 4v9v8l-11 7l-11 6h-5h-5h-5h-5l2 -6l1 -7v-4v-4l-1 -6l-2 -6l-4 -3l-4 -3l-6 -5l-7 -6l-46 96q-46 95 -85 163l-39 67l-25 42l-24 41l-25 42l-25 41l6 -210l2 -106l3 -105l4 -13l3 -13q7 -27 27 -38q19 -12 35 -13l16 -2l-3 -19l-4 -19l-53 2q-53 2 -120 -2 l-68 -4v12v12l14 7q14 7 25 19q10 11 20 17q9 6 6 28l-4 21l1 140l1 141v140l1 140l-9 12q-9 11 -30 36t-38 43q-18 17 -37 27q-20 10 -37 9q-18 -2 -30 -12t-13 -13l-2 -3l-15 17zM27 1240l106 56q43 -54 112 -64.5t127 35.5t165 27t169 -96l-49 -51q-77 54 -141 62.5 t-132.5 -36.5t-144 -29t-212.5 96z" />
<glyph unicode="&#xf2;" horiz-adv-x="763" d="M25 490l24 12l15 36l11 25l-12 31l-38 -13q0 240 255 332q56 16 120 16h4q218 0 271 -159l37 -53q26 -82 26 -144v-58q-24 -149 -91 -223l-91 -58q-83 -40 -163 -40q-233 0 -331 177q-37 82 -37 119zM183 577q0 -238 160 -309l51 -8q124 0 171 154l15 116q0 183 -103 287 q-53 42 -84 42h-9q-57 -33 -57 -80v-39l11 -15q0 -10 -17 -10q-67 21 -67 68v8q0 21 11 41h5q-87 -75 -87 -232v-23zM299 1216v47l70 41l47 -41l25 -45l52 -140q0 -59 -43 -39l-126 132l-16 45h-9z" />
<glyph unicode="&#xf3;" horiz-adv-x="763" d="M25 490l24 12l15 36l11 25l-12 31l-38 -13q0 240 255 332q56 16 120 16h4q218 0 271 -159l37 -53q26 -82 26 -144v-58q-24 -149 -91 -223l-91 -58q-83 -40 -163 -40q-233 0 -331 177q-37 82 -37 119zM183 577q0 -238 160 -309l51 -8q124 0 171 154l15 116q0 183 -103 287 q-53 42 -84 42h-9q-57 -33 -57 -80v-39l11 -15q0 -10 -17 -10q-67 21 -67 68v8q0 21 11 41h5q-87 -75 -87 -232v-23zM319 1078l52 140l25 45l47 41l70 -41v-47h-9l-16 -45l-126 -132q-43 -20 -43 39z" />
<glyph unicode="&#xf4;" horiz-adv-x="763" d="M25 490l24 12l15 36l11 25l-12 31l-38 -13q0 240 255 332q56 16 120 16h4q218 0 271 -159l37 -53q26 -82 26 -144v-58q-24 -149 -91 -223l-91 -58q-83 -40 -163 -40q-233 0 -331 177q-37 82 -37 119zM104 1059l266 244h25l262 -244l-53 -7l-217 134l-206 -134zM183 577 q0 -238 160 -309l51 -8q124 0 171 154l15 116q0 183 -103 287q-53 42 -84 42h-9q-57 -33 -57 -80v-39l11 -15q0 -10 -17 -10q-67 21 -67 68v8q0 21 11 41h5q-87 -75 -87 -232v-23z" />
<glyph unicode="&#xf5;" horiz-adv-x="763" d="M25 490l24 12l15 36l11 25l-12 31l-38 -13q0 240 255 332q56 16 120 16h4q218 0 271 -159l37 -53q26 -82 26 -144v-58q-24 -149 -91 -223l-91 -58q-83 -40 -163 -40q-233 0 -331 177q-37 82 -37 119zM47 1240l92 60q46 -56 112 -66.5t124 35.5t168 26.5t173 -97.5 l-53 -55q-81 56 -142.5 64.5t-130.5 -36.5t-146.5 -29t-196.5 98zM183 577q0 -238 160 -309l51 -8q124 0 171 154l15 116q0 183 -103 287q-53 42 -84 42h-9q-57 -33 -57 -80v-39l11 -15q0 -10 -17 -10q-67 21 -67 68v8q0 21 11 41h5q-87 -75 -87 -232v-23z" />
<glyph unicode="&#xf6;" horiz-adv-x="763" d="M25 490l24 12l15 36l11 25l-12 31l-38 -13q0 240 255 332q56 16 120 16h4q218 0 271 -159l37 -53q26 -82 26 -144v-58q-24 -149 -91 -223l-91 -58q-83 -40 -163 -40q-233 0 -331 177q-37 82 -37 119zM128 1140q27 51 68 66q48 -3 80 -45q0 -52 -11 -58l-18 -48 q-32 -11 -54 -11t-44 11q-34 54 -21 85zM183 577q0 -238 160 -309l51 -8q124 0 171 154l15 116q0 183 -103 287q-53 42 -84 42h-9q-57 -33 -57 -80v-39l11 -15q0 -10 -17 -10q-67 21 -67 68v8q0 21 11 41h5q-87 -75 -87 -232v-23zM483 1139q27 51 68 66q48 -3 80 -45 q0 -52 -11 -58l-18 -48q-32 -11 -54 -11t-44 11q-34 54 -21 85z" />
<glyph unicode="&#xf7;" />
<glyph unicode="&#xf8;" />
<glyph unicode="&#xf9;" horiz-adv-x="781" d="M25 892q0 2 3.5 7.5t8.5 11.5t11.5 10t13.5 4q8 0 28.5 -3t70.5 -3l68 -9q24 11 43 12t30.5 2t19.5 1q14 0 20 -4t6 -9q0 -2 -2.5 -6.5t-6.5 -10t-8.5 -10.5t-7.5 -6q-19 -7 -29.5 -14.5t-16.5 -19t-8 -30t-2 -47.5v-76l-38 7l15 -20l-20 -37l14 -25l29 10v-150 q0 -79 40.5 -126.5t114.5 -47.5q66 0 113 48t47 154v232q0 41 -4.5 67.5t-14 41.5t-25 22t-39.5 10q-11 2 -17 3t-6 7q0 7 3.5 11t9.5 9q6 7 10.5 12t16.5 5q45 -20 133 -6q23 0 37 1t23.5 2t14.5 2t9 1q8 0 15.5 -3t7.5 -11q0 -2 -3 -6.5t-6.5 -9.5t-8.5 -10t-10 -7 q-12 -3 -21.5 -10.5t-16.5 -23t-10.5 -40t-3.5 -62.5l-12 -250q12 -60 -4.5 -112.5t-52.5 -91t-94.5 -61t-140.5 -22.5q-52 0 -94.5 27t-81.5 43t-60 56t-21 89l10 51l-10 290q0 58 -13 85.5t-47 31.5q-15 2 -22.5 3.5t-7.5 10.5zM270 1216v47l70 41l47 -41l25 -45l52 -140 q0 -59 -43 -39l-126 132l-16 45h-9z" />
<glyph unicode="&#xfa;" horiz-adv-x="781" d="M25 892q0 2 3.5 7.5t8.5 11.5t11.5 10t13.5 4q8 0 28.5 -3t70.5 -3l68 -9q24 11 43 12t30.5 2t19.5 1q14 0 20 -4t6 -9q0 -2 -2.5 -6.5t-6.5 -10t-8.5 -10.5t-7.5 -6q-19 -7 -29.5 -14.5t-16.5 -19t-8 -30t-2 -47.5v-76l-38 7l15 -20l-20 -37l14 -25l29 10v-150 q0 -79 40.5 -126.5t114.5 -47.5q66 0 113 48t47 154v232q0 41 -4.5 67.5t-14 41.5t-25 22t-39.5 10q-11 2 -17 3t-6 7q0 7 3.5 11t9.5 9q6 7 10.5 12t16.5 5q45 -20 133 -6q23 0 37 1t23.5 2t14.5 2t9 1q8 0 15.5 -3t7.5 -11q0 -2 -3 -6.5t-6.5 -9.5t-8.5 -10t-10 -7 q-12 -3 -21.5 -10.5t-16.5 -23t-10.5 -40t-3.5 -62.5l-12 -250q12 -60 -4.5 -112.5t-52.5 -91t-94.5 -61t-140.5 -22.5q-52 0 -94.5 27t-81.5 43t-60 56t-21 89l10 51l-10 290q0 58 -13 85.5t-47 31.5q-15 2 -22.5 3.5t-7.5 10.5zM354 1078l52 140l25 45l47 41l70 -41v-47 h-9l-16 -45l-126 -132q-43 -20 -43 39z" />
<glyph unicode="&#xfb;" horiz-adv-x="781" d="M25 892q0 2 3.5 7.5t8.5 11.5t11.5 10t13.5 4q8 0 28.5 -3t70.5 -3l68 -9q24 11 43 12t30.5 2t19.5 1q14 0 20 -4t6 -9q0 -2 -2.5 -6.5t-6.5 -10t-8.5 -10.5t-7.5 -6q-19 -7 -29.5 -14.5t-16.5 -19t-8 -30t-2 -47.5v-76l-38 7l15 -20l-20 -37l14 -25l29 10v-150 q0 -79 40.5 -126.5t114.5 -47.5q66 0 113 48t47 154v232q0 41 -4.5 67.5t-14 41.5t-25 22t-39.5 10q-11 2 -17 3t-6 7q0 7 3.5 11t9.5 9q6 7 10.5 12t16.5 5q45 -20 133 -6q23 0 37 1t23.5 2t14.5 2t9 1q8 0 15.5 -3t7.5 -11q0 -2 -3 -6.5t-6.5 -9.5t-8.5 -10t-10 -7 q-12 -3 -21.5 -10.5t-16.5 -23t-10.5 -40t-3.5 -62.5l-12 -250q12 -60 -4.5 -112.5t-52.5 -91t-94.5 -61t-140.5 -22.5q-52 0 -94.5 27t-81.5 43t-60 56t-21 89l10 51l-10 290q0 58 -13 85.5t-47 31.5q-15 2 -22.5 3.5t-7.5 10.5zM121 1058l266 244h25l262 -244l-53 -7 l-217 135l-206 -135z" />
<glyph unicode="&#xfc;" horiz-adv-x="781" d="M25 892q0 2 3.5 7.5t8.5 11.5t11.5 10t13.5 4q8 0 28.5 -3t70.5 -3l68 -9q24 11 43 12t30.5 2t19.5 1q14 0 20 -4t6 -9q0 -2 -2.5 -6.5t-6.5 -10t-8.5 -10.5t-7.5 -6q-19 -7 -29.5 -14.5t-16.5 -19t-8 -30t-2 -47.5v-76l-38 7l15 -20l-20 -37l14 -25l29 10v-150 q0 -79 40.5 -126.5t114.5 -47.5q66 0 113 48t47 154v232q0 41 -4.5 67.5t-14 41.5t-25 22t-39.5 10q-11 2 -17 3t-6 7q0 7 3.5 11t9.5 9q6 7 10.5 12t16.5 5q45 -20 133 -6q23 0 37 1t23.5 2t14.5 2t9 1q8 0 15.5 -3t7.5 -11q0 -2 -3 -6.5t-6.5 -9.5t-8.5 -10t-10 -7 q-12 -3 -21.5 -10.5t-16.5 -23t-10.5 -40t-3.5 -62.5l-12 -250q12 -60 -4.5 -112.5t-52.5 -91t-94.5 -61t-140.5 -22.5q-52 0 -94.5 27t-81.5 43t-60 56t-21 89l10 51l-10 290q0 58 -13 85.5t-47 31.5q-15 2 -22.5 3.5t-7.5 10.5zM158 1140q27 51 68 66q48 -3 80 -45 q0 -52 -11 -58l-18 -48q-32 -11 -54 -11t-44 11q-34 54 -21 85zM513 1139q27 51 68 66q48 -3 80 -45q0 -52 -11 -58l-18 -48q-32 -11 -54 -11t-44 11q-34 54 -21 85z" />
<glyph unicode="&#xfd;" />
<glyph unicode="&#xfe;" />
<glyph unicode="&#xff;" horiz-adv-x="720" d="M25 890q0 3 3 9t9 12t13.5 10.5t15.5 4.5q14 0 34 -16l35 7q26 3 57 3q46 0 84 3t51 3q14 0 18 -4.5t4 -12.5q0 -5 -7.5 -12.5t-10.5 -15.5q-3 -4 -12 -6t-16.5 -5.5t-14.5 -11.5t-7 -24q0 -10 4.5 -24.5t17 -43t35.5 -75t56 -111.5l31 63l47 88q28 53 33 68.5t5 32.5 q0 25 -12 36t-43 11q-7 0 -14.5 1.5t-7.5 7.5q0 2 4 8t9.5 12.5t12 12t13.5 5.5q5 0 10.5 -1t30 -3t49.5 -2q74 2 88.5 4t21.5 2q9 0 16 -5t7 -9q0 -5 -8 -16t-19 -16q-16 -8 -27 -16t-23.5 -25t-46.5 -79l-52 -59l-10 -58q-41 -76 -51.5 -99t-13.5 -36t-3 -28v-145 q0 -44 15 -59.5t39 -17.5q18 -2 26 -4.5t8 -10.5q0 -2 -3 -7t-7 -10t-10 -10t-15 -5q-12 0 -24.5 1t-40 3t-47.5 2q-96 -4 -113.5 -5t-29.5 -1q-18 0 -18 13q0 5 6.5 16.5t18.5 16.5q14 7 23 14t14.5 24.5t9.5 143.5q0 14 -2.5 26.5t-8 27.5t-84.5 173l19 14l13 4l4 4l-12 4 l-7 6l5 4l3 9l-4 11l-5 -3l-18 -5l-26 4l-18 33l-19 33q-19 32 -31.5 51t-21.5 28.5t-16.5 12t-17.5 3.5q-12 1 -16.5 5t-4.5 6zM128 1140q27 51 68 66q48 -3 80 -45q0 -52 -11 -58l-18 -48q-32 -11 -54 -11t-44 11q-34 54 -21 85zM483 1139q27 51 68 66q48 -3 80 -45 q0 -52 -11 -58l-18 -48q-32 -11 -54 -11t-44 11q-34 54 -21 85z" />
<glyph unicode="&#x152;" horiz-adv-x="2028" d="M25 812q61 113 92 219q73 170 172 276q127 142 324 142q107 0 305 -21v-7q-12 -8 -24 -14l641 -6h24l41 -25l29 6h12q105 19 282 25q-12 -149 2.5 -209t38.5 -160l-65 -61q-82 142 -138 192.5t-111 94.5t-198 61l-78 -17h-31l-31 -31v-31l-24 -61l24 -124v-247l258 -5h77 q41 31 55.5 55.5t32.5 67.5h76l6 -417l-82 7q-6 72 -43 129t-133 57l-138 -2l-109 -3v-388q17 -106 40.5 -115.5t76 -9.5t166.5 14v-26l-19 -19l48 -13l11 38q135 0 278 -19t187.5 -21t112.5 26t64.5 -40.5t-32.5 -68.5t-129 -11.5t-161 0t-184.5 11.5t-344.5 7t-284.5 3 t-122 -7t-147.5 -3l2 25q-80 -31 -175 -38q-115 0 -264 55q-108 59 -108 94v3l6 21q-88 16 -88 42q-133 175 -144 310l-19 142zM289 746q0 -264 98 -387q103 -169 210 -197q33 -15 69 -21t91.5 13.5t141.5 77.5q12 34 45 34h6v38l-3 15q95 133 95 338l3 52q0 230 -92 356 q-98 150 -219 172l-172 38q-41 -6 -41 18q0 25 165 25q192 0 318 -94l3 -17v-6l-6 -11q17 -4 32 -7q-6 30 -12 46q-14 41 -49.5 65.5t-116.5 31.5l33 77q-114 -62 -240 -62q-168 -29 -168 -48q-56 -23 -102 -125q-89 -149 -89 -404v-18z" />
<glyph unicode="&#x153;" horiz-adv-x="1095" d="M25 490l24 12l15 36l11 25l-12 31l-38 -13q0 240 255 332q56 16 120 16h4q66 0 113 -14l2 4l55 -1l46 -12l51 11l51 -1l77 1l76 1l158 1l-7 -56l11 -54l11 -57l10 -58l-13 -4l-16 -4l-16 24l-15 21l-17 34l-18 34l-55 55l-18 7l-37 1l-37 2l-37 1l-13 -5l-14 -5l-5 -11 l-6 -12v-235l45 2l49 1l27 3q25 3 39 11q11 6 15 26l4 19l4 12l4 16l25 -13l19 -11v-224l-23 -1l-26 -2l-5 33q-6 29 -41 44q-37 14 -65 19l-30 5h-41v-253l54 1l58 -8l42 5l42 -5l53 -11l51 -12l40 -15l58 3l28 -9l49 -4l43 2q41 1 57 8l21 11l14 -20l10 -1l18 -14l19 -16 l-34 -4q-28 -4 -69 -7l-43 -3l-128 10l-232 10l-99 -3q-100 -4 -195 -10l-102 -7l2 27v-1q-50 -17 -105 -17q-233 0 -331 177q-37 82 -37 119zM183 577q0 -238 160 -309l51 -8q124 0 171 154l15 116q0 183 -103 287q-53 42 -84 42h-9q-57 -33 -57 -80v-39l11 -15 q0 -10 -17 -10q-67 21 -67 68v8q0 21 11 41h5q-87 -75 -87 -232v-23z" />
<glyph unicode="&#x178;" horiz-adv-x="1669" d="M25 1460q9 86 121 134l47 8q254 0 477 -234q52 -47 180.5 -290.5t179.5 -310.5q299 451 299 504q0 36 -127 46l-5 5v61q0 8 21 15l162 -5l254 -5l10 -15v-51q-2 -10 -96 -46q-169 -188 -447 -610l-10 -41v-71q0 -397 45 -397q0 -22 143 -31l5 -5v-15q0 -56 -16 -56 q-316 0 -446 -51l-178 -56q-30 6 -30 16v50q0 17 81 31q91 50 91 132q21 0 26 387v25q0 46 -108 223l1 152l-72 30l-15 59l-94 60q-118 227 -235 285q-115 79 -213 72h-15zM723 1575q26 50 64 64q43 -3 74 -43q0 -52 -11 -58l-18 -47q-28 -10 -48.5 -10t-40.5 10 q-33 53 -20 84zM1078 1574q26 50 64 64q43 -3 74 -43q0 -52 -11 -58l-18 -47q-28 -10 -48.5 -10t-40.5 10q-33 53 -20 84z" />
<glyph unicode="&#x2c6;" d="M0 1486l262 241h19l259 -241l-45 -6l-219 136l-208 -136z" />
<glyph unicode="&#x2dc;" horiz-adv-x="785" d="M25 1218l75 21q49 -7 118 -17.5t127 36t165 27t169 -96.5l-58 -16q-69 19 -132.5 27.5t-132.5 -36.5t-144 -29t-187 84z" />
<glyph unicode="&#x2000;" horiz-adv-x="895" />
<glyph unicode="&#x2001;" horiz-adv-x="1790" />
<glyph unicode="&#x2002;" horiz-adv-x="895" />
<glyph unicode="&#x2003;" horiz-adv-x="1790" />
<glyph unicode="&#x2004;" horiz-adv-x="596" />
<glyph unicode="&#x2005;" horiz-adv-x="447" />
<glyph unicode="&#x2006;" horiz-adv-x="298" />
<glyph unicode="&#x2007;" horiz-adv-x="298" />
<glyph unicode="&#x2008;" horiz-adv-x="223" />
<glyph unicode="&#x2009;" horiz-adv-x="358" />
<glyph unicode="&#x200a;" horiz-adv-x="99" />
<glyph unicode="&#x2010;" horiz-adv-x="526" d="M23 664l464 80l13 -69l-172 -36l-212 -80l-88 36z" />
<glyph unicode="&#x2011;" horiz-adv-x="526" d="M23 664l464 80l13 -69l-172 -36l-212 -80l-88 36z" />
<glyph unicode="&#x2012;" horiz-adv-x="526" d="M23 664l464 80l13 -69l-172 -36l-212 -80l-88 36z" />
<glyph unicode="&#x2013;" />
<glyph unicode="&#x2014;" />
<glyph unicode="&#x2018;" />
<glyph unicode="&#x2019;" />
<glyph unicode="&#x201a;" />
<glyph unicode="&#x201c;" />
<glyph unicode="&#x201d;" />
<glyph unicode="&#x201e;" />
<glyph unicode="&#x2022;" horiz-adv-x="818" d="M40 685v31l11 10l67 -10q0 10 26 10q0 71 57 146q0 16 -62 67v16l16 16h15l42 -52l5 5h5q10 0 10 -16h6q73 57 145 57q0 26 11 26l-11 73l31 11q16 0 16 -21l-5 -63q10 0 10 -26h11q69 -8 135 -57q0 11 26 11q0 17 41 52h16q16 -6 16 -32q-43 -25 -63 -62h-5 q42 -50 68 -151q20 0 20 -10l68 10l10 -15v-21q0 -11 -15 -11l-68 6q0 -11 -21 -11q0 -59 -62 -145q17 0 21 -32q47 -21 47 -41q-10 -24 -21 -26h-11l-46 52q-21 0 -21 15q-83 -62 -151 -62l5 -5v-11l-10 -15l5 -68l-5 -5h-26l-16 16l11 62q-11 0 -11 26q-80 9 -151 62 q0 -12 -36 -31q0 -16 -31 -36h-5l-21 21v15l52 42l10 26q-33 28 -62 140l-26 11l-67 -6zM212 685q0 -54 52 -110q0 12 93 99v5l-5 6v5l-36 -5h-104zM212 721l26 -5l46 5l68 -5l5 5v10l-99 94q-31 -27 -46 -104zM284 549q58 -41 99 -41h5l6 31l-6 47l11 62l-26 5v-5zM284 851 q89 -86 89 -99h10l11 11l-6 67l6 31l-6 37q-46 0 -104 -47zM420 648l5 -36v-104h5q51 0 104 47l-99 98zM420 757l5 -5h21q0 19 88 99q0 18 -109 47v-5l5 -6l-5 -26v-67zM456 669l104 -94q42 62 42 110h-104l-37 5zM456 731l5 -15l73 5l42 -5l26 10q0 33 -42 104h-10 q0 -21 -94 -99z" />
<glyph unicode="&#x2026;" horiz-adv-x="2048" d="M125 6l29 52l48 43l74 -43v-52h-8l-21 -53l-37 -10l-52 10zM808 6l29 52l48 43l74 -43v-52h-8l-21 -53l-37 -10l-52 10zM1491 6l29 52l48 43l74 -43v-52h-8l-21 -53l-37 -10l-52 10z" />
<glyph unicode="&#x202f;" horiz-adv-x="358" />
<glyph unicode="&#x2039;" />
<glyph unicode="&#x203a;" />
<glyph unicode="&#x205f;" horiz-adv-x="447" />
<glyph unicode="&#x20ac;" horiz-adv-x="1254" d="M25 559l47 99l220 23l14 -2q-1 30 -1 61l-75 71l67 89q4 19 10 41h-142l-140 -12l47 99l220 23l57 -7l10 18q47 92 129 187t177 141.5t169.5 57.5t191 6t263.5 26q-8 -123 7 -259l-96 18q-82 79 -132.5 99.5t-114 11t-149 -39.5t-91.5 -52t-54 -22l4 -64 q-52 -71 -77 -134l-6 -18l97 -9h134l204 -24l-64 -76h-332l-64 6l-1 -8q-7 -65 -7 -168q0 -45 3 -88l127 -12l146 17l133 -6l-22 -111h-315l-54 5q18 -81 68 -146q52 -67 102.5 -124.5t127 -93t173 -46.5t171.5 0t164 60q-6 -67 -85 -99t-170.5 -41.5t-177 -5.5t-167.5 30 t-140 63.5t-28 66.5l-93 23q-119 138 -149 207q-28 64 -41 131h-155z" />
<glyph unicode="&#x2122;" horiz-adv-x="2900" d="M40 60l44 152h80v-4l-36 -120v-12l20 -4h8q39 0 60 108l-76 160v16q37 152 60 152q16 41 116 52q80 0 80 -52v-12q0 -33 -40 -140h-80q36 99 36 116l-12 12h-16q-37 0 -56 -88q0 -18 76 -168v-8q0 -51 -56 -168q-48 -52 -124 -52q-84 0 -84 60zM292 60q0 22 164 500h76 v-4l-156 -464q6 -20 28 -20q44 0 64 108l128 380h80q-153 -473 -176 -508q-49 -52 -120 -52q-88 0 -88 60zM520 0l188 560h116q64 0 64 -36v-12q-73 -276 -120 -276l-32 -8h-72q-64 -214 -80 -228h-64zM548 828v560h176v-76h-96v-148h88v-80h-88v-256h-80zM692 308h36 q35 0 52 92q24 54 24 76l-8 8h-40q-8 -3 -64 -176zM752 0l188 560h176l-20 -76h-104l-48 -152h80l4 4h4v-8q-20 -72 -28 -72h-88l-60 -184h100v-4q-20 -68 -28 -68h-176zM756 916v364q0 108 108 108q104 0 104 -96v-384q0 -69 -100 -80h-8q-104 8 -104 88zM832 924 q2 -32 32 -32q20 0 32 20v372q0 28 -28 28h-8q-28 0 -28 -28v-360zM968 0l92 280l96 280h112q72 0 72 -44q-68 -248 -100 -248h-12v-8q16 -2 16 -12v-16l-72 -232h-68v4l68 216l-8 8h-48q-66 -217 -80 -228h-68zM1000 828v560h108l52 -248h4v248h72l8 -8v-544l-8 -8h-92 l-60 284h-4v-284h-80zM1144 308h32q41 0 56 88q24 54 24 76v4l-8 8h-40q-8 -3 -64 -176zM1228 60q7 41 136 420q48 80 140 80q80 0 80 -52v-12q0 -25 -36 -136h-80v4l32 108l-12 12h-16q-39 0 -64 -116q-92 -260 -92 -280v-12l20 -4h8q38 0 64 120q14 36 20 36h72v-4 q-58 -204 -108 -204q-29 -20 -80 -20q-84 0 -84 60zM1276 1316v72h216l8 -8v-64h-60l-4 -4h-4l-4 4l-4 -4v-484h-76l-8 8v480h-64zM1456 0q160 489 176 508q54 52 120 52q88 0 88 -60q0 -27 -164 -500h-80l68 212h-52q-9 0 -72 -208l-4 -4h-80zM1528 928v112h80v-112 q0 -21 16 -28h28q16 0 20 48h-4l4 4v32l-4 4l4 4v4q-6 22 -76 104q-68 64 -68 124v60q0 104 108 104q92 0 112 -76v-128h-76v76q0 46 -20 52h-16q-28 0 -28 -28v-52q0 -22 72 -104q68 -63 68 -116v-100q0 -76 -108 -84h-4q-108 0 -108 100zM1632 280h52q6 2 68 184 q-8 18 -16 20h-12q-38 0 -64 -120q-6 -1 -28 -84zM1708 0l188 560h112q72 0 72 -44q-68 -248 -100 -248h-12v-8q16 -2 16 -12v-8q0 -25 -72 -236v-4h-68v4l68 216l-8 8h-48q-68 -221 -80 -228h-68zM1884 308h32q41 0 56 88q24 54 24 76v4l-8 8h-40q-8 -3 -64 -176zM1924 828 v268h64q44 0 44 -52v-24q0 -26 -20 -48q14 0 20 -44v-32q0 -68 -48 -68h-60zM1960 864q0 -8 12 -8l16 12v80l-20 4h-8v-88zM1960 988h4q21 0 24 12v52q0 7 -24 12l-4 -4v-72zM1968 56q0 28 140 432q49 72 136 72q80 0 80 -52v-12q0 -25 -36 -136h-80v4l32 108l-12 12h-16 q-39 0 -64 -116q-92 -260 -92 -280v-12l20 -4h8q38 0 64 120h-32v4l24 80h116v-4q-80 -254 -96 -272h-48l-4 24q-25 -24 -80 -24q-60 8 -60 56zM2048 1096h32q9 0 20 -88h4l16 88h36l-36 -172v-96h-40v92q0 27 -32 176zM2220 64q8 40 164 496h76v-4l-156 -472l24 -12 q49 0 64 96l132 392h80q-153 -473 -176 -508q-46 -52 -128 -52q-80 0 -80 64zM2516 0q92 253 92 368l28 192h76l-28 -188v-4h4l100 192h72v-4q-184 -320 -200 -364q-60 -192 -68 -192h-76z" />
<glyph unicode="&#x25fc;" horiz-adv-x="930" d="M0 0v930h930v-930h-930z" />
</font>
</defs>
</svg>
