<?xml version="1.0" encoding="utf-8"?>
<!-- Generator: Adobe Illustrator 19.0.1, SVG Export Plug-In . SVG Version: 6.00 Build 0)  -->
<!DOCTYPE svg PUBLIC "-//W3C//DTD SVG 1.1//EN" "http://www.w3.org/Graphics/SVG/1.1/DTD/svg11.dtd">
<svg version="1.1" xmlns="http://www.w3.org/2000/svg" xmlns:xlink="http://www.w3.org/1999/xlink" x="0px" y="0px"
	 viewBox="0 0 1200 700" enable-background="new 0 0 1200 700" xml:space="preserve">
<g id="sky">
	
		<linearGradient id="SVGID_1_" gradientUnits="userSpaceOnUse" x1="-87.5" y1="317.5" x2="608.5" y2="317.5" gradientTransform="matrix(4.489700e-011 -1 1 4.489700e-011 282.5 608.5)">
		<stop  offset="0" style="stop-color:#FFFFFF"/>
		<stop  offset="0.7806" style="stop-color:#27AAE1"/>
	</linearGradient>
	<rect x="0" y="0" opacity="0.87" fill="url(#SVGID_1_)" width="1200" height="696"/>
</g>
<g id="clouds">
	<g opacity="0.55">
		<g>
			<g>
				<g>
					<path fill="#FFFFFF" d="M721.3,122.9c0.8-0.5,0.7-0.4,0.8-0.5C720.3,123.3,721.3,122.9,721.3,122.9z"/>
					<path fill="#FFFFFF" d="M704.4,132.9l0.2-0.3l-2.3,1.8c0,0,0.5-0.4,1-0.7C703.9,133.2,704.4,132.9,704.4,132.9z"/>
					<path fill="#FFFFFF" d="M687.9,140.6c2.3,0.7,5.9-2.8,9.1-3.8l0.6,0l0.8-1.5C694.9,137.1,690.7,139.9,687.9,140.6z"/>
					<path fill="#FFFFFF" d="M677.2,140.2c0.9,0.5-1.7,1.2,2.2-0.4c-0.2,0-0.3,0-0.5-0.1C678.6,139.9,678.1,140,677.2,140.2z"/>
					<path fill="#FFFFFF" d="M679,139.8C680.7,139.2,677.5,139.6,679,139.8L679,139.8z"/>
					<path fill="#FFFFFF" d="M670.8,142.5l2.1-1.3c-0.7-0.3-2.8,0.1-2.2-0.4C668.4,141.6,669.1,142,670.8,142.5z"/>
					<path fill="#FFFFFF" d="M669.1,144.5l1.1-0.6C669.9,143.8,669.6,143.8,669.1,144.5z"/>
					<path fill="#FFFFFF" d="M672.6,142.6c0,0-0.6,0.3-1.2,0.7c-0.6,0.3-1.2,0.7-1.2,0.7c0.5,0.2,0.8,0.9,1.1-0.5
						C671.4,144,671.7,143.3,672.6,142.6z"/>
					<path fill="#FFFFFF" d="M674.2,142.4c1.5,0,3.3-0.3,1.2,1.1C679.9,141.9,678.7,140.9,674.2,142.4z"/>
					<path fill="#FFFFFF" d="M687.8,142.4l1.9-0.4l1.3-1.2C690.4,141.4,687.5,142,687.8,142.4z"/>
					<path fill="#FFFFFF" d="M655.5,144.3c0,0.6,1.3,1.3,1.7,2c0,0,0.4-0.2,0.8-0.5c0.4-0.2,0.8-0.5,0.8-0.5
						C657.7,145.2,655.8,145.1,655.5,144.3z"/>
					<path fill="#FFFFFF" d="M657.1,146.3l-2.4,1.4C657.2,147.4,657.5,146.9,657.1,146.3z"/>
					<path fill="#FFFFFF" d="M669.6,147l3.7-2.9c0,0-0.3,0.2-0.7,0.5c-0.4,0.3-1,0.7-1.6,1.1c-1.1,0.8-2.3,1.6-2.3,1.6L669.6,147z"
						/>
					<polygon fill="#FFFFFF" points="645.3,145.6 646.5,144 644.4,146.5 					"/>
					<path fill="#FFFFFF" d="M638.7,146.6c0.8-1.4-2-2-1-2.9c-1.7,0.3-3.1,1.5-4.2,2.6C634.8,145.6,636.4,145.7,638.7,146.6z"/>
					<path fill="#FFFFFF" d="M631.4,147.9c0.7-0.4,1.3-1,2-1.7C632.8,146.6,632.1,147.1,631.4,147.9z"/>
					<path fill="#FFFFFF" d="M650.1,148.3c-0.3-0.3-1-1.2-2.6-1.4l1.5,1.5C649.4,148.4,649.8,148.3,650.1,148.3z"/>
					<path fill="#FFFFFF" d="M649.1,148.5L649.1,148.5c-1.2,0.1-2,0.2-2.3,0.2C647.1,148.7,647.8,148.6,649.1,148.5z"/>
					<path fill="#FFFFFF" d="M650.4,148.2c-0.1,0-0.2,0-0.3,0C650.3,148.4,650.4,148.5,650.4,148.2z"/>
					<path fill="#FFFFFF" d="M662.2,147.7c-1.3,1.1-4.2,3-0.7,3.3C662.3,149.7,660.3,149.5,662.2,147.7z"/>
					<path fill="#FFFFFF" d="M652.3,150.1l2.9-0.3c-0.2-0.4-0.9-0.9-0.2-1.5c0,0-0.7,0.4-1.4,0.9C653,149.6,652.3,150.1,652.3,150.1
						z"/>
					<path fill="#FFFFFF" d="M651.1,150.9c0,0,0.3-0.2,0.6-0.4c0.3-0.2,0.6-0.4,0.6-0.4s-0.3,0-0.5,0c-0.3,0-0.5,0-0.5,0
						L651.1,150.9z"/>
					<path fill="#FFFFFF" d="M636.6,149.4c-1,0.9-2.4,1.2-3.9,1.5c1.7,0.2,3.4,0.3,5,0.1C637.9,150.3,638.3,149.2,636.6,149.4z"/>
					<path fill="#FFFFFF" d="M642.7,149.2c-0.1,0.1-0.2,0.1-0.2,0.1C642.7,149.5,642.8,149.5,642.7,149.2z"/>
					<path fill="#FFFFFF" d="M617.9,151.6c0.1,0.1,0.2,0.3,0.3,0.4c0-0.1,0-0.2,0-0.4L617.9,151.6z"/>
					<path fill="#FFFFFF" d="M638.1,151.2c1.3,0.2,1.9-0.4,2.5-1c-0.9,0.3-1.8,0.6-2.8,0.7C637.7,151.2,637.7,151.4,638.1,151.2z"/>
					<path fill="#FFFFFF" d="M627.5,149.1c0.7,0.4,1.5,0.7,2.3,1C629,149.5,627.6,148.5,627.5,149.1z"/>
					<path fill="#FFFFFF" d="M642,148.9c0.1,0,0.1-0.1,0.2-0.1C641.6,148.5,641.7,148.6,642,148.9z"/>
					<path fill="#FFFFFF" d="M642,148.9c-0.6,0.3-1,0.9-1.4,1.3c0.7-0.2,1.4-0.5,1.9-0.9C642.3,149.2,642.1,149.1,642,148.9z"/>
					<path fill="#FFFFFF" d="M614.7,166.7c0-1.1,0.8-2.2,2-2.8c1.2-0.6,2.8-0.6,4.3,0.3c2.7-1.9-0.1-8.3-2.8-12.2
						c0,0.9,0.1,1.7-2.6,3.1c0.5,0.6,2.2,1.2,3.4,1.9c1.2,0.7,2.1,1.4,1,2.5c-3.7,1.4-3.2-0.5-5.2-1.6c1.8,2.6-4.5,4.2-3.4,8.2
						c0,0,0.8-0.4,1.7-0.8c0.8-0.4,1.7-0.9,1.7-0.9C614.8,165.1,613.7,166.2,614.7,166.7z"/>
					<path fill="#FFFFFF" d="M623.5,152l1.1-0.3c-1.4-0.3-2.4-1.1-4.3-2.6c-1.8,1-2.1,1.8-2.1,2.5c0,0,0.4,0,0.9,0c0.5,0,1.2,0,2,0
						c1.4,0,2.9,0,2.9,0L623.5,152z"/>
					<path fill="#FFFFFF" d="M629.8,151.4c-0.5,2.1-3.2,3.3-1.1,5.4c3.4-0.5,2.1-2,4-3.1c-2.7,0.5-2.4,0.2-1.9-0.3
						c0.5-0.6,1.1-1.3-0.9-1.7c1-0.4,2-0.6,2.9-0.8c-1-0.1-2-0.4-3-0.7c0.1,0,0.1,0.1,0.1,0.1l0,0l0,0c0.3,0.2,0.4,0.4,0.1,0.3
						c0,0-0.1,0-0.1,0C629.9,150.9,629.9,151.1,629.8,151.4c-1.7-0.3-0.3-0.5,0.1-0.8c0-0.1,0-0.2,0-0.3c0,0,0,0,0,0l-5.3,1.5
						C625.8,152,627.3,151.8,629.8,151.4z"/>
					<path fill="#FFFFFF" d="M659.7,155.1c-0.2-0.1-0.2-0.2-0.3-0.3C659.1,155.1,659,155.3,659.7,155.1z"/>
					<path fill="#FFFFFF" d="M657.1,154.9c0.3-0.3,0.5-1.1,1.8-1.3c1.3,0.1,0.2,0.7,0.4,1.2c0.7-0.6,2.4-1.9-0.3-1.9l-0.3,0.3
						c-2.4,0.1-5.8-1.2-5.5-1.5C654.3,153,655.2,153.9,657.1,154.9z"/>
					<path fill="#FFFFFF" d="M643.3,154.6c0,0-1.1,0.4-2.2,0.9c-0.6,0.2-1.1,0.4-1.5,0.6c-0.4,0.2-0.7,0.3-0.7,0.3s0.7,0.3,1.4,0.6
						c0.7,0.3,1.4,0.6,1.4,0.6l-0.3-1C644,156.4,643.2,155.4,643.3,154.6z"/>
					<polygon fill="#FFFFFF" points="617.2,150.5 617.6,148.1 615.3,151.5 					"/>
					<polygon fill="#FFFFFF" points="611.4,150.8 611.5,148.6 610,149.8 					"/>
					<path fill="#FFFFFF" d="M298.5,182.6l-1,1.7C298,183.7,298.3,183.1,298.5,182.6z"/>
					<path fill="#FFFFFF" d="M308.7,177.6l-0.7-1.8C308.1,177,308.3,177.7,308.7,177.6z"/>
					<path fill="#FFFFFF" d="M479.4,101.8c-0.3-4.1,0.1-10-1.6-6.3l-1.3,3.9C478.1,99.6,478.9,100.6,479.4,101.8z"/>
					<path fill="#FFFFFF" d="M368.8,114c0.4,0.3,0.7,0.6,1.1,0.9c-0.2-1.6-0.3-3-0.5-4.3C369.2,111.6,369,112.8,368.8,114z"/>
					<path fill="#FFFFFF" d="M375.2,130.7l-3.4-1.4C372.7,129.9,373.9,130.4,375.2,130.7z"/>
					<path fill="#FFFFFF" d="M234.2,201.3c0,0-0.5,1-1,2c-0.5,1-1,2-1,2C235.4,205.4,234,203.2,234.2,201.3z"/>
					<path fill="#FFFFFF" d="M553.2,142.5c-1.2-1.7-2.3-2.7-3.3-3.2C551.2,141.7,552,144.9,553.2,142.5z"/>
					<path fill="#FFFFFF" d="M281.4,140.8c-0.3,1.1-0.2,2,0.3,2.8C282,142.6,282,141.7,281.4,140.8z"/>
					<path fill="#FFFFFF" d="M545.5,137.7c0.2,0.4,0.4,0.7,0.6,1c1.3-0.1,2.5-0.1,3.8,0.5C548.9,137.5,547.7,136,545.5,137.7z"/>
					<path fill="#FFFFFF" d="M39.8,142.1c-0.1-0.1-0.3-0.1-0.5-0.2C39.3,142.1,39.5,142.1,39.8,142.1z"/>
					<path fill="#FFFFFF" d="M-15,157.5c0.3-0.5,0.9-1.3,1.5-2C-13.8,155.7-14.2,156.3-15,157.5z"/>
					<path fill="#FFFFFF" d="M588.2,147.8C589.4,147.8,588.4,147.5,588.2,147.8L588.2,147.8z"/>
					<path fill="#FFFFFF" d="M593.9,159.2c-0.3,0.3-0.5,0.7-0.5,1.3C593.5,159.8,593.7,159.4,593.9,159.2z"/>
					<path fill="#FFFFFF" d="M527,153.3c0,0-0.1,0-0.1-0.1C527.1,154.1,527,153.9,527,153.3z"/>
					<path fill="#FFFFFF" d="M589.9,149.3c-0.4-0.4-1-0.7-1.5-1C588.7,148.5,589.1,148.9,589.9,149.3z"/>
					<path fill="#FFFFFF" d="M589.7,148c0.4,0.2,0.7,0.3,1,0.4C591,147.9,590.8,147.6,589.7,148z"/>
					<path fill="#FFFFFF" d="M586.5,147.7c0.7,0,1.3,0.3,1.9,0.5c-0.2-0.2-0.3-0.4-0.3-0.5C587.8,147.8,587.3,147.8,586.5,147.7z"/>
					<path fill="#FFFFFF" d="M140.1,161.7c0-0.1-0.1-0.2-0.2-0.4C138.2,162,138.9,162.1,140.1,161.7z"/>
					<path fill="#FFFFFF" d="M431.1,125.8c0.1,0,0.1-0.1,0.2-0.2c0-0.1-0.1-0.1-0.1-0.2L431.1,125.8z"/>
					<path fill="#FFFFFF" d="M426.5,127.7c2.9-4.6,3.8-3.7,4.6-2.3c0,0,0.6-2.9,1.1-5.9c0.5-3,1.1-5.9,1.1-5.9s-1.8,3.5-3.5,7
						C428.1,124.2,426.5,127.7,426.5,127.7z"/>
					<path fill="#FFFFFF" d="M272,194c0,0,0.3,0.2,0.8,0.4c0.5,0.2,1.1,0.5,1.7,0.8c1.3,0.6,2.5,1.2,2.5,1.2
						c-0.7,1.8-1.6,3.1-2.3,4.1c-0.8,1-1.5,1.6-1.9,2.2c-0.8,1.1-0.6,1.9,2.2,3.9c-1.4-6.3,2.4-7.7,6.2-9.3c1.9-0.8,3.7-1.6,4.8-3
						c1.1-1.4,1.4-3.4,0.3-6.5l3.5,1.6c-0.7,0.2-0.6,0.9-1.3,1.1c1.8,1,2.7,0.8,3.1,0c0.4-0.8,0.3-2.2,0.2-3.8
						c-0.2-3.1-0.5-6.8,2.7-7.2c2.4,0,4.6,1,4,3.1c0,0,0.7-1.3,1.4-2.5c0.7-1.3,1.3-2.5,1.3-2.5c1.3-0.4,2.1,1.8,0.8,2.2
						c0,0,1.5-1.1,3-2.2c1.4-1.1,2.9-2.2,2.9-2.2l0.1,0.4c-0.1-2.3,0.2-6.2,0.4-8c2.5,0.8,0,1.7,1.2,2.9l1.6-4.7
						c3.2,2.2,2.2,6.7-0.5,7.6c5,4.8,5.3,3.7,5.7,1.7c0.4-2,0.8-4.8,6.2-3.6c0,0-0.5,0.8-1.1,1.7c-0.6,0.8-1.1,1.7-1.1,1.7
						c3,2.6,4.8,3,6.6,2.9c1.8-0.1,3.5-0.6,6.6,0.3c-1.1-0.8-4.5-2.2-7.4-4c-2.9-1.9-5.2-4.2-4.4-6.7c1.5,0.2,3.1-0.2,3.5-3.6
						c2.6,4,3.8,1.8,5.9,0.2l3.4,5.4c1.4-3.1-0.6-5.7-0.8-9c3-1.2,6.3,2.5,9.2,5.6c4.8-1.9-7.3-4.7-3-8.9c4.8-0.3,5.7-4,7.7-9.9
						c3.6,0.3,1.7,3.5,3.6,4.5l-0.7-5.6c0.6-0.2,1.3,1.2,1.6,1.9c0.7-2.8-3.3-5.4-1.5-8.7c-1.5-3.2,1.3-2,4.4-1
						c3.1,1,6.3,1.8,5.9-2.7c1.8,1.1,1.6,3.6,3.1,5.6c0.9-3.6,1.5-5,1.8-6.5c0.3-1.6,0.4-3.2,0.7-7.3c0,0,1.3,0.5,2.6,1
						c1.3,0.5,2.6,1,2.6,1c-2.3-1.5-3.3-3.9-3.6-6.7c-0.3-2.7,0.1-5.9,0.6-8.6c-1.9-1.7-3.6-3.1-4.6-3.7c0,0,0.8-1.4,1.7-2.7
						c0.9-1.4,1.8-2.7,1.8-2.7c1,0.7,1.4,2.9,1.7,5.7c0.1-0.6,0.2-1.3,0.3-1.8c2.7,1.3,3.2,5.2,3.5,9c-1.1-0.9-2.2-1.9-3.3-2.8
						c0.4,4,1.3,8.4,3.1,11.7c0-0.8,0.2-1.6,0.7-2.2c0.2,1.1,0.4,2,0.8,2.5c0.4,0.5,0.3-0.9,0.3-2.8c0,0,1,1.5,2,3
						c1,1.5,1.9,3,1.9,3l-0.9-2.7c0,0,0.5,0.1,1.1,0.2c0.7,0.2,1.6,0.4,2.5,0.6c0.9,0.2,1.8,0.5,2.4,0.6c0.7,0.2,1.1,0.3,1.1,0.3
						c0.3-2,0.6-4.2,0.9-6.5c0.3-2.3,0.8-4.5,1.4-6.8c0.3-1.1,0.7-2.2,1.1-3.2c0.4-1,0.9-2,1.5-2.9c0.6-0.9,1.2-1.8,1.9-2.6
						c0.7-0.7,1.5-1.4,2.4-1.9c-0.5,2.7-0.1,4.8,0.4,7c0.6,2.2,1.3,4.4,1.9,7.4c-0.8-1.5-1.4-2-2.1-1.9c-0.6,0.1-1.2,0.8-1.8,1.6
						c-0.6,0.8-1.1,1.8-1.8,2.6c-0.6,0.8-1.3,1.4-2.3,1.3c1.9,0.1,2.3,3,2.2,4.1c0,0,0.9-1.9,2-3.7c0.5-0.9,1.1-1.8,1.5-2.5
						c0.4-0.7,0.7-1.1,0.7-1.1c0.9,4.9,2,3.4,3.8,5.1c-2.9-9.5,3.3-7.3,5.5-10.4c0.2,1.6,0.2,3.3-0.2,4.5c-0.2,0.6-0.5,1.1-0.9,1.4
						c-0.4,0.3-1,0.5-1.7,0.4c2,3.4,2.6,0.5,3.4-2.6c0.8-3.1,1.9-6.4,3.6-3.2c-0.7,0.1-1.2-0.4-1.4,1.3c0.8-1.5,2.4-1.7,3.5-1.1
						c1.2,0.5,1.9,2,1.4,3.3l-0.7,0c1.2,0.4,2.6,0.6,4.2,0.6c0.4,0,0.8,0,1.2,0c0.4,0,0.8,0,1.2,0c0.8,0,1.7-0.1,2.5-0.3
						c1.7-0.4,3.3-0.9,4.7-1.9c1.4-1,2.6-2.3,3.3-4.3c-0.2,1-3,9.4-3.6,11c0,0,0.9-1.6,2.3-3.9c1.4-2.4,3.5-5.3,5.6-8.2
						c2.2-2.9,4.4-5.8,6.2-8c1.8-2.1,3-3.5,3-3.5c-1.6,3.1-2.8,8.9-4.5,14.2c-1.6,5.3-3.7,9.9-6.2,11.2c0.4,0.6,0.9,1.3,1.6,1.7
						c0.7,0.4,1.8,0.4,3.4-0.4c-0.4-1.2,1.5-10.1,2.8-10.3c0.2,4.2,0.4,5.3,0.6,6.4c0.3,1.1,0.7,2.1,1.3,5.8
						c-0.3-0.9,0.9-3.7,2.5-6.2c1.5-2.4,3.4-4.5,4.4-3.9c-1,1.3-4.2,9.8-5.3,10.5c0,0,0.6-0.5,1.4-1.2c0.9-0.7,2-1.6,3.1-2.6
						c2.3-1.9,4.7-3.7,4.7-3.7c-2,1.2-4,8-4.3,11.1c0.4-2.1,3.9,2.1,5.7,1.7l-0.9-3.1c1.2,1,2.5,0.8,3.9,0.1c1.4-0.7,3-2,4.5-3.3
						c3.1-2.6,6.4-5.3,9-3.5c-1.7,1.5-8,10.5-5.9,13.1c1.9-1.9,6.4-6.7,11.4-10.9c4.9-4.2,10.2-7.9,13.6-8.1l-0.6,3.1l5.3-0.6
						c-3.1,2.6-8.3,6.4-13.6,10.1c-5.3,3.7-10.7,7.2-14,9c0.9,3.1-1.2,3.3,2,4.8c-0.3,3-3.8,2.7-4.8,2.4l6.3,5.3
						c2.7-5.3,8.6-2.1,10.9-6.5c0,0-2.8,0.2-5.5,0.5c-1.4,0.1-2.8,0.3-3.8,0.4c-1,0.1-1.7,0.2-1.7,0.2c1.4-2.7,4.7-5.7,8.2-7.6
						c3.5-1.9,7.3-2.6,9.6-0.6c0.1,2.8-6.3,8.5-7.2,10.3c1.7-1.4,6.9-0.6,6.7,0.9l-3.8,1.5c0.9,1.7,3.2,0.7,5.2,0.1
						c2.1-0.6,3.9-0.8,4.4,2.5c1.1,1,0.3,8.4,2.2,5.5c0.9-6.8,10.4-24.8,13.9-28.4c0.1,0.3,0.8,2.6,1.6,5.1c0.8,2.6,1.5,5.5,1.5,7.2
						c-0.1,2.8-2.2,5.1-4.3,7.2c-2.1,2.2-4.3,4.3-4.3,6.7c0.8-1.3,2.8-2.5,3.5-2.8c0.8,1.8-2.7,4,0.7,4.7c2.9-4.9,6,3.1,3.5-3.7
						c1.8-0.1,2.4,0.5,3.1,1.3c0.7,0.8,1.3,1.7,3.1,2.3c0.1-1.9,2.1-4.4,4.4-6.4c2.3-2,4.9-3.7,6.6-3.9c-0.7,1.2-0.7,3.2-0.7,4
						c2.8,1.4,4.9,2.8,6.9,4.2c2,1.4,4.1,2.6,6.9,3.4c0.1,0.7,0.7,1.6,1.1,2.5c0.4,0.9,0.6,1.9-0.3,2.9c1.1-0.7,2.3-2.2,4.1-1.9
						c2.4,5.1-4.2-0.3-2.9,5.5c1-2.9,5.8-2.8,8.7-4.1c0.1-2.3-1.3-2.8-3.1-2.6c-1.8,0.2-4.1,1-5.6,1.6c0.8-3.1,2.8-6,5.3-8.2
						c1.2-1.1,2.6-2.1,4-2.8c1.4-0.8,3-1.4,4.5-1.7c2.4-0.2,2.7,0.9,2.5,2c-0.2,1-0.9,2.1-0.4,1.7c4.2,1.4,6.5-0.8,8.4-2.6
						c1-0.9,1.9-1.7,2.9-2c1.1-0.2,2.2,0.1,3.9,1.4c2.4,4.1-0.7,7.2-0.4,10c-1,0.2-1.9,0.2-2.6-0.1c-0.8-0.3-1.4-0.7-2-1.2
						c-1.2-0.9-2.2-2-3.5-2.2l2.9,2.3c-1.4,1-4.2,1.6-5.4,0.3c0.5,1,1.6,1.6,3.2,2.1c1.6,0.5,3.6,0.9,5.8,1.2c2.2,0.3,4.5,0.6,6.7,1
						c2.2,0.4,4.3,0.9,6,1.7c1.3-1.1,3.5-2.2,2.6-3.6l-2.2,0.4c-1.8-2.9,4.3-3.6,1.6-5.1c1.5-0.9,3-2,4.7-2.6
						c1.7-0.7,3.4-0.9,5.4-0.1l0.8,3.8c-0.1-1.1-2.6-2.3-3.8-1.2c0.9-0.8,2.4,0.5,4,1.4c1.6,0.9,3.2,1.3,4.1-1.1
						c0,0-0.7-0.6-1.4-1.3c-0.7-0.6-1.4-1.3-1.4-1.3c2.9-1.9,6.2-5.4,9.7-4.2c-1.8-3.5-0.8,0.4-3.4-3.8c2.3,5.3-8.8-0.8-5.3,4.9
						c-1.3-2.5-2.4-3.1-3.6-3.7c-1.2-0.6-2.4-1-4-3.4c0.1,1.2,1.1,2.6-1.7,1.6c-0.1,0.4-0.5,0.8-0.7,1c-0.1,0-0.1-0.1-0.2-0.1
						c0.1,0.1,0.1,0.1,0.2,0.2c-0.1,0.2-0.1,0.2,0.1,0.1c0.7,0.6,1.2,1.4,1.4,2.1c-0.8,1.4-2.3,1.9-3.9,2.3
						c-0.8,0.2-1.6,0.4-2.3,0.5c-0.7,0.2-1.3,0.4-1.7,0.7c-1.7-0.8,0.8-1.4,0-2.9l-2.5,2c0-3-4.1-5.6,0-6.7c0,0-0.9-0.2-1.8-0.3
						c-0.9-0.2-1.8-0.4-1.8-0.4c-1.9-2.1-4.6-3.3-6.5-2.5c-1.5-1.1-4.7,2.5-2.8,0.4c0,0-1.4,0.2-2.9,0.3c-1.4,0.1-2.9,0.3-2.9,0.3
						l0.1-0.8c-0.7-0.2-1.3-0.4-2-0.4c-0.7-0.1-1.4-0.1-2.1-0.1c-1.4,0-3,0.1-4.5,0c-2.9-0.3-6-1.1-8-5.2c-2,0.2-4.1,0.6-6.6-1.5
						l0.4-3.1c-1.2,0.1-2.6-1.3-3.8-2.5c-1.2-1.1-2.4-1.9-3.4-0.6c0.4-4.4-1.7-6.1-4.5-7.1c-2.7-1.1-5.9-1.3-7.4-3.2l-2.1,3.7
						c-1.2-0.8-2.5-1.3-4-1.7c-1.5-0.4-3.3-0.6-5.3-0.8l-1.7,3.5c-4.3,1.1-5.8-6.8-10.4-9.3c1.1-1.1,2-0.1,2.3,1.2
						c-0.4-5.5-4-6-7.8-6c-3.8-0.1-7.7,0.1-8.6-4.3c-2,0.5-2.7-0.5-3.1-1.9c0.1,0.1,0.3,0.1,0.4,0c-0.1-0.1-0.3-0.2-0.5-0.4
						c-0.2-1-0.4-2-0.7-3c0.1,1.2,0.2,2.2,0.5,2.8c-1-0.5-2.8-1-4.9-1l1.5-4.3c-0.2,0-0.2-0.1-0.4-0.1c-0.7-2.3-2.2,1.1-3,4.5
						c-1.1,0.2-2.2,0.6-3.3,1.2c1.1-3.5-0.3-3.5-1.6-3.6c-1.3-0.1-2.7-0.3-1.8-4.2c-1.3,1.4-3.7,1-6.3,1.1c-1.3,0.1-2.6,0.3-3.8,0.9
						c-1.3,0.6-2.5,1.7-3.5,3.4c0.4-1,0.1-1.6,1-1.3c-1.5-1.6-3-3.3-5.5-1.9l1.3-5.7c0,0-1.8,1.4-3.5,2.9c-1.7,1.4-3.4,2.9-3.4,2.9
						c-0.7-2.1-1.1-3.8-0.9-5.3c0.2-1.5,1.1-3,3.1-4.6c-4.3,2.1-5.8,2.4-7.2,2.7c-1.3,0.3-2.6,0.5-6.1,3.2l1.1-3.6
						c-1-0.2-2.6,0.8-4,1.4c-0.7,0.3-1.3,0.5-1.8,0.4c-0.5-0.1-0.9-0.4-1-1.2c-0.8-2-2.7-3.3-5.2-4.2c-0.6-0.2-1.3-0.4-2-0.6
						c-0.7-0.1-1.5-0.3-2.2-0.4c-1.5-0.2-3.2-0.4-4.9-0.5c-1.7-0.1-3.5-0.1-5.3-0.2c-1.8-0.1-3.6,0-5.4-0.2
						c-1.8-0.2-3.6-0.2-5.4-0.5c-0.9-0.1-1.8-0.3-2.7-0.5c-0.9-0.2-1.7-0.4-2.6-0.7c2.2,5.4,0.6,4.4-1.4,3.2
						c-2.1-1.3-4.7-2.6-3.8,1.8c-1.3-2.5-3.4-3.5-2-6.3c-2.8,2-5.3,1.7-7.6,1.9c-1.1,0.1-2.1,0.3-2.9,1.1c-0.8,0.8-1.4,2-1.8,4.1
						c-1.6-2.3-0.1-4.2-1.3-5.5c-0.3,0.7-1.1,2.9-2.3,1.6c-1.2-1.3,0-2.5,0.6-3.9c-6.1,2.8-3.2,10.9-0.5,18.3
						c-4.2-2.2-5.5-1.1-5,4.5c-2-1.9-4.8-3.6-1.9-6c-1,0.3-4.3,0.8-6.9,2.1c-1.3,0.6-2.4,1.4-3.1,2.4c-0.6,1-0.7,2.2,0,3.6
						c-1.3-1.1-2.7,1-2.7,1.9c-2,0.9-3.1,1.4-4.2,1.9c-1.1,0.5-2.1,1.1-3.7,2.5l1.6,0.3c2.6,7.4-2.1,3.3-4.5,6l-0.3-0.7
						c-9.6-0.4-1.4,4-11.2,3l3,3.8c5.1,8.9-9-1.3-10.3,4.4l2.8,1.4c0,2.1-3.3,0.2-7-2.3c-3.6-2.5-7.6-5.5-8.9-5.3
						c-0.9-0.5-0.1-1.6,0.1-2.6c-8.4-1.6,2.8,5.6-0.2,9.4c-2.5-2.4-3.8-7.7-6.6-6.6c-1.4-0.7-1.6,2.7-2.5,6
						c-0.8,3.2-2.3,6.3-5.6,4.5c2.1,1.8,4.2,3.5,3.4,6.2c-0.5,0.6-1.6,0.7-2.8,0.5c-1.2-0.2-2.6-0.5-3.8-0.6c-2.5-0.3-4.4,0-3.8,4.3
						c-0.7-0.4-1.1-1-1.4-1.5c-0.5,1.5-1.8,3.1-2.8,4.9c-1.1,1.8-1.9,3.8-1.7,6.1c-2.1-3.4-3.8-4.3-5.1-4c-1.4,0.3-2.5,1.9-3.6,3.5
						c-2.2,3.2-4.5,6.2-6.6-0.8c0,0-0.4,0.2-0.9,0.5c-0.6,0.3-1.3,0.6-2.1,0.9c-0.8,0.3-1.5,0.6-2.1,0.9c-0.6,0.2-1,0.4-1,0.4
						l-0.2-1.5c-2.1,0-3.3,0.9-4.1,2.3c-0.9,1.3-1.3,3.2-1.9,5c-1.1-0.8-0.6-2.3-0.6-3c-3.3-0.9-5-1.4-6.5-0.5
						c-1.5,0.9-2.9,2.8-5.6,6.5l-0.6-4.5c-0.7,1.4-3.1-0.4-5.9-1.8c-2.9-1.5-6.2-2.7-9.6-0.4c0.1-0.5,0.4-1.3,0.9-1.9
						c-1,0.6-1.9,0.8-2.9,0.8c-1-0.1-1.9-0.4-2.9-0.8c-0.9-0.4-1.9-1-2.8-1.6c-0.9-0.6-1.8-1.3-2.6-1.8c-0.8-0.6-1.7-1-2.5-1.3
						c-0.8-0.3-1.6-0.4-2.4-0.2c-1.6,0.4-3.1,2.1-4.7,5.7c0,0-1.4,0.7-2.9,1.3c-1.5,0.6-2.9,1.3-2.9,1.3c3.1,1.3,2.4,2.9,1.3,4.5
						c-1.2,1.6-2.9,3.3-1.8,4.9c-2.9,0.2-5.5-6.2-2.1-6.1l0.3,0.9c3.2-7.5-7.3-4.8-5.6-10c-6.3-1.4-12.2-4.3-17.9-7.1
						c-5.7-2.9-11.4-5.9-17.4-7.9l-0.6,5.6l-4.1-1.7c-0.7-1.6,0-4.5,2.9-3.3c-0.5-3.4-6,0.8-6.5,1.8c-2.6-2-1.4-3.3,0.1-4.1
						c1.5-0.9,3.5-1.4,2.6-1.7l-2.6-0.4l0.3,0.8c-2.8,1.4-3.8,3.5-7.3,2.1c-1.9-1.7-0.1-3.4-0.9-3.9c0.1-0.3-0.1-0.6-1.4-0.6
						c0,0-1.3-0.5-2.7-1c-1.3-0.5-2.7-1-2.7-1s0.2,1.1,0.4,2.2c0.2,1.1,0.4,2.2,0.4,2.2c-3.1,1.1-5-1.8-4,3.3
						c-0.3-1.9-1.7-3.4-3.6-4.6c-1.9-1.2-4.4-2-6.9-2.7c-5-1.4-10-2-10.9-3.3c-4.2,1.7-7.6,0.8-11.8-0.2c0.9,0.9,0.6,4.8-2.9,3.5
						c0.8-1.8,0.8-3.1,0.3-3.9c-0.5-0.9-1.4-1.3-2.5-1.8c-1.1-0.4-2.3-0.8-3.4-1.5c-1.1-0.6-2.1-1.5-2.7-2.8
						c1.1,1.9-1.7,1.8-4.3,1.9c-2.6,0.2-5,0.6-3.1,3.1c-3.1-0.8,0.1-2.6-2.1-4.4c-4,1.2-8.1,0.6-12.7,0.2c-4.5-0.4-9.3-0.7-14.1,0.5
						c-0.1,0.8,1.6,1.7-0.3,3.1c0,0-0.3-0.2-0.8-0.5c-0.5-0.3-1.2-0.6-1.8-1c-1.3-0.7-2.7-1.3-2.7-1.3c-0.9,0.4-1.2,1.5-1.7,2.3
						c-0.5,0.8-1.2,1.2-3.1,0.5c0.6,0.4,1.4,1.1,0.2,1.6c-4.6,0.3-9.2,1.5-13.5,3.3c-4.4,1.7-8.6,4-12.6,6.4c-4,2.4-8,5-11.7,7.9
						c-3.7,2.8-7.3,5.8-10.5,9.2c1.9-1.7,0.9-0.3-0.3,1.2c0.8-0.9,0.4,0.4,0.7,0.4c0,0-0.3,0.3-0.9,0.8c-0.5,0.5-1.1,1.2-1.8,1.9
						c-1.2,1.4-2.3,3-2.3,3c-0.1,0.8-1.3,2.5-2.1,4.2c-0.2,0.4-0.5,0.9-0.7,1.3c-0.2,0.4-0.4,0.8-0.5,1.2c-0.3,0.7-0.5,1.2-0.6,1.4
						l1-2.2c-0.6,1.5,0,0.5,0.9-0.6c0.9-1.1,2.2-2.3,2.4-2c0.5-0.7,1.1-1.5,1.9-2.3c0.8-0.8,1.7-1.6,2.7-2.4c2-1.6,4.5-3.1,6.1-5.4
						c1.2-0.5-0.5,1,0.2,0.8c0.8-1.3,2-2.5,4.9-3.9l-0.2,0.3c3.7-2.4,6.6-3.7,9.7-4.8c3.1-1.1,6.5-1.9,11.3-2.8l-1.2-1.1
						c2.1-0.4,2.7-0.1,3.7,0c0.8-1.3-0.7-1-2.1-0.6c-1.5,0.3-3,0.8-2.3-0.6c1.9,0.8,5.4-0.2,9-0.8c3.5-0.7,7-1.1,8.3,0.8
						c3.2-0.3-1.4-1.9,1.8-2.2l1.1,1l0.5-1.5c2.1,0,3.4,1.5,3.6,2.4c-0.5-0.1-1.4,0.3-1.9,0.4c2.9,1.2,7.4-0.6,8.4-0.1
						c0,0-0.8-0.2-1.5-0.4c-0.8-0.2-1.5-0.4-1.5-0.4c4.2-0.6,9-0.3,13.7,0.1c2.3,0.2,4.6,0.5,6.9,0.6c1.1,0.1,2.3,0,3.4,0
						c1.1,0,2.2-0.1,3.3-0.3l-0.5-1.3c3.3-0.5,4.6,0.1,5.9,0.9c1.3,0.8,2.6,1.7,6.2,2.1l-0.3,0.2c1.6-0.9,3.7-1.1,5.5-0.4
						c-2.1,1,2.6,3.9-0.1,4.9c3.7-0.3,4.6-0.4,5.4-1.1c0.8-0.6,1.3-1.6,4.3-3.4l0.4,2.6c2.1-1.5,2.6-2.5,6.3-2
						c-3.4,1,1.2,4.2-2.8,5.7c1.4,1.9,2.9,2.8,4.3,3.2c1.4,0.4,2.8,0.3,4,0.2c2.5-0.1,4.5-0.2,4.8,4.3c2.8-2.6,1.6-4.2-0.1-5.1
						c-1.7-0.9-3.7-1.3-2.5-1.6c-0.4-1.4,0.7-2.3,2.1-2.7c1.5-0.4,3.3-0.4,4.4,0.4c1.1,0.5,1.4,3,2.1,5.7c0.7,2.7,1.7,5.5,4.6,6.7
						c-0.6-0.3-0.8,0.2-1.3,0c1.5,2.7,5.1-0.6,6.7,3.5c3.1-3.6,3.4,1.7,5.8-3.5l-5.8-1c1.8-0.1,4-1.4,6.2-2.1
						c2.2-0.7,4.6-0.8,6.5,1.8c-0.8,1-2.9,1.8-4.2,2.2c0.9,2.2,3.2,0.1,4.1,2.4c-1.3,2.7-3,2.3-5.1,1.6c-2-0.7-4.3-1.7-6.7-0.4
						c0.7,3,7.6-1.3,3.7,3.9c2.6-3.3,4-2.4,5.4-1.2c1.5,1.2,3,2.7,6.2,0.6l-1.5,3.3c0.8-0.3,2.7-1.3,3.9-0.7l-3.8,3.5
						c2.3-1.2,3.6,0.3,4.8,2.1c1.2,1.7,2.2,3.7,4.2,3.3c-6.7-2.8,0.1-4.9-1.8-8.6c4.9-0.7,5.3,2.1,5.6,5.3c0.3,3.2,0.7,7,5.7,8.1
						c-1.5,0-4-4.1-1.5-5c1.5,1.4,3.4,3.8,3.9,6.2c6.6,1.7,0.3-4.2,3.7-5.4c0.7,5.3,3.7-0.7,6.9-1.2l-1.2,3.9
						c3.3,2.5,4.4,0.7,5.3-1.2c1-1.8,1.8-3.7,4.7-1.1c0,0-1.1,1.2-2.1,2.3c-1.1,1.1-2.2,2.3-2.2,2.3l3.9-0.3l-1.9,4.3
						c2.4-1,3.8-1.3,5.1-1c1.3,0.3,2.4,1.2,4.2,2.4c-0.2-3.1,2.2-7.2,5.6-6.6c1.8,3-2.1,3.6,2.8,4.2c-1.6,2.4-3.5,5.3-4.8,0.9
						c-0.5,1.3-1.6,2.3-2.2,3.5c1,1.7,2.5,2.3,4.1,2.5c1.6,0.2,3.1-0.1,4,0.1c-0.7-0.3-1.5-0.7-1.8-1.4c0,0,2.1-1,4.1-2.1
						c1-0.5,2-1.1,2.8-1.5c0.8-0.4,1.3-0.7,1.3-0.7c0.9,1.8-0.2,2.9-1.3,4c1.6-0.2,2.9-1.9,5.1-1.9c-1,3.4-1.4,7-4.8,8
						c0,0,1.9-0.6,3.9-1.2c1-0.3,1.9-0.7,2.6-0.9c0.7-0.3,1.2-0.4,1.2-0.4c0.3,1.6,3.3,4.7,2.2,5.9c1.9,1.4,4.7-0.1,7.5-1.5
						c0.7-0.3,1.4-0.7,2.1-1c0.7-0.3,1.4-0.6,2.1-0.8c1.4-0.4,2.8-0.3,4.2,0.4c0.3-0.7,0.9-1.3,2-1.8c2.6,0.4,5.1,1.8,7.8,2.3
						c1.3,0.2,2.7,0.3,4.1-0.1c1.4-0.4,2.8-1.1,4.2-2.6c0,0,1.1,1.5,2.2,3.1c1.2,1.5,2.3,3.1,2.3,3.1c2.5-1.1,0.8-3-0.3-5
						c-1.2-2.1-1.8-4.3,1.9-6.1c5.2-3.1,3.2,5.2,5.7,6.6c0.6-1,1.2-2.1,1.9-3.3c0.7-1.2,1.5-2.5,2.4-3.4c0.9-1,2-1.7,3.2-2
						c1.2-0.3,2.6-0.1,4.3,0.8C275,193.6,273.4,193.1,272,194z M321.8,167.4c-0.3,1.4-0.4,5.1-2.6,3.1
						C317.3,165.3,319.4,167,321.8,167.4z M378.9,119.6c0,1.7-1.2,1.4-3,0.2C376.5,119.1,377.5,118.9,378.9,119.6z M574.7,148.2
						c0,0-0.1,0.1-0.1,0.1C572.8,146.7,573.5,147.4,574.7,148.2z M578.7,150.4c0.5-0.4,0.5-0.8,0.3-1.3c-0.4,0.8-1.3,0.6-2.3,0.2
						C576.9,150.2,577.4,150.9,578.7,150.4z M135,134.7l0.5,1.1C133.3,136.1,134.2,135.5,135,134.7z"/>
					<path fill="#FFFFFF" d="M374.5,128.8c-0.6-0.6-1-1.4-1.5-2.2C373,127.5,373.4,128.3,374.5,128.8z"/>
					<path fill="#FFFFFF" d="M234.6,200.5c-0.1,0-0.1,0-0.2-0.1c-0.1,0.3-0.2,0.5-0.2,0.8L234.6,200.5z"/>
					<path fill="#FFFFFF" d="M503.5,160.4c-0.6-0.9-0.8-1.8-0.8-2.7C502.2,158.6,502.3,159.6,503.5,160.4z"/>
					<path fill="#FFFFFF" d="M600.7,147.9c0,0-0.7,0.1-1.3,0.3c-0.7,0.2-1.3,0.3-1.3,0.3c1.3,0,1.7,0.6,2.4,1.1
						C600.4,148.8,599.9,147.8,600.7,147.9z"/>
					<path fill="#FFFFFF" d="M625.9,163.6c0.4-0.4,0.9-0.1,1.2-0.5l-0.3-1.1C625.2,162.3,624,163.4,625.9,163.6z"/>
					<path fill="#FFFFFF" d="M603.5,157.4c0.3,2.4,2,1.6,4,1.1c-0.1,0-0.2,0-0.3,0C607.5,155.3,605.5,156.4,603.5,157.4z"/>
					<path fill="#FFFFFF" d="M607.9,158.5c0.6-0.1,1.2-0.2,1.8-0.1C609.8,157.1,608.9,158.1,607.9,158.5z"/>
					<path fill="#FFFFFF" d="M584.1,149.4c0.8,0.8,0.8-3.3,1.2-2.1c0.6-1.6-0.9-0.8-2,0.2C582.2,148.6,581.6,149.9,584.1,149.4z"/>
					<polygon fill="#FFFFFF" points="605.3,165.2 604.5,162.3 603.5,164.7 					"/>
					<path fill="#FFFFFF" d="M589.5,162.9c0,0,0.8,0.3,1.6,0.5c0.8,0.3,1.6,0.5,1.6,0.5c0-0.5,0.4-0.8,0.9-1
						C591.6,162.8,589.5,162,589.5,162.9z"/>
					<path fill="#FFFFFF" d="M593.6,162.9c1,0.1,2,0,2.6-0.5C595.6,162.5,594.4,162.5,593.6,162.9z"/>
					<path fill="#FFFFFF" d="M601,166.3l-1-0.6c0,0-0.6,0-1.1-0.1c-0.6-0.1-1.1-0.1-1.1-0.1s0.8,0.2,1.6,0.4
						C600.2,166.1,601,166.3,601,166.3z"/>
					<path fill="#FFFFFF" d="M555.9,157.7l-3.6,0.2c-0.6,1.2,0.1,2.1,1.5,1.9C554.8,159.2,556.2,159,555.9,157.7z"/>
					<path fill="#FFFFFF" d="M564.6,169.2c-0.9-0.8-0.8-1.6-1.2-2.8l-0.8,4.3L564.6,169.2z"/>
					<path fill="#FFFFFF" d="M554,168.6c-0.6,1.2-6,2.5-1.4,3.1C553.3,170.6,557.1,170.3,554,168.6z"/>
					<polygon fill="#FFFFFF" points="504.9,145.2 505.8,145.6 509.6,137.9 					"/>
					<path fill="#FFFFFF" d="M453.6,142c2.4,3.7,3.6-4.7,5.4-0.6c1-0.7,0.6-1.6,0.2-2.4c-0.4-0.8-0.8-1.5,0.1-2.2
						C456.1,137.8,455.6,136.1,453.6,142z"/>
					<path fill="#FFFFFF" d="M459.3,136.8c0.5-0.1,1.1-0.4,1.8-0.7C460.2,136.3,459.7,136.6,459.3,136.8z"/>
					<path fill="#FFFFFF" d="M-20.4,165.9c0,0-0.3,0.6-0.6,1.2c-0.3,0.6-0.5,1.3-0.5,1.3s0.2-0.4,0.4-0.8c0.2-0.4,0.4-0.8,0.4-0.8
						L-20.4,165.9z"/>
					<path fill="#FFFFFF" d="M-22.3,170.8c0,0-0.1,0.1-0.2,0.3c-0.1,0.1-0.1,0.3-0.1,0.3s-0.1,0.4-0.3,0.8c-0.1,0.4-0.3,0.8-0.3,0.8
						C-22.9,172.4-22.5,171.2-22.3,170.8z"/>
					<path fill="#FFFFFF" d="M335.4,174.1l-0.7-1.4c-1.3-1.2-1.9-0.9-3.2-0.4L335.4,174.1z"/>
					<polygon fill="#FFFFFF" points="297.7,189.9 298.4,189.7 294.7,185.1 					"/>
					<path fill="#FFFFFF" d="M263,208.1c1.7-0.1,3.4-1.6,5.1-1.7C264.7,208,261.3,201.4,263,208.1z"/>
				</g>
			</g>
		</g>
	</g>
	<g opacity="0.51">
		<g>
			<g>
				<g>
					<path fill="#FFFFFF" d="M1194.1,278.3c0.4,0.4,0.4,0.4,0.5,0.4C1193.6,277.8,1194.2,278.4,1194.1,278.3z"/>
					<path fill="#FFFFFF" d="M1183.2,270.9l0.3-0.1c0,0-0.5-0.2-0.9-0.3c-0.5-0.1-0.9-0.3-0.9-0.3s0.4,0.2,0.8,0.3
						C1182.8,270.8,1183.2,270.9,1183.2,270.9z"/>
					<path fill="#FFFFFF" d="M1172.9,264.2c0.1,1,1.1,1.5,2.3,2c1.1,0.5,2.4,1,3.2,1.8l0.2,0.4c0,0,0.3-0.1,0.6-0.2
						c0.3-0.1,0.6-0.1,0.6-0.1C1177.6,266.7,1174.3,265.6,1172.9,264.2z"/>
					<path fill="#FFFFFF" d="M1169.1,256.9c0,0.9-1.4-0.3,1.1,1.2c-0.1-0.2-0.1-0.2-0.1-0.3C1169.9,257.6,1169.6,257.3,1169.1,256.9
						z"/>
					<path fill="#FFFFFF" d="M1170.1,257.7C1171.1,258.5,1169.7,256.6,1170.1,257.7L1170.1,257.7z"/>
					<path fill="#FFFFFF" d="M1165,254.4c0,0,0.4,0.1,0.9,0.2c0.4,0.1,0.9,0.2,0.9,0.2c-0.1-0.7-1.3-1.7-0.7-1.7
						C1164.4,252.4,1164.5,253.1,1165,254.4z"/>
					<path fill="#FFFFFF" d="M1162.9,255l0.9,0.2C1163.8,254.9,1163.6,254.7,1162.9,255z"/>
					<path fill="#FFFFFF" d="M1165.7,255.7c0,0-0.5-0.1-0.9-0.3c-0.5-0.1-0.9-0.2-0.9-0.2c0.1,0.5-0.2,1.1,0.8,0.3
						C1164.2,255.9,1164.8,255.6,1165.7,255.7z"/>
					<path fill="#FFFFFF" d="M1166.4,256.6c0.6,1,1.5,1.9-0.2,1.6c1.4,0.8,2.2,0.8,2.2,0.4C1168.5,258.2,1167.8,257.4,1166.4,256.6z
						"/>
					<path fill="#FFFFFF" d="M1171.6,265.4l0.9,1l1.2,0.1C1173.1,266.4,1171.8,264.9,1171.6,265.4z"/>
					<path fill="#FFFFFF" d="M1156.6,246.9c-0.3,0.5-0.1,1.7-0.3,2.4l1.3,0.1C1157.2,248.7,1156.3,247.7,1156.6,246.9z"/>
					<path fill="#FFFFFF" d="M1156.3,249.3c0,0-0.5,0-1-0.1c-0.5,0-1-0.1-1-0.1C1155.6,250.2,1156.1,250,1156.3,249.3z"/>
					<path fill="#FFFFFF" d="M1161.6,257.1c0,0,0.9,0,1.7,0c0.8,0,1.7,0.1,1.7,0.1s-1-0.1-1.9-0.3c-1-0.1-2-0.2-2-0.2L1161.6,257.1z
						"/>
					<path fill="#FFFFFF" d="M1150.4,242.6l1.5-0.7c0,0-0.6,0.2-1.3,0.5c-0.6,0.2-1.3,0.5-1.3,0.5L1150.4,242.6z"/>
					<path fill="#FFFFFF" d="M1146.1,240.1c1.2-0.7-0.1-2.7,0.9-2.9c-1.2-0.6-2.7-0.1-3.9,0.3
						C1144.3,237.5,1145.2,238.2,1146.1,240.1z"/>
					<path fill="#FFFFFF" d="M1141,237.9c0.6,0,1.3-0.3,2.1-0.5C1142.5,237.4,1141.8,237.5,1141,237.9z"/>
					<path fill="#FFFFFF" d="M1151.5,247.2c0-0.4,0.2-1.5-0.6-2.4l0,2C1151.1,246.9,1151.3,247,1151.5,247.2z"/>
					<path fill="#FFFFFF" d="M1150.9,246.8L1150.9,246.8c-0.7-0.5-1.2-0.9-1.4-1C1149.7,245.9,1150.1,246.2,1150.9,246.8z"/>
					<path fill="#FFFFFF" d="M1151.7,247.3c-0.1,0-0.1-0.1-0.2-0.1C1151.5,247.4,1151.6,247.4,1151.7,247.3z"/>
					<path fill="#FFFFFF" d="M1157.9,253.3c-1.3,0.1-3.7-0.1-2.3,2.2C1156.7,254.9,1155.9,253.6,1157.9,253.3z"/>
					<path fill="#FFFFFF" d="M1151.7,249.7l1.6,1.4c0.1-0.4,0.1-1.2,0.7-1.3c0,0-0.6,0-1.2,0
						C1152.3,249.7,1151.7,249.7,1151.7,249.7z"/>
					<polygon fill="#FFFFFF" points="1150.6,249.7 1151.7,249.7 1151.1,249.2 					"/>
					<path fill="#FFFFFF" d="M1143.4,241.5c-1.1,0.3-2-0.1-3-0.5c0.9,0.9,1.9,1.7,2.9,2.3C1143.7,242.8,1144.5,242.1,1143.4,241.5z"
						/>
					<path fill="#FFFFFF" d="M1147,244.2c-0.1,0-0.1,0-0.2,0C1146.8,244.4,1146.9,244.5,1147,244.2z"/>
					<path fill="#FFFFFF" d="M1130.7,235.9c0,0.2,0,0.3,0,0.5c0.1-0.1,0.1-0.2,0.2-0.4L1130.7,235.9z"/>
					<path fill="#FFFFFF" d="M1143.4,243.7c0.6,0.8,1.3,0.6,1.9,0.3c-0.6-0.2-1.3-0.4-2-0.7C1143.1,243.5,1143.1,243.7,1143.4,243.7
						z"/>
					<path fill="#FFFFFF" d="M1138,237.3c0.3,0.6,0.6,1.2,0.9,1.8C1138.8,238.3,1138.4,236.9,1138,237.3z"/>
					<path fill="#FFFFFF" d="M1146.7,243.6c0,0,0.1,0,0.1,0C1146.8,243.1,1146.7,243.3,1146.7,243.6z"/>
					<path fill="#FFFFFF" d="M1146.7,243.6c-0.5,0-1,0.3-1.5,0.5c0.5,0.1,1,0.2,1.5,0.2C1146.8,244.1,1146.7,243.8,1146.7,243.6z"/>
					<path fill="#FFFFFF" d="M1122.8,248.7c0.9-2,3.6-3.1,4.7-0.3c2.3-0.8,3.5-7.6,3.2-12c-0.4,0.8-0.7,1.6-2.9,2
						c0.3,1.4,3.2,4.3,1,5.5c-2.8,0-1.8-1.5-2.6-3.1c0.1,2.9-4.4,2.5-5.2,6.6l2.6-0.6C1123.5,247.3,1122.4,248,1122.8,248.7z"/>
					<path fill="#FFFFFF" d="M1134.2,238.4l0.8,0.2c-0.7-0.8-1.1-1.8-1.6-4c-1.6,0.3-2.1,0.9-2.5,1.5c0,0,0.9,0.5,1.8,1.1
						c0.9,0.5,1.8,1.1,1.8,1.1L1134.2,238.4z"/>
					<path fill="#FFFFFF" d="M1138.4,240.3c-1.3,1.6-3.5,1.6-3.2,4.3c2.3,0.9,2.2-0.9,3.8-1.1c-3.7-1.3,1.4-0.5-0.7-3
						c0.8,0,1.5,0.3,2.1,0.5c-0.5-0.6-1-1.2-1.5-1.9c0,0.1,0,0.1,0,0.2l0,0l0,0c0.1,0.3,0,0.5-0.1,0.3c0,0-0.1,0-0.1,0
						C1138.7,239.9,1138.5,240.1,1138.4,240.3c-0.9-1,0-0.6,0.4-0.7c0-0.1,0.1-0.2,0.2-0.3c0,0,0,0,0,0c0,0-1-0.2-2-0.4
						c-1-0.2-2-0.4-2-0.4C1135.7,239.2,1136.6,239.6,1138.4,240.3z"/>
					<path fill="#FFFFFF" d="M1152.4,257.7c-0.1-0.2,0-0.3,0-0.4C1152.1,257.4,1151.9,257.5,1152.4,257.7z"/>
					<path fill="#FFFFFF" d="M1151.3,256.1c0.3-0.1,0.8-0.6,1.6,0c0.5,0.8-0.3,0.7-0.5,1.2c0.7-0.2,2.2-0.2,1-1.7l-0.3,0.1
						c-1.2-1.2-2.1-4-1.8-4.1C1151,253.2,1151,254.4,1151.3,256.1z"/>
					<path fill="#FFFFFF" d="M1144.5,249c0,0-0.8-0.1-1.6-0.3c-0.8-0.2-1.6-0.3-1.6-0.3l0.9,2.3l0.3-1
						C1143.9,250.9,1144,249.6,1144.5,249z"/>
					<path fill="#FFFFFF" d="M1130.8,234.7l1.2-2.1c0,0-0.7,0.6-1.4,1.2c-0.7,0.6-1.4,1.2-1.4,1.2L1130.8,234.7z"/>
					<polygon fill="#FFFFFF" points="1126.8,233 1127.6,231 1126.2,231.7 					"/>
					<path fill="#FFFFFF" d="M897.2,304.4l-1.3,0.9C896.4,305,896.8,304.7,897.2,304.4z"/>
					<path fill="#FFFFFF" d="M905.5,305.7l0.3-1.9C905.4,304.8,905.2,305.6,905.5,305.7z"/>
					<path fill="#FFFFFF" d="M1017.6,213.9c-2.2-3.1-5-8-4-4l1.3,3.8C1015.8,212.9,1016.8,213.2,1017.6,213.9z"/>
					<path fill="#FFFFFF" d="M960,267.2c0.4,0.3,0.7,0.6,1.1,0.8c-0.6-1.4-1.1-2.7-1.6-3.9C959.6,265,959.8,266.1,960,267.2z"/>
					<path fill="#FFFFFF" d="M969.3,282.5l-3.2-1.2C967,281.8,968,282.3,969.3,282.5z"/>
					<path fill="#FFFFFF" d="M854.7,294.9l-2.7,3.2C853.7,298.9,853.8,296.7,854.7,294.9z"/>
					<path fill="#FFFFFF" d="M1083.6,218.6c-1.1-1.5-2-2.3-2.9-2.6C1082,218.1,1082.8,221.1,1083.6,218.6z"/>
					<path fill="#FFFFFF" d="M905.6,260.1c-0.5,0.7-0.8,1.6-0.9,2.5C905.2,261.9,905.6,261.2,905.6,260.1z"/>
					<path fill="#FFFFFF" d="M1077.1,215.1c0.2,0.4,0.4,0.6,0.6,0.9c1-0.4,2-0.6,3.1-0.1C1079.8,214.3,1078.6,213.1,1077.1,215.1z"
						/>
					<path fill="#FFFFFF" d="M741.1,261.4c-0.1,0-0.2,0-0.4-0.1C740.9,261.6,741,261.5,741.1,261.4z"/>
					<path fill="#FFFFFF" d="M705.5,276.5c0.1-0.4,0.4-1,0.7-1.6C706,275.2,705.7,275.6,705.5,276.5z"/>
					<path fill="#FFFFFF" d="M1110.8,224.7C1111.7,224.9,1111,224.5,1110.8,224.7L1110.8,224.7z"/>
					<path fill="#FFFFFF" d="M1112.1,236.7c-0.3,0.2-0.5,0.5-0.7,1.1C1111.6,237.2,1111.9,236.8,1112.1,236.7z"/>
					<path fill="#FFFFFF" d="M1065.9,234.9C1065.8,234.9,1065.8,234.8,1065.9,234.9C1066,235.5,1066,235.4,1065.9,234.9z"/>
					<path fill="#FFFFFF" d="M1111.8,226.4c-0.2-0.5-0.5-0.9-0.9-1.2C1111,225.5,1111.3,225.9,1111.8,226.4z"/>
					<path fill="#FFFFFF" d="M1112,225.1c0.3,0.2,0.5,0.4,0.7,0.6C1112.9,225.3,1112.9,225,1112,225.1z"/>
					<path fill="#FFFFFF" d="M1109.5,224.4c0.5,0.2,1,0.5,1.4,0.8c-0.1-0.2-0.2-0.4-0.1-0.5C1110.5,224.6,1110.2,224.5,1109.5,224.4
						z"/>
					<path fill="#FFFFFF" d="M804.8,256c0-0.1-0.1-0.2-0.1-0.3C803.6,256.6,804,256.6,804.8,256z"/>
					<path fill="#FFFFFF" d="M1006.3,260.3c0-0.1,0-0.2,0-0.2c0,0-0.1-0.1-0.2-0.1L1006.3,260.3z"/>
					<path fill="#FFFFFF" d="M1005,264.2c-0.5-2.6-0.5-3.9-0.2-4.3c0.3-0.5,0.8-0.2,1.3,0.1c0,0-1.3-2.7-2.5-5.4
						c-1.3-2.7-2.6-5.4-2.6-5.4s0.9,3.8,1.9,7.5C1003.9,260.4,1005,264.2,1005,264.2z"/>
					<path fill="#FFFFFF" d="M878,300.9c0,0,0.4,1.1,0.7,2.2c0.4,1.1,0.8,2.2,0.8,2.2c-4.7,5-6.5,2.1-5.5,8c1-3.1,2.1-4.5,3.4-5.1
						c1.2-0.6,2.5-0.4,3.9-0.2c2.6,0.4,5.4,0.7,6.9-5.6l1.2,3.1c-0.5-0.2-0.7,0.5-1.2,0.2c1.1,3.5,2.2,1.3,3.5-1.4
						c1.3-2.7,2.7-6,4.7-4.7c1.3,1.3,2.2,3.3,0.9,4.7c0,0,1-0.7,1.9-1.4c1-0.7,1.9-1.4,1.9-1.4c1,0.4,0.5,2.7-0.5,2.3
						c0,0,1.3-0.1,2.7-0.2c1.4-0.1,2.7-0.3,2.7-0.3l-0.1,0.4c0.5-1,1.2-2.3,1.8-3.5c0.7-1.2,1.4-2.3,1.8-3c1.2,2-0.7,1.4-0.5,3.1
						c0,0,0.8-0.8,1.5-1.6c0.7-0.8,1.5-1.6,1.5-1.6c0.6,1.8,0.2,3.5-0.5,4.6c-0.7,1.2-1.9,1.8-2.9,1.5c1.1,6.7,1.9,5.9,3,4.4
						c1.1-1.5,2.5-3.7,5.8,0.2c0,0-0.7,0.4-1.5,0.9c-0.8,0.4-1.5,0.9-1.5,0.9c1,3.8,2.2,5,3.6,5.8c1.4,0.9,3,1.2,5.1,3.5
						c-0.6-1.2-2.7-4.1-4.1-7.1c-1.4-3.1-2.1-6.3-0.5-8c1,1,2.4,1.4,3.9-1.5c0.5,4.7,2.2,3.5,4.4,2.9l0.7,6.3
						c2.4-2.2,1.7-5.3,2.6-8.4c2.8,0.1,4.4,4.8,6.1,8.7c2.6,0,1.2-1.8,0-3.8c-1.2-2.1-2.3-4.4,0.2-5.5c2.1,0.7,3.7,0.2,5.1-1.1
						c1.4-1.3,2.5-3.4,3.8-5.9c3.1,1.2,1,3.8,2.5,5.2c0,0,0.1-1.4,0.1-2.8c0-1.4,0.1-2.8,0.1-2.8c0.5-0.1,1,1.4,1.2,2.2
						c0.5-1.3-0.1-2.8-0.6-4.3c-0.5-1.5-0.8-3,0.1-4.4c-1.1-3.4,1.1-1.6,3.8-0.1c1.3,0.7,2.7,1.3,3.7,1.2c1-0.1,1.6-0.9,1.4-3.1
						c1.6,1.2,1.6,3.6,3,5.6c0.7-3.5,1-4.8,1.2-6.2c0.1-1.4,0-3.1-0.4-7c0,0,1.2,0.5,2.4,1c1.2,0.5,2.4,0.9,2.4,0.9
						c-4.4-2.8-5.3-9.1-6.1-14.1c-1.9-1.5-3.5-2.8-4.4-3.4c0,0,0.2-1.2,0.5-2.4c0.2-1.2,0.4-2.4,0.4-2.4c0.9,0.6,1.9,2.6,3,5.1
						c-0.1-0.6-0.2-1.1-0.3-1.6c2.4,1.2,4,4.6,5.3,8c-1.1-0.8-2.2-1.6-3.3-2.5c1.5,3.7,3.2,7.7,5.4,10.7c-0.2-0.7-0.2-1.5,0.1-2.1
						c0.4,1,0.8,1.9,1.3,2.3c0.5,0.5,0-0.9-0.4-2.6l4.8,5.3l-1.4-2.4l6.5,0.8c-1.4-7.8-5.3-18-2.7-23.4c1.9,5,4.6,7.1,8,12.1
						c-4.8-4.5-1.5,4.5-4.5,5c1.5-0.3,3,2.3,3.3,3.3l0.3-7.5c2.8,4.2,2.9,2.5,5,3.5c-6.3-7.6-1-7.4-1.1-10.9
						c1.9,2.7,3.3,5.8,1.1,6.3c3,2.4,2-0.4,1-3.4c-1-3-2-6.1,0.7-4c-0.4,0.3-0.9,0.1-0.2,1.6c-0.5-3.2,3.3-2.7,4.1,0.1l-0.4,0.3
						c0.4-0.1,0.9-0.2,1.3-0.4c0.5-0.2,0.9-0.4,1.4-0.7c0.9-0.6,1.8-1.4,2.5-2.4c1.4-2,2.3-4.9,1-8.8c0.4,1,3.4,9.3,3.9,10.9
						c0,0-0.4-1.7-0.8-4.3c-0.5-2.6-1.1-6.1-1.5-9.6c-1-7-1.5-14-1.5-14c0.9,3.4,3.3,8.8,5.2,13.9c1.9,5.1,3.4,10.1,2.9,12.4
						c1.1,0.6,2.3,1.4,3-1.6c-0.8-0.7-4.5-9-4-9.9c2.3,3.2,2.9,4.2,3.6,4.9c0.7,0.7,1.4,1.3,3.5,4c-1.2-1.2-3.4-11.8-1.9-11.9
						c0.2,1.6,3,10.2,2.9,11.4c0,0,0-2.8,0.1-5.6c0.1-2.8,0.3-5.5,0.3-5.5c-0.4,2.1,2.1,8.7,3.5,11.3c-0.8-1.9,2.7-0.6,3.3-1.8
						l-1.9-2c1.9,0.2,2.1-3.5,2.3-7.4c0.2-3.9,0.5-7.9,2.6-8c-0.2,2.2,1.1,13.1,3.1,14c0-2.7,0-9.1,0.5-15.3
						c0.5-6.2,1.7-12.4,3.5-14.4l1.1,2.9c0,0,0.7-0.9,1.3-1.8c0.7-0.9,1.4-1.8,1.4-1.8c-1.1,6.1-4.1,22.6-5.7,31.3
						c1.7,2.1,0.9,3.4,2.9,2.7c1.1,2.6-0.5,4.4-1.1,4.7c0,0,1.2,0.2,2.4,0.4c0.6,0.1,1.2,0.2,1.6,0.3c0.4,0.1,0.7,0.1,0.7,0.1
						c-0.9-5.9,3-6.6,2.4-11.4c0,0-1.2,1.7-2.4,3.5c-1.2,1.7-2.3,3.5-2.3,3.5c-0.5-3-0.2-7.3,0.7-10.8c0.9-3.5,2.6-6.2,4.5-5.9
						c1.1,2.3,0.1,10.5,0.3,12.5c0.3-2.1,3.1-4.2,3.5-2.8l-1.3,3.3c1,1,1.7-1,2.5-2.6c0.8-1.6,1.7-2.8,3-0.1
						c0.9,0.3,2.6,7.2,2.7,3.8c-1.4-6.4-2.2-26.7-1.2-31.6c0.2,0.2,1.5,1.8,2.8,3.7c1.3,1.9,2.7,4.2,3.2,5.8
						c0.7,2.5,0.1,5.5-0.5,8.4c-0.6,2.9-1.2,5.8-0.6,7.9c0.1-1.5,0.9-3.5,1.2-4.1c0.9,1.3-0.4,4.8,1.5,4c0.5-5.7,3.9,0.4,1-4.8
						c2-1.6,2,1.1,4.3,0.9c-0.3-1.8,0.4-4.8,1.4-7.6c1-2.7,2.4-5.2,3.5-5.9c-0.2,1.4,0.1,3.2,0.3,4c2,0.4,3.5,1.3,5,2.1
						c0.7,0.4,1.5,0.8,2.2,1.1c0.8,0.3,1.6,0.6,2.5,0.7c0.2,1.3,1.8,3,0.7,5.1c0.7-0.9,1.4-2.5,2.6-2.5c1.6,4.6-2.6,0.4-1.7,5.9
						c0.3-1.5,1.2-2.4,2.2-3.2c1-0.8,2.3-1.3,3.2-2.1c0.1-2.3-0.8-2.6-2-2.2c-1.2,0.4-2.6,1.7-3.6,2.5c0.4-3.2,1.6-6.3,3.2-8.9
						c1.6-2.6,3.8-4.5,6.1-5.5c3.5-0.8,0.7,4.2,1.4,3.5c2.9,1.2,4.7-1.1,6.3-2.9c1.6-1.8,3.1-3.2,5.1-0.4c1.2,4.2-1.6,7.1-1.7,9.8
						c-2.8,0.7-3.4-3.2-5.2-3.5l1.8,2.2c-1.1,1-3,1.6-3.7,0.4c0.2,0.9,1,1.5,2,2c1,0.5,2.3,0.8,3.7,1.2c1.4,0.4,2.9,0.8,4.3,1.3
						c1.4,0.6,2.6,1.3,3.6,2.3c1.1-0.9,2.8-1.7,2.5-3.2l-1.5,0.1c-0.6-3.1,3.7-2.9,2.2-4.7c2.4-1.3,5.4-3.4,7.7-0.9l-0.6,3.7
						c0.3-1-1.1-2.7-2.2-1.9c0.8-0.6,1.5,1,2.3,2.1c0.8,1.2,1.7,1.9,3-0.1l-1.1-3.1c2.5-1.1,6-3.6,8-1.5c0-3.8-0.7,0.2-1.1-4.5
						c-0.1,5.5-6-3-5.3,3.3c-0.1-2.7-0.8-3.5-1.5-4.3c-0.7-0.8-1.5-1.5-2.1-4.1c-0.3,1.2,0.2,2.7-1.7,1.2c-0.2,0.3-0.5,0.7-0.8,0.9
						c-0.1-0.1-0.1-0.1-0.1-0.1c0,0.1,0,0.1,0.1,0.2c-0.1,0.1-0.2,0.2,0,0.1c0.3,0.7,0.5,1.5,0.5,2.3c-1.8,2.4-5,1.2-6.5,2.3
						c-1.1-1,0.9-1.3,0.6-2.9l-2.2,1.7c0.6-2.9-2.1-5.9,1.3-6.6l-2.6-1.1c-1.2-2.2-3.2-3.7-4.8-2.8c-1.1-1.1-4,2.4-2.3,0.3
						c0,0-1.2,0.2-2.3,0.3c-1.2,0.2-2.3,0.3-2.3,0.3l0.1-0.8c-2.1-0.8-4.5,0-6.9,0.1c-2.4,0.1-4.7-0.3-6.8-3.9
						c-1.6,0.5-3.2,1.3-5.5-0.1l-0.2-3.1c-1,0.4-2.4-0.7-3.6-1.4c-1.3-0.7-2.4-1.1-2.9,0.4c-0.8-4.3-3.1-5.2-5.7-5.1
						c-2.6,0.1-5.3,1.1-7.1,0.2l-0.2,4.2c-2.4-0.4-4.6,0.7-7.5,2.3l0.3,3.8c-1.2,1.5-2.8,0.9-4.6-0.1c-0.9-0.5-1.9-1.1-2.9-1.6
						c-1-0.5-2-0.7-3-0.6c0.1-1.5,1.2-1.2,2-0.3c-2.7-4.4-5.2-2.6-7.4-0.6c-2.3,2.1-4.3,4.6-6.9,1.5c-0.9,1.6-1.7,1.1-2.6,0.3
						c0.1,0,0.2-0.1,0.2-0.3c-0.1,0-0.3,0-0.5,0c-0.6-0.6-1.2-1.4-1.9-1.9c0.6,0.9,1.2,1.7,1.7,2c-0.8,0.2-2,0.9-3,2.1l-1.4-4.3
						c-0.1,0.1-0.2,0.1-0.3,0.2c-1.6-1.4-0.6,2.2,0.7,5.4c-0.5,0.8-0.9,1.8-1.1,2.9c-1.2-3.4-1.9-2.7-2.6-2
						c-0.7,0.7-1.5,1.4-3.1-2.2c0,1.9-1.4,2.9-2.5,4.4c-1.2,1.6-2.2,3.7-1.3,7.6c-0.3-1-0.8-1.4-0.2-1.6c-1.5-0.5-3.2-1-3.6,1.5
						l-2.4-5.4c0,0,0,0.5-0.1,1.3c0,0.8-0.1,1.8-0.1,2.9c-0.1,2.1-0.1,4.2-0.1,4.2c-2.8-2.8-4.4-4.4-4.1-9.3c-1,4-1.6,4.9-2.1,5.7
						c-0.5,0.9-1,1.8-1.3,5.7l-1.3-3.6c-1.2,0.7-1,6.1-3.1,3.6c-1.4-1.3-3.1-1.6-4.8-1.4c-1.8,0.3-3.7,1-5.6,2.1c-2,1-4,2.1-6.1,2.9
						c-2.1,0.8-4.4,1.2-6.9,0.8c3.9,4.3,2.4,3.7,0.6,3c-1.8-0.7-4-1.6-1.5,2.1c-1.9-2-3.6-2.7-4.1-5.3c-0.7,2.1-2.5,2-3.7,2.3
						c-1.2,0.3-2,1-0.8,4.7c-1.9-2-1.8-3.7-3-4.8c0.1,0.6,0.5,2.5-0.7,1.4c-1.2-1.1-0.9-2.2-1.2-3.4c-2.5,2.3,2.1,9.4,6.5,16
						c-3.6-2.1-3.9-1.2-2,3.8c-2-1.8-4.3-3.5-3.1-5.4c-0.6,0.1-2.6,0.4-3.9,1.1c-1.4,0.7-2.1,2.1-0.5,4.8c-1.1-1.2-1.5,0.4-1.4,1.2
						c-1.2,0.5-1.8,0.5-2.5,0.7c-0.6,0.2-1.2,0.6-2.1,1.3l1,0.7c1.3,3.6,1.1,4.2,0.3,4.1c-0.8-0.1-2-0.9-2.6-0.1l-0.3-0.7
						c-3.1-1.7-3.2-0.9-3.4-0.2c-0.2,0.7-0.5,1.3-3.4-1l1.7,4.5c1.5,5-0.1,3.8-1.9,2c-0.9-0.9-1.9-2-2.7-2.7
						c-0.8-0.7-1.5-0.8-1.9,0.3c0,0,0.4,0.6,0.7,1.2c0.4,0.6,0.7,1.2,0.7,1.2c-0.3,1.9-2-1.3-3.6-5.2c-1.6-3.9-3-8.4-3.6-9
						c-0.3-0.8,0.2-1.5,0.3-2.2c-1.7-2.8-1.5-1.2-1.2,1.3c0.3,2.5,0.8,5.9-0.3,6.7c-0.7-3.3-0.4-8.6-1.8-9c-0.4-1.3-1.1,1.5-2.3,3.8
						c-0.6,1.1-1.2,2.2-1.9,2.6c-0.7,0.3-1.3,0-1.8-1.6c0.4,2.6,0.9,5.2-0.4,7.1c-0.5,0.2-1-0.3-1.5-1c-0.5-0.8-1.1-1.8-1.6-2.6
						c-1-1.6-2-2.3-3.3,1.6c-0.1-0.7-0.1-1.4-0.1-2c-0.8,0.9-2,1.7-3.3,2.7c-1.3,1-2.6,2.2-3.4,4.3c0.8-8-1.7-6.5-4.3-4.8
						c-2.6,1.5-5.2,3.2-3.2-3.8c0,0-1.2-0.1-2.3-0.2c-1.2-0.1-2.3-0.2-2.3-0.2l0.6-1.4c-1.3-0.9-2.4-0.5-3.5,0.4
						c-1.1,0.9-2.2,2.3-3.3,3.8c-0.3-1.1,0.6-2.2,0.9-2.9c-1.6-2-2.5-3-3.8-2.7c-1.3,0.3-3,1.7-6.1,4.3l1.4-4.4
						c-1,1.1-1.8-1.2-3.1-3.3c-0.6-1-1.5-2-2.5-2.6c-1-0.6-2.3-0.7-3.9,0.1c0.3-0.4,0.7-1.2,1.3-1.6c-3.5,1.4-5.1-2.6-6.9-5.2
						c-1.8-2.6-3.9-3.7-8.2,2.9l-4.9,2c3.7,3-3.5,5.8-2.9,8.9c-2,0-2.3-6.1,0.1-5.9l0,0.8c4.2-6.9-4.1-4.9-1.8-9.7
						c-4.4-1.5-8.4-4.1-12.6-6.5c-4.1-2.4-8.4-4.7-13-5.8l-0.5,5.5c0,0-0.7-0.3-1.5-0.5c-0.7-0.3-1.5-0.5-1.5-0.5
						c-0.5-1.4,0-4.3,2.2-3.7c-0.2-1.6-1.4-1.2-2.5-0.2c-1.1,1-2.2,2.5-2.4,3c-1.9-1.5-1.2-2.9,0-4c1.1-1.1,2.7-1.9,2-2.1
						c0,0-0.5,0-1,0c-0.5,0-1,0-1,0l0.3,0.7c-2.1,1.9-2.7,4.1-5.4,3.4c-1.5-1.3-0.3-3.3-1-3.6c0.1-0.4-0.1-0.6-1.1-0.3
						c0,0-1-0.2-2.1-0.4c-0.5-0.1-1-0.2-1.4-0.3c-0.4-0.1-0.7-0.1-0.7-0.1s0.3,1,0.6,2c0.3,1,0.5,2.1,0.5,2.1
						c-2.1,1.8-3.8-0.5-2.6,4.1c-0.8-3.6-4.7-4.4-8.4-4.4c-3.7,0-7.2,0.8-8.1-0.1c-1.2,1.4-2.4,2.2-3.7,2.6
						c-1.3,0.4-2.6,0.5-4.1,0.6c0.8,0.6,1.6,4.4-0.9,4.2c0-3.9-1.2-4.6-2.9-4.8c-0.8-0.1-1.7-0.1-2.6-0.4c-0.9-0.3-1.7-0.8-2.5-2
						c1.2,1.5-0.6,2.2-2.2,3c-1.6,0.9-3,1.9-1.1,3.8c-2.2,0-0.7-2.6-2.7-3.7c-1.1,1.1-2.3,1.7-3.7,2.2c-1.3,0.5-2.8,0.8-4.3,1.1
						c-3,0.6-6.2,1.3-8.9,3.3c0.2,0.7,1.6,1.3,0.8,3c0,0-1.1-0.5-2.2-0.9c-1.1-0.4-2.2-0.8-2.2-0.8c-1,1,0.7,4.2-2.3,3.3
						c0.5,0.3,1.3,0.9,0.7,1.5c-6,1.8-10.8,6.5-15.2,11.1c-1.1,1.1-2.1,2.4-3.2,3.5c-1,1.2-2.1,2.4-3.1,3.6c-1,1.2-2,2.4-3,3.6
						c-0.5,0.6-0.9,1.3-1.4,1.9c-0.5,0.6-0.9,1.3-1.3,1.9c1.1-1.3,0.6-0.2,0.1,0.9c0.5-0.7,0.4,0.3,0.7,0.3c0,0-0.2,0.3-0.5,0.6
						c-0.3,0.4-0.6,0.9-1,1.5c-0.3,0.5-0.6,1.1-0.9,1.5c-0.2,0.4-0.3,0.7-0.3,0.7c0.1,0.6-0.4,1.8-0.8,3.1c-0.4,1.3-0.7,2.5-0.7,2.8
						c0,0,0.1-0.4,0.2-0.8c0.1-0.4,0.2-0.8,0.2-0.8c-0.2,1.1,0.1,0.4,0.7-0.4c0.3-0.4,0.6-0.8,0.9-1.1c0.3-0.3,0.6-0.4,0.7-0.3
						c0.2-0.5,0.5-1.1,1-1.7c0.5-0.6,1.1-1.1,1.7-1.7c1.3-1.2,2.9-2.3,3.5-4.1c0.8-0.4-0.1,0.8,0.4,0.7c0.1-0.5,0.3-1,0.7-1.5
						c0.4-0.5,1.1-1,2-1.6l0,0.3c1.1-1,2.1-1.7,3-2.4c1-0.6,1.9-1.2,2.9-1.7c2-1,4.2-1.8,7.3-2.9l-1.2-0.9c1.3-0.5,1.8-0.3,2.6-0.2
						c0.2-2.6-3.5,1.7-3.6-0.9c1.6,0.6,3.8-0.4,6-1.4c2.2-0.9,4.4-1.7,5.9-0.1c2-0.7-1.5-1.6,0.5-2.3l1,0.8l-0.1-1.5
						c1.4-0.3,2.7,0.9,3.2,1.8c-0.4,0-0.8,0.5-1.1,0.7c2.3,0.8,4.6-1.7,5.4-1.4c0,0-0.6-0.1-1.1-0.1c-0.6-0.1-1.1-0.1-1.1-0.1
						c2.5-1.2,5.6-1.9,8.7-2.4c3-0.6,6-1.2,8.3-3l-0.7-1.1c1.9-1.3,2.8-1.1,3.8-0.7c1,0.4,2,0.9,4.2,0.3l-0.1,0.3
						c0.4-0.6,0.8-1.2,1.4-1.5c0.5-0.3,1.2-0.5,1.8-0.4c-1,1.5,2.4,3,1.1,4.7c2.1-1.3,2.6-1.7,2.9-2.6c0.3-0.8,0.4-1.9,1.8-4.5
						l0.8,2.3c1-2,1-3.2,3.4-3.7c-1,1-0.6,1.9-0.3,2.9c0.3,1,0.6,2.1-0.4,3.4c2.3,2.8,3.9,1.8,5.4,0.9c1.4-0.8,2.7-1.4,3.2,2.8
						c2.9-6.6-3.6-4.5-2.3-5.8c-0.4-1.2,0.1-2.4,1-3.2c0.9-0.8,2.1-1.2,2.8-0.8c0.8,0.2,1.2,2.5,1.8,4.9c0.6,2.4,1.4,4.9,3.1,5.3
						c-0.3-0.1-0.5,0.4-0.8,0.3c0.5,1.1,1.2,0.6,2,0.4c0.8-0.3,1.6-0.4,2.1,1.4c2-4.2,2,1,3.7-4.6c0,0-0.9,0.1-1.9,0.1
						c-0.9,0.1-1.8,0.2-1.8,0.2c1.1-0.4,2.5-2.2,4-3.3c1.5-1.1,3.1-1.6,4.2,0.6c-0.6,1.1-2,2.2-2.9,2.9c0.5,2,2.1-0.5,2.6,1.6
						c-1,2.8-2.1,2.7-3.3,2.5c-1.2-0.3-2.7-0.8-4.1,1c0.2,1.3,1.3,0.7,2.2,0.3c0.8-0.3,1.3-0.2,0,2.7c1.7-3.7,2.6-3.1,3.4-2.2
						c0.8,0.9,1.7,2,3.9-0.5l-1.3,3.4c0.5-0.4,1.9-1.7,2.5-1.3l-2.7,4c1.6-1.5,2.2-0.3,2.7,1.2c0.5,1.5,0.9,3.2,2.1,2.6
						c-3.7-1.7,0.7-4.6,0.1-7.9c3.3-1.3,3.1,1.3,2.8,4.4c-0.3,3.1-0.8,6.5,2.1,7c-0.9,0.1-1.7-3.5,0-4.6c0.7,1.2,1.4,3.3,1.2,5.5
						c3.7,1.1,1-4,3.5-5.4c-0.7,5,2.5-0.9,4.7-1.5l-1.6,3.7c3,4.6,4.6-7.1,7-2.3l-4,4.3l2.6-0.3l-2.4,4c3.6-2,3.8-0.8,5.4,1.5
						c0.8-2.9,3.5-6.7,5.5-5.8c0.2,2.9-2.4,3.2,0.5,4.1c-1.7,2.1-3.8,4.7-3.3,0.5c-0.7,1.2-1.7,2.1-2.4,3.2c0.1,3.3,3.2,2.6,4.1,3
						c-0.3-0.4-0.6-0.8-0.6-1.5l6.5-3.2c-0.1,1.8-1.1,2.7-2.2,3.6c1,0,2.4-1.5,3.8-1.2c-1.8,3-3.3,6.3-5.7,6.9l5.5-1.4
						c-0.4,1.5,0.2,4.9-0.8,5.8c0.7,1.5,2.7,0.7,4.9,0c2.2-0.7,4.4-1.4,5.4,0.7c0.4-0.6,1-1,1.9-1.2c1.3,1.1,2.2,3,3.5,4.2
						c1.3,1.2,2.9,1.8,5.6,0.2c0,0,0,1.8-0.1,3.5c0,1.8,0,3.5,0,3.5c1.7-0.1,1.7-2.4,1.9-4.7c0.3-2.3,0.8-4.5,3.6-4.8
						c4-0.8-0.5,5.8,0.1,8.1c1.4-1.3,3.3-3.3,5.1-4.2c1.8-1,3.4-0.8,4.3,2.3C879.7,302,879.1,300.8,878,300.9z M918.4,303.9
						c-0.7,1-2.4,4.1-3,1.3C916.2,299.8,916.9,302.4,918.4,303.9z M969.3,271.8c0.5,1.6-0.5,1.4-2.3,0.4
						C967.3,271.5,968,271.3,969.3,271.8z M1100.4,223.6c0,0-0.1,0.1-0.1,0.1C1099.1,222,1099.6,222.7,1100.4,223.6z M1103.1,226
						c0.4-0.3,0.5-0.8,0.5-1.3c-0.4,0.7-1.1,0.5-1.8,0.1C1101.8,225.7,1102,226.4,1103.1,226z M800.7,230.9l0.5,1
						C799.5,232.7,800.1,231.9,800.7,230.9z"/>
					<path fill="#FFFFFF" d="M968.2,280.7c-0.6-0.6-1.2-1.3-1.7-2C966.7,279.5,967.2,280.3,968.2,280.7z"/>
					<path fill="#FFFFFF" d="M855.2,294.3C855.2,294.3,855.1,294.3,855.2,294.3c-0.2,0.1-0.4,0.4-0.5,0.6L855.2,294.3z"/>
					<path fill="#FFFFFF" d="M1053.8,250.2c-0.6-0.6-0.9-1.3-1.1-2C1052.7,249.2,1052.9,250,1053.8,250.2z"/>
					<path fill="#FFFFFF" d="M1120.2,227.3c0,0-0.5,0-1-0.1c-0.5,0-1,0-1,0c0.9,0.3,1.1,1,1.4,1.6
						C1119.7,228.2,1119.6,227.1,1120.2,227.3z"/>
					<path fill="#FFFFFF" d="M1130.6,249.6c0.4-0.2,0.6,0.2,0.9,0l0.3-1.1C1130.7,248.1,1129.6,248.7,1130.6,249.6z"/>
					<path fill="#FFFFFF" d="M1119,237.1c-0.6,2.3,0.8,2,2.2,2.1c-0.1,0-0.2,0-0.2-0.1C1122.4,236.1,1120.7,236.6,1119,237.1z"/>
					<path fill="#FFFFFF" d="M1121.6,239.2c0.4,0,0.9,0.1,1.2,0.4C1123.4,238.4,1122.4,239.1,1121.6,239.2z"/>
					<path fill="#FFFFFF" d="M1107.3,225.7c0.5,0.9,1.3-3.1,1.3-1.9c0.8-1.5-0.5-0.9-1.6,0C1106.1,224.6,1105.4,225.9,1107.3,225.7z
						"/>
					<polygon fill="#FFFFFF" points="1117.7,244.9 1118.1,242 1116.7,244 					"/>
					<path fill="#FFFFFF" d="M1108.2,239.6l1.8,1.5c0.1-0.5,0.5-0.7,0.8-0.8C1109.6,239.7,1108.4,238.7,1108.2,239.6z"/>
					<path fill="#FFFFFF" d="M1110.9,240.2c0.6,0.3,1.3,0.4,1.8,0C1112.3,240.2,1111.5,240,1110.9,240.2z"/>
					<polygon fill="#FFFFFF" points="1114.7,244.8 1114.2,244.1 1112.9,243.4 					"/>
					<path fill="#FFFFFF" d="M1085.7,233.4l-2.5,0.6c-0.4,1.2,0.1,2.1,1,1.7C1085,235,1085.9,234.7,1085.7,233.4z"/>
					<path fill="#FFFFFF" d="M1090.8,244.3c-0.5-0.8-0.3-1.6-0.5-2.8l-0.9,4.3L1090.8,244.3z"/>
					<path fill="#FFFFFF" d="M1084.1,244.3c-0.4,1.2-3.8,3.2-1,3.2C1083.6,246.3,1086,245.6,1084.1,244.3z"/>
					<polygon fill="#FFFFFF" points="1050.4,236 1051,235.9 1050.9,227.4 					"/>
					<path fill="#FFFFFF" d="M1024.4,261.1c2.6,1.6-0.5-5.8,2-3.6c0.2-2.3-2.1-1.8-1.9-3.8C1023.5,256.3,1022.5,255.2,1024.4,261.1z
						"/>
					<path fill="#FFFFFF" d="M1024.5,253.7c0.2-0.4,0.3-0.9,0.5-1.6C1024.7,252.8,1024.6,253.3,1024.5,253.7z"/>
					<path fill="#FFFFFF" d="M703,282.8c0,0-0.1,0.4-0.2,0.9c-0.1,0.5-0.2,0.9-0.2,0.9s0.1-0.3,0.2-0.6c0.1-0.3,0.2-0.6,0.2-0.6
						L703,282.8z"/>
					<path fill="#FFFFFF" d="M702.5,286.3c0,0-0.2,0.4-0.1,0.4c0,0,0,0.3,0,0.6c0,0.3-0.1,0.5-0.1,0.5
						C702.3,287.4,702.4,286.6,702.5,286.3z"/>
					<path fill="#FFFFFF" d="M926.3,316.4l0-1.6c-0.6-1.6-1.2-1.7-2.4-1.9c0,0,0.6,0.9,1.2,1.7C925.7,315.5,926.3,316.4,926.3,316.4
						z"/>
					<polygon fill="#FFFFFF" points="893.5,310 893.9,310.2 893.9,304.4 					"/>
					<path fill="#FFFFFF" d="M867.4,309.9c0.9,0.6,2.4-0.2,3.3,0.4C868.3,310.4,869.3,303.2,867.4,309.9z"/>
				</g>
			</g>
		</g>
	</g>
</g>
<g id="mountains">
	<path fill="#FFFFFF" d="M416.8,369.8c-13.5-0.6-26.8-6.5-35.3-17c-4.7-5.8-10.4-13.6-17.5-11.5c-8.5,2.5-8.2,16.7-16.5,20.1
		c-8.2,3.3-15.9-6.9-24.7-7.4c-9.9-0.5-16.9,11.3-26.8,11.7c-7.7,0.4-13.8-6.1-20.1-10.5c-4.5-3.1-9.6-5.2-14.9-6.2
		c22.2-33.1,46.6-56,71.4-56C361.9,293,391.1,325.8,416.8,369.8z"/>
	<path fill="#939598" d="M507,593.8H158.5c0,0,44-157.8,102.4-244.8c5.3,1,10.4,3.1,14.9,6.2c6.4,4.4,12.4,10.9,20.1,10.5
		c9.9-0.5,16.9-12.2,26.8-11.7c8.8,0.4,16.5,10.7,24.7,7.4c8.3-3.3,7.9-17.5,16.5-20.1c7.2-2.1,12.8,5.7,17.5,11.5
		c8.5,10.5,21.8,16.4,35.3,17C469,458.9,507,593.8,507,593.8z"/>
	<path fill="#FFFFFF" d="M1135.7,480.5c-17.8,7.2-38.6,7.1-55.8-1.4c-10.5-5.2-21.7-13.4-32.8-9.4c-10.1,3.6-14.8,15.8-24.7,19.9
		c-10.2,4.2-21.4-1.6-32-4.7c-7.8-2.3-15.9-2.9-24-2.1c-2.4-3.9-4.9-7.8-7.5-11.7c25.3-23.5,54-40.9,83.4-40.9
		C1075.4,430.2,1107.9,452.4,1135.7,480.5z"/>
	<path fill="#939598" d="M1217,593.8H868.5c0,0,27.9-54.5,68.8-100.6c6.8-7.7,14-15.2,21.5-22.1c2.6,3.9,5.1,7.8,7.5,11.7
		c8-0.8,16.2-0.2,24,2.1c10.6,3.1,21.8,9,32,4.7c9.8-4.1,14.6-16.3,24.7-19.9c11.1-3.9,22.3,4.3,32.8,9.4
		c17.3,8.5,38.1,8.6,55.8,1.4C1183.2,528.6,1217,593.8,1217,593.8z"/>
	<path fill="#F1F2F2" d="M732.1,508.2c-3.7,6.2-22.1,3.8-29.3,4.4c-6.5,0.6-13.3-1.6-19.4,0.8c-5.4,2.1-8.9,7.5-14.1,10.2
		c-6.1,3.2-13.5,2.1-20.1,0c-4.8-1.5-9.4-3.5-14.2-4.8c15-22.3,32-38.6,49.2-38.6C696.6,480.2,720.6,495.3,732.1,508.2z"/>
	<path fill="#939598" d="M790.7,643.8H578.5c0,0,23.9-76.6,56.6-125c4.8,1.3,9.4,3.3,14.2,4.8c6.5,2.1,14,3.1,20.1,0
		c5.2-2.7,8.6-8,14.1-10.2c6-2.4,12.9-0.2,19.4-0.8c7.2-0.6,25.6,1.8,29.3-4.4c1.5,1.7-8.9-3.5-7.5-1.7c21.2,26.3,39.7,67,51.6,97.3
		C785.4,626.8,790.7,643.8,790.7,643.8z"/>
	<path fill="#FFFFFF" d="M926.4,428.3c-3.4,1.4-7.2,2.1-10.8,2.3c-8,0.3-16-1.5-23.9,0c-9.1,1.8-16.7,7.7-24.7,12.5
		c-7.9,4.8-17.4,8.7-26.3,6c-11.8-3.6-20.1-18.2-32.2-16.2c-9,1.5-14.9,11.9-24,12.2c-5.5,0.2-10-3.4-14.1-7.5
		c25-30.5,53.1-52.9,81.8-52.9C878,384.8,903.3,402.7,926.4,428.3z"/>
	<path fill="#808285" d="M1027,603.8H678.5c0,0,17.9-46.9,46.1-97.3c13.3-23.7,28.8-48.1,45.8-68.9c4,4.1,8.5,7.7,14.1,7.5
		c9.1-0.3,15-10.7,24-12.2c12.2-2,20.4,12.6,32.2,16.2c8.9,2.7,18.4-1.2,26.3-6c7.9-4.8,15.6-10.7,24.7-12.5
		c7.8-1.5,15.9,0.2,23.9,0c3.6-0.1,7.5-0.8,10.8-2.3c11.5,12.8,22.4,27.4,32.5,42.7c2.6,3.9,5.1,7.8,7.5,11.7
		c27.6,44.2,48.2,91,56.6,111C1025.6,600.1,1027,603.8,1027,603.8z"/>
	<path fill="#FFFFFF" d="M272.6,455c-1.9-0.4-3.8-1-5.6-1.7c-6.8-2.6-13.4-6.6-20.7-6.9c-9.2-0.4-17.8,4.9-26.9,4.9
		c-13.2,0-24.7-11-37.8-10.2c-13.9,0.9-23.8,14.5-37.2,18.2c-10,2.8-20.7-0.3-30.4-4.2c-7.8-3.2-15.5-7-23.6-8.9
		c26.4-40.3,56.9-71.5,88.2-71.5C212,374.8,244.8,410.6,272.6,455z"/>
	<path fill="#808285" d="M349.5,621.8H8.5c0,0,34-102.6,81.8-175.5c8.1,1.9,15.8,5.7,23.6,8.9c9.6,3.9,20.3,7,30.4,4.2
		c13.5-3.7,23.3-17.3,37.2-18.2c13.1-0.8,24.6,10.1,37.8,10.2c9.2,0,17.8-5.3,26.9-4.9c7.3,0.3,13.9,4.2,20.7,6.9
		c1.8,0.7,3.7,1.3,5.6,1.7C317.7,527.1,349.5,621.8,349.5,621.8z"/>
</g>
<g id="hills">
	<path fill="#2BA05E" d="M1274.9,559.9c-56.3-30.3-125.1-23.9-187-8c-61.9,15.9-122.2,40.7-186,45c-107.4,7.2-211.1-44.2-318.8-46
		C467,549,355.5,605,239.3,602.9C188.6,602,138.8,590,88.2,586.4c-50.6-3.6-104.7,2.5-145,33.1L0,800l1260,21L1274.9,559.9z"/>
	<path fill="#72C169" d="M-72.1,717.3c30.2-9,60.4-17.7,90.8-26.1c30.4-8.4,60.8-16.6,91.2-24.7c26.7-7.1,53.6-14.3,81.1-16.8
		c38.3-3.5,76.7,2.2,114.9,7.2c54.5,7.1,109.2,12.7,163.9,18.4c18.9,2,37.9,3.9,56.8,5.9c10.7,1.1,21.3,2.2,32.1,2.7
		c65.2,3.2,129.5-14.9,194.6-20.2c50.8-4.2,101.8-0.6,152.6,2.9c131.9,9.3,264.4,18.6,393.6,46.5"/>
</g>
</svg>
