<?xml version="1.0" encoding="utf-8"?>
<!-- Generator: Adobe Illustrator 18.1.1, SVG Export Plug-In . SVG Version: 6.00 Build 0)  -->
<svg version="1.1" xmlns="http://www.w3.org/2000/svg" xmlns:xlink="http://www.w3.org/1999/xlink" x="0px" y="0px"
	 viewBox="0 0 1000 482" enable-background="new 0 0 1000 482" xml:space="preserve">
<g id="Layer_3">
</g>
<g id="Layer_1">
	<path fill="none" d="M916.8,237.1c6.9,1.3,13.8,2.4,20.8,3.6C930.6,239.6,923.7,238.4,916.8,237.1L916.8,237.1z"/>
	<path fill="none" d="M220.1,66.3c10.7-2.8,21.1-6.2,31.7-9.2c5.6-4.7,11.4-9.1,16.8-13.9c-5.4,4.7-11.3,9.2-16.8,13.9
		C241.3,60.1,230.8,63.5,220.1,66.3z"/>
	<path fill="none" d="M809.9,446.3c0.7-3,1.4-6.1,2.4-9c0,0,0,0,0,0C811.3,440.3,810.6,443.3,809.9,446.3z"/>
	<path fill="none" d="M124.4,354c-2.1,1.3-4.1,2.7-6,4.2C120.3,356.7,122.3,355.3,124.4,354z"/>
	<path fill="none" d="M385.4,136.2c4.5,2.1,9,4.2,13.6,6.3C394.4,140.4,389.9,138.3,385.4,136.2c-13.7-4.5-27.9-5.8-42.2-6.5
		C357.5,130.5,371.8,131.7,385.4,136.2z"/>
	<path fill="none" d="M338.9,129.5c-2.6-0.1-5.1-0.2-7.7-0.3C333.8,129.3,336.3,129.4,338.9,129.5z"/>
	<path fill="none" d="M201.1,286.9c0.9,0,1.7,0.1,2.6,0.1C202.8,286.9,202,286.9,201.1,286.9C201.1,286.9,201.1,286.9,201.1,286.9z"
		/>
	<path fill="none" d="M133.2,349.3c-3.1,1.4-6,3-8.8,4.7C127.2,352.3,130.1,350.7,133.2,349.3z"/>
	<path fill="none" d="M809.9,446.3c-0.2,1-0.5,2-0.8,3C809.4,448.4,809.6,447.4,809.9,446.3z"/>
	<path fill="#4B4B4B" d="M910.1,198.4c-0.5-2.9-0.1-6-0.1-9c-20.7-22-41.6-43.8-47.7-72.3c-7.7-36.4-32.4-66.1-53.7-97.5
		c-4.2-6.3-8-12.8-11.3-19.5H558c-5.8,10.2-12.6,20.2-21,29c-5.8,6.1-17.1,8.7-26,12.6c-2.2,1-5,0.9-7.6,1.4
		c-17.2,3.3-18.6,6.2-21.6,20.2c-4.4,20.6-9.5,41.4-17,61.3c-7,18.4-32.8,25.9-55.3,18.6c-7.9-2.6-16.1-4.6-24.1-6.9
		c4.5,2.1,9,4.2,13.6,6.3c1.5,0.7,3.1,1.4,4.6,2.1c-0.8,1.1-1.2,2.3-2,2.5c-22.6,7.7-33,23.9-40.4,41.4c-3.6,8.6-10.5,12.6-19,16.6
		c-12.1,5.7-23.6,12.3-35.8,17.7c-4.9,2.2-11.2,2.2-16.9,3.2c0.6,2.8,2.9,7.2,1.6,8.1c-19,12.6-28.7,30.7-41.8,46.8
		c-0.2,0.2-0.3,0.4-0.5,0.6c-0.5,0.5-1.1,1-1.6,1.6c0,3,0.1,6.1,0.1,9.1c3.2,9.1,5.9,18.3,9.8,27.1c2.2,4.9,5.9,9.7,9.9,13.8
		c8,8,16.8,15.4,25,23.3c7.9,7.5,8.7,16.5,7.1,25.9c-1.6,9.6-2.8,19.2-4.5,28.8c-3.3,19.3,1.3,38,6.8,56.5
		c1.5,5.1,5.3,10.4,9.8,14.4h469.5c8.2-6.9,17.4-13.4,23.4-21.5c2.4-3.3,3.8-7.2,4.9-11.2c0.3-1,0.5-2,0.8-3c0.7-3,1.4-6.1,2.4-9
		c-0.4-6.6-0.7-13.2-1.1-19.8c-0.4-6.6-0.7-13.2-1.1-19.8c-0.2-3.3-0.1-6.6-0.2-10c0.3-9.6-0.2-19.4,1.3-28.9
		c2.1-13.2,3.5-26.9,9.4-39c8.2-16.9,20.2-32.6,30.8-48.6c1.5-2.3,4.4-4.2,7.2-5.6c9.7-4.8,19.4-9.6,29.1-14.3
		c9.7-4.7,19.5-9.5,29.2-14.2h0h0C914.5,224.2,912.2,211.3,910.1,198.4z"/>
	<path fill="#5A5A5A" d="M94.3,338.5c6.4-5.3,13.1-10.9,21-14.4c21.7-9.8,44.1-18.5,66.2-27.7c4.3-1.8,8.3-4,12.4-6
		c2.4-1.2,4.8-2.4,7.2-3.6c0,0,0,0,0,0c0,0,0,0,0,0c0,0,0,0,0,0c8.3-0.5,16.5-1,24.8-1.5c2.8-0.2,5.5-0.4,8.3-0.6
		c4.4-0.3,8.7-1.1,13.1-1.7c0.5-0.5,1.1-1,1.6-1.6c0.2-0.2,0.3-0.4,0.5-0.6c13-16.1,22.8-34.2,41.8-46.8c1.3-0.8-1-5.3-1.6-8.1
		c-50.9,3.1-93.2,24.3-135.4,44.8c-14.7,7.2-29.9,5.2-44.8,7.4c-18.4,2.7-37.4,2.5-55.8,5.1c-17.9,2.5-35.6,5.2-53.4,8.1v101.5
		c24.2-9.8,47.7-21,70.5-33C80,354.9,86,345.4,94.3,338.5z"/>
	<path fill="#474747" d="M862.3,117.1c6.1,28.5,27.1,50.3,47.7,72.3c3.7-7,8.4-13.7,10.9-21c7.1-20.3,22.2-36.3,38.5-51.8
		c4.5-4.3,10.3-8.2,16.5-10.5c8.7-3.2,16.7-7,24.1-11.4V31c0-17.1-13.8-31-30.6-31H797.3c3.3,6.7,7.1,13.3,11.3,19.5
		C829.9,50.9,854.6,80.7,862.3,117.1z"/>
	<path fill="#424242" d="M959.4,116.6c-16.2,15.5-31.4,31.5-38.5,51.8c-2.6,7.3-7.2,14-10.9,21c0,3-0.4,6,0.1,9
		c2.1,12.9,4.4,25.8,6.7,38.7c6.9,1.3,13.8,2.4,20.8,3.6c11.5,2,23.1,4.1,34.4,6.7c6.9,1.6,12.7,6.3,18.8,9.8c1.7,1,2.5,3.1,4,4.4
		c1.9,1.6,3.6,3.3,5.3,5.1V94.7c-7.4,4.4-15.4,8.2-24.1,11.4C969.7,108.4,963.9,112.3,959.4,116.6z"/>
	<path fill="#444444" d="M1000,451V266.8c-1.6-1.7-3.4-3.4-5.3-5.1c-1.5-1.3-2.2-3.4-4-4.4c-6.1-3.5-12-8.2-18.8-9.8
		c-11.3-2.6-22.9-4.7-34.4-6.7c-6.9-1.2-13.9-2.4-20.8-3.6h0c-9.7,4.7-19.5,9.5-29.2,14.2c-9.7,4.7-19.4,9.5-29.1,14.3
		c-2.8,1.4-5.7,3.3-7.2,5.6c-10.6,16.1-22.6,31.7-30.8,48.6c-5.9,12.1-7.3,25.9-9.4,39c-1.5,9.5-0.9,19.3-1.3,28.9
		c0.8,7.7,2,15.5,2.3,23.2c0.4,8.8,0.1,17.6,0.1,26.4c-1,2.9-1.6,6-2.4,9c-0.2,1-0.5,2-0.8,3c-1.1,4-2.5,7.8-4.9,11.2
		c-6,8.1-15.1,14.6-23.4,21.5h188.6C986.2,482,1000,468,1000,451z"/>
	<path fill="#5D5D5D" d="M109.2,278.3c14.9-2.2,30.2-0.2,44.8-7.4c42.2-20.6,84.6-41.7,135.4-44.8c5.7-1,12-1,16.9-3.2
		c12.3-5.4,23.7-12,35.8-17.7c8.5-4,15.4-8,19-16.6c7.4-17.5,17.8-33.7,40.4-41.4c0.8-0.3,1.1-1.4,2-2.5c-1.6-0.7-3.1-1.4-4.6-2.1
		c-4.6-2.1-9.1-4.2-13.6-6.3c-13.7-4.5-27.9-5.8-42.2-6.5c-1.4-0.1-2.9-0.1-4.3-0.2c-2.6-0.1-5.1-0.2-7.7-0.3
		c-2.6-0.1-5.2-0.2-7.9-0.4c-19.4-1.1-34.4,8.2-51.1,13.6c-18.9,6.1-37.5,12.9-56.8,18c-5.9,1.6-13.6-1.5-20.5-2.2
		c-31.1-3.2-61.9-2.1-92.5,4.2c-7.4,1.5-14.7,3-22.1,4.5c-22.1,4.4-44.3,8.7-66.5,13c-3.2,0.5-6.3,1.4-9.5,1.8
		c-1.1,0.1-2.1,0.2-3.2,0.2c-0.4,0-0.9,0-1.3,0v109.5c17.8-2.8,35.6-5.6,53.4-8.1C71.9,280.8,90.8,280.9,109.2,278.3z"/>
	<path fill="#505050" d="M301.5,467.6c-5.5-18.5-10.1-37.2-6.8-56.5c1.6-9.6,2.9-19.2,4.5-28.8c1.6-9.4,0.8-18.4-7.1-25.9
		c-8.2-7.8-17.1-15.2-25-23.3c-4.1-4.1-7.8-8.8-9.9-13.8c-3.9-8.8-6.6-18.1-9.8-27.1c-10.3-9.6-23.7-4.3-35.9-5
		c-2.6-0.2-5.2-0.2-7.8-0.3c-0.9,0-1.7,0-2.6-0.1c0,0,0,0,0,0c-2.4,1.2-4.8,2.4-7.2,3.6c0,3.8,1,8-0.4,11.4c-1.8,4.2-6,7.6-8.7,11.6
		c-9.6,14.7-22.7,25.6-42.1,32c-3.3,1.1-6.6,2.4-9.6,3.8c-3.1,1.4-6,3-8.8,4.7c-2.1,1.3-4.1,2.7-6,4.2c-6.5,5.1-11.8,11.3-15.7,18.6
		c-1.6,3.6-3,7.4-4.7,11c-0.6,1.2-1.2,2.4-1.9,3.5c-17,28.5-34.3,56.8-51.5,85.2c-1.4,2.3-2.5,4.1-3.1,5.5h269.8
		C306.8,478,303.1,472.7,301.5,467.6z"/>
	<path fill="#757575" d="M84.2,95.2c1.9-1.6,3.6-3.4,5.5-5.1c8.7-21.2,12.3-43.1,11-65.2c-0.2-3.2-0.5-6.3-0.8-9.5
		C99.2,10,94.3,4.6,89.7,0H30.6C13.8,0,0,14,0,31v122.1c28.6-17.5,55.8-36.6,82.2-56.4C82.9,96.2,83.5,95.7,84.2,95.2z"/>
	<path fill="#5B5B5B" d="M102.7,376.8c3.8-7.3,9.2-13.5,15.7-18.6c1.9-1.5,3.9-2.9,6-4.2c2.8-1.7,5.7-3.3,8.8-4.7
		c3.1-1.4,6.3-2.7,9.6-3.8c19.4-6.4,32.5-17.3,42.1-32c2.6-4,6.9-7.4,8.7-11.6c1.5-3.4,0.4-7.6,0.4-11.4c-4.1,2-8.1,4.2-12.4,6
		c-22.1,9.2-44.5,17.9-66.2,27.7c-7.9,3.5-14.6,9.1-21,14.4c-8.3,6.9-14.3,16.4-23.9,21.4c-22.7,12-46.2,23.2-70.5,33V451
		c0,17.1,13.8,31,30.6,31h7.2c18.7-30.8,37.4-61.7,56.2-92.5C96.7,385.2,99.8,381,102.7,376.8z"/>
	<path fill="#393939" d="M96.1,391.3c0.7-1.2,1.3-2.3,1.9-3.5c1.7-3.6,3.1-7.3,4.7-11c-2.9,4.2-6.1,8.4-8.7,12.7
		c-18.8,30.8-37.5,61.7-56.2,92.5h3.7c0.7-1.4,1.7-3.2,3.1-5.5C61.8,448.1,79.1,419.7,96.1,391.3z"/>
	<path fill="#636363" d="M13.9,179.9c22.2-4.4,44.3-8.6,66.5-13c7.4-1.5,14.8-3,22.1-4.5c30.6-6.3,61.4-7.5,92.5-4.2
		c6.9,0.7,14.6,3.8,20.5,2.2c19.3-5.1,37.9-11.9,56.8-18c16.7-5.4,31.7-14.7,51.1-13.6c2.6,0.2,5.2,0.3,7.9,0.4
		c2.6,0.1,5.1,0.2,7.7,0.3c1.4,0.1,2.9,0.1,4.3,0.2c14.3,0.7,28.5,2,42.2,6.5c8,2.3,16.2,4.4,24.1,6.9c22.5,7.3,48.4-0.2,55.3-18.6
		c7.6-20,12.6-40.7,17-61.3c3-14,4.4-16.9,21.6-20.2c2.5-0.5,5.4-0.5,7.6-1.4c9-3.9,20.2-6.5,26-12.6c8.3-8.8,15.2-18.7,21-29H317.3
		c-4,2.2-8,4.6-11.8,7c-12.7,8.2-20.8,21-31.5,31.4c-1.7,1.7-3.5,3.3-5.3,4.8c-5.4,4.7-11.3,9.2-16.8,13.9
		c-10.6,3-21.1,6.4-31.7,9.2c-3.6,0.9-7.1,1.8-10.7,2.5c-30,6.2-60.2,11.7-90.3,17.2c-9.7,1.8-19.6,2.7-29.4,4
		c-1.9,1.7-3.6,3.5-5.5,5.1c-0.6,0.5-1.3,1.1-2,1.6C55.8,116.6,28.6,135.6,0,153.1v26.4C4.6,179.6,9.3,179.8,13.9,179.9z"/>
	<path fill="#2B2B2B" d="M811.1,417.5c0.4,6.6,0.7,13.2,1.1,19.8c0,0,0,0,0,0c0-8.8,0.3-17.6-0.1-26.4c-0.4-7.8-1.5-15.5-2.3-23.2
		c0.1,3.3,0,6.6,0.2,10C810.4,404.3,810.8,410.9,811.1,417.5z"/>
	<path fill="#2A2A2A" d="M234.2,284.8c-2.8,0.2-5.5,0.4-8.3,0.6c-8.3,0.5-16.5,1-24.8,1.5c0,0,0,0,0,0c0.9,0,1.7,0.1,2.6,0.1
		c2.6,0.1,5.2,0.1,7.8,0.3c12.2,0.7,25.6-4.6,35.9,5c0-3-0.1-6.1-0.1-9.1C242.9,283.7,238.6,284.5,234.2,284.8z"/>
	<path fill="#3A3A3A" d="M4.4,181.7c3.2-0.4,6.3-1.3,9.5-1.8c-4.6-0.1-9.3-0.3-13.9-0.4v2.5c0.4,0,0.9,0,1.3,0
		C2.3,181.9,3.4,181.9,4.4,181.7z"/>
	<path fill="#4E4E4E" d="M221.1,28.6c11.7,8,20.6,18.9,30.7,28.6c5.6-4.7,11.4-9.1,16.8-13.9c1.8-1.6,3.6-3.2,5.3-4.8
		c10.7-10.4,18.9-23.2,31.5-31.4c3.8-2.5,7.8-4.8,11.8-7H187.1C196.8,11,208.4,19.9,221.1,28.6z"/>
	<path fill="#515151" d="M100.7,24.9C102,47,98.4,68.8,89.7,90c9.8-1.3,19.7-2.2,29.4-4c30.2-5.5,60.4-10.9,90.3-17.2
		c3.6-0.8,7.2-1.6,10.7-2.5c10.7-2.8,21.1-6.2,31.7-9.2c-10.1-9.6-19-20.5-30.7-28.6c-12.7-8.7-24.4-17.6-34-28.6H89.7
		c4.5,4.6,9.5,10,10.1,15.4C100.2,18.6,100.5,21.7,100.7,24.9z"/>
</g>
<g id="Layer_2" display="none">
</g>
</svg>
