<?xml version="1.0" encoding="utf-8"?>
<!-- Generator: Adobe Illustrator 18.1.1, SVG Export Plug-In . SVG Version: 6.00 Build 0)  -->
<svg version="1.1" xmlns="http://www.w3.org/2000/svg" xmlns:xlink="http://www.w3.org/1999/xlink" x="0px" y="0px"
	 viewBox="0 0 50 50" enable-background="new 0 0 50 50" xml:space="preserve">
<g id="Layer_2">
	<polygon fill="#BCBEC0" points="13.3,0 11.8,5.2 9.4,5.2 	"/>
	<polygon fill="#939598" points="17.2,5.2 11.8,5.2 13.3,0 	"/>
	<polygon fill="#BCBEC0" points="21.1,0 19.6,5.2 17.2,5.2 	"/>
	<polygon fill="#939598" points="25,5.2 19.6,5.2 21.1,0 	"/>
	<polygon fill="#BCBEC0" points="28.9,0 27.5,5.2 25,5.2 	"/>
	<polygon fill="#939598" points="32.8,5.2 27.5,5.2 28.9,0 	"/>
	<polygon fill="#BCBEC0" points="36.7,0 35.3,5.2 32.8,5.2 	"/>
	<polygon fill="#939598" points="40.6,5.2 35.3,5.2 36.7,0 	"/>
	<polygon fill="#BCBEC0" points="49.9,13.3 44.7,11.8 44.7,9.4 	"/>
	<polygon fill="#939598" points="44.7,17.2 44.7,11.8 49.9,13.3 	"/>
	<polygon fill="#BCBEC0" points="49.9,21.1 44.7,19.6 44.7,17.2 	"/>
	<polygon fill="#939598" points="44.7,25 44.7,19.6 49.9,21.1 	"/>
	<polygon fill="#BCBEC0" points="49.9,28.9 44.7,27.5 44.7,25 	"/>
	<polygon fill="#939598" points="44.7,32.8 44.7,27.5 49.9,28.9 	"/>
	<polygon fill="#BCBEC0" points="49.9,36.7 44.7,35.3 44.7,32.8 	"/>
	<polygon fill="#939598" points="44.7,40.6 44.7,35.3 49.9,36.7 	"/>
	<polygon fill="#BCBEC0" points="0.1,36.8 5.3,38.2 5.3,40.7 	"/>
	<polygon fill="#939598" points="5.3,32.8 5.3,38.2 0.1,36.8 	"/>
	<polygon fill="#BCBEC0" points="0.1,28.9 5.3,30.4 5.3,32.8 	"/>
	<polygon fill="#939598" points="5.3,25 5.3,30.4 0.1,28.9 	"/>
	<polygon fill="#BCBEC0" points="0.1,21.1 5.3,22.5 5.3,25 	"/>
	<polygon fill="#939598" points="5.3,17.2 5.3,22.5 0.1,21.1 	"/>
	<polygon fill="#BCBEC0" points="0.1,13.3 5.3,14.7 5.3,17.2 	"/>
	<polygon fill="#939598" points="5.3,9.4 5.3,14.7 0.1,13.3 	"/>
	<polygon fill="#BCBEC0" points="36.8,49.9 38.2,44.7 40.7,44.7 	"/>
	<polygon fill="#939598" points="32.8,44.7 38.2,44.7 36.8,49.9 	"/>
	<polygon fill="#BCBEC0" points="28.9,49.9 30.4,44.7 32.8,44.7 	"/>
	<polygon fill="#939598" points="25,44.7 30.4,44.7 28.9,49.9 	"/>
	<polygon fill="#BCBEC0" points="21.1,49.9 22.5,44.7 25,44.7 	"/>
	<polygon fill="#939598" points="17.2,44.7 22.5,44.7 21.1,49.9 	"/>
	<polygon fill="#BCBEC0" points="13.3,49.9 14.7,44.7 17.2,44.7 	"/>
	<polygon fill="#939598" points="9.4,44.7 14.7,44.7 13.3,49.9 	"/>
</g>
<g id="Layer_1">
	<path fill="#D1D3D4" d="M14.4,45h-4C7.4,45,5,42.6,5,39.6V10.4C5,7.4,7.4,5,10.4,5h4C11.5,5,9,7.4,9,10.4v29.2
		C9,42.6,11.5,45,14.4,45z"/>
	<path fill="#A7A9AC" d="M45,10.4v29.2c0,2.9-2.4,5.4-5.4,5.4H14.4C11.5,45,9,42.6,9,39.6V10.4C9,7.4,11.5,5,14.4,5h25.2
		C42.6,5,45,7.4,45,10.4z"/>
</g>
<g id="details">
</g>
</svg>
